<svg xmlns="http://www.w3.org/2000/svg" width="305" height="265" viewBox="0 0 305 265">
    <defs>
        <style>
            .cls-1,.cls-2{fill:none}.cls-1{stroke:#707070}.cls-3{clip-path:url(#clip-path)}.cls-4,.cls-6{fill:#42c8b7}.cls-4{opacity:.15}.cls-5{clip-path:url(#clip-path-2)}.cls-7{fill:#fff}.cls-8{fill:#2e546a}.cls-20,.cls-9{fill:#174159}.cls-10{fill:#305eea}.cls-11{fill:#382747}.cls-12{fill:#f2f2f2}.cls-13{fill:#e2e2e2}.cls-14{fill:#1abea3}.cls-15{fill:#021340}.cls-16{fill:#133747}.cls-17,.cls-21{fill:#f9fbfc}.cls-18{fill:#a5b7c6}.cls-19{fill:#7f5eff}.cls-20,.cls-21,.cls-22,.cls-23,.cls-24{fill-rule:evenodd}.cls-22{fill:#ff6565}.cls-23{fill:#56548c}.cls-24{fill:#112b46}.cls-25{fill:#c1c7d3}.cls-26{fill:#b5bbc6}.cls-27{fill:#fca579}
        </style>
        <clipPath id="clip-path">
            <path id="Rectangle_11941" d="M0 0h305v265H0z" class="cls-1" data-name="Rectangle 11941" transform="translate(28 2593)"/>
        </clipPath>
        <clipPath id="clip-path-2">
            <path id="Path_33313" d="M349.822 252.765c-2.713-8.371-8.216-55.038-16.669-57.486-20.648-5.979-17.986-28.12-40.591-39.576-43.841-22.219-69.841-64.671-115.962-47.693-12.976 4.776-68.541 100.745-76.533 112.028-9.579 13.524-10.481 31.2-10.24 47.775.2 13.553 1.019 27.49 6.707 39.792 4.911 10.62 13.181 19.367 22.277 26.726 35.611 28.812 86.416 37.6 129.639 22.436 17.714-6.217 36.373-2.774 53.479-10.509 12.534-5.668 23.473-23.721 33.346-33.3 9.7-9.407 15.035-22.853 15.64-36.351.359-8.073 1.402-16.144-1.093-23.842z" class="cls-2" data-name="Path 33313" transform="translate(-89.792 -104.099)"/>
        </clipPath>
    </defs>
    <g id="Mask_Group_64" class="cls-3" data-name="Mask Group 64" transform="translate(-28 -2593)">
        <g id="Group_9981" data-name="Group 9981" transform="translate(49 2593.901)">
            <path id="Path_33179" d="M349.822 433.122a26.585 26.585 0 0 0-17.9-17.3c-20.648-5.979-32.258-18.407-54.863-29.863-43.842-22.219-96.8-38.846-142.922-21.868-12.976 4.776-26.085 25.02-34.077 36.3-9.579 13.524-10.481 31.2-10.24 47.775.2 13.553 1.019 27.49 6.707 39.792 4.911 10.62 13.181 19.367 22.277 26.726 35.611 28.812 86.416 37.6 129.639 22.436 17.714-6.217 33.911-16.04 51.016-23.776 12.541-5.664 25.941-10.45 35.814-20.027 9.7-9.407 15.035-22.853 15.64-36.351.361-8.074 1.404-16.146-1.091-23.844z" class="cls-4" data-name="Path 33179" transform="translate(-89.792 -284.456)"/>
            <g id="Group_10171" data-name="Group 10171">
                <g id="Group_10170" class="cls-5" data-name="Group 10170">
                    <g id="Group_10169" data-name="Group 10169" transform="translate(17.628 2.882)">
                        <g id="Group_9984" data-name="Group 9984" transform="translate(110.361 28.572)">
                            <g id="Group_9981-2" data-name="Group 9981">
                                <ellipse id="Ellipse_1782" cx="10.751" cy="18.621" class="cls-6" data-name="Ellipse 1782" rx="10.751" ry="18.621" transform="rotate(-30 20.062 5.375)"/>
                            </g>
                            <g id="Group_9983" data-name="Group 9983" transform="translate(11.908 15.929)">
                                <g id="Group_9982" data-name="Group 9982">
                                    <path id="Path_33180" d="M582.277 279.46a3.242 3.242 0 0 1-1.12-1.182l-3.747-6.49c-.619-1.071-.619-2.229 0-2.586s1.621.221 2.239 1.293l2.627 4.55 5.394-3.114c.619-.357 1.621.221 2.239 1.293s.619 2.228 0 2.586l-6.513 3.761a1.119 1.119 0 0 1-1.119-.111z" class="cls-7" data-name="Path 33180" transform="translate(-576.947 -269.096)"/>
                                </g>
                            </g>
                        </g>
                        <g id="Group_9991" data-name="Group 9991" transform="translate(60.189)">
                            <g id="Group_9985" data-name="Group 9985">
                                <path id="Path_33181" d="M389.439 114.483l-26.42 15.254a4.665 4.665 0 0 0-2.249 3.548v14.57c0 1.242 1.007 1.668 2.249.951l1.41-.814v6.245l4.355-8.759 20.655-11.925a4.665 4.665 0 0 0 2.249-3.553v-14.57c0-1.239-1.007-1.664-2.249-.947z" class="cls-8" data-name="Path 33181" transform="translate(-360.769 -114.134)"/>
                            </g>
                            <g id="Group_9990" data-name="Group 9990" transform="translate(5.006 5.471)">
                                <g id="Group_9986" data-name="Group 9986">
                                    <path id="Path_33182" d="M398.385 135.2l-19.462 11.236c-.4.23-.722-.014-.722-.546a1.73 1.73 0 0 1 .722-1.38l19.462-11.236c.4-.23.723.014.723.546a1.73 1.73 0 0 1-.723 1.38z" class="cls-9" data-name="Path 33182" transform="translate(-378.201 -133.184)"/>
                                </g>
                                <g id="Group_9987" data-name="Group 9987" transform="translate(0 3.351)">
                                    <path id="Path_33183" d="M398.385 146.867L378.923 158.1c-.4.23-.722-.014-.722-.546a1.73 1.73 0 0 1 .722-1.38l19.462-11.236c.4-.23.723.014.723.546a1.73 1.73 0 0 1-.723 1.383z" class="cls-9" data-name="Path 33183" transform="translate(-378.201 -144.854)"/>
                                </g>
                                <g id="Group_9988" data-name="Group 9988" transform="translate(0 6.703)">
                                    <path id="Path_33184" d="M398.385 158.537l-19.462 11.236c-.4.23-.722-.014-.722-.546a1.73 1.73 0 0 1 .722-1.38l19.462-11.236c.4-.23.723.014.723.546a1.73 1.73 0 0 1-.723 1.38z" class="cls-9" data-name="Path 33184" transform="translate(-378.201 -156.524)"/>
                                </g>
                                <g id="Group_9989" data-name="Group 9989" transform="translate(0 10.054)">
                                    <path id="Path_33185" d="M398.385 170.207l-19.462 11.236c-.4.23-.722-.014-.722-.546a1.73 1.73 0 0 1 .722-1.38l19.462-11.236c.4-.231.723.014.723.546a1.73 1.73 0 0 1-.723 1.38z" class="cls-9" data-name="Path 33185" transform="translate(-378.201 -168.194)"/>
                                </g>
                            </g>
                        </g>
                        <g id="Group_9999" data-name="Group 9999" transform="translate(209.376 128.334)">
                            <g id="Group_9992" data-name="Group 9992" transform="translate(0 42.01)">
                                <path id="Path_33186" d="M880.272 708.143c0-.8.646-1.07 1.442-.61a2.992 2.992 0 0 1 1.443 2.276c0 .8-.646 1.069-1.443.61a2.992 2.992 0 0 1-1.442-2.276z" class="cls-6" data-name="Path 33186" transform="translate(-880.272 -707.31)"/>
                            </g>
                            <g id="Group_9993" data-name="Group 9993" transform="translate(0 35.008)">
                                <path id="Path_33187" d="M880.272 683.762c0-.8.646-1.07 1.442-.61a2.992 2.992 0 0 1 1.443 2.275c0 .8-.646 1.07-1.443.61a2.991 2.991 0 0 1-1.442-2.275z" class="cls-6" data-name="Path 33187" transform="translate(-880.272 -682.929)"/>
                            </g>
                            <g id="Group_9994" data-name="Group 9994" transform="translate(0 28.006)">
                                <path id="Path_33188" d="M880.272 659.381c0-.8.646-1.07 1.442-.61a2.992 2.992 0 0 1 1.443 2.275c0 .8-.646 1.07-1.443.61a2.992 2.992 0 0 1-1.442-2.275z" class="cls-6" data-name="Path 33188" transform="translate(-880.272 -658.548)"/>
                            </g>
                            <g id="Group_9995" data-name="Group 9995" transform="translate(0 21.005)">
                                <path id="Path_33189" d="M880.272 635c0-.8.646-1.07 1.442-.61a2.992 2.992 0 0 1 1.443 2.275c0 .8-.646 1.07-1.443.61a2.992 2.992 0 0 1-1.442-2.275z" class="cls-6" data-name="Path 33189" transform="translate(-880.272 -634.167)"/>
                            </g>
                            <g id="Group_9996" data-name="Group 9996" transform="translate(0 14.003)">
                                <path id="Path_33190" d="M880.272 610.619c0-.8.646-1.07 1.442-.61a2.992 2.992 0 0 1 1.443 2.276c0 .8-.646 1.07-1.443.61a2.992 2.992 0 0 1-1.442-2.276z" class="cls-6" data-name="Path 33190" transform="translate(-880.272 -609.785)"/>
                            </g>
                            <g id="Group_9997" data-name="Group 9997" transform="translate(0 7.002)">
                                <path id="Path_33191" d="M880.272 586.237c0-.8.646-1.069 1.442-.61a2.992 2.992 0 0 1 1.443 2.276c0 .8-.646 1.069-1.443.61a2.992 2.992 0 0 1-1.442-2.276z" class="cls-6" data-name="Path 33191" transform="translate(-880.272 -585.404)"/>
                            </g>
                            <g id="Group_9998" data-name="Group 9998">
                                <path id="Path_33192" d="M880.272 561.856c0-.8.646-1.07 1.442-.61a2.992 2.992 0 0 1 1.443 2.275c0 .8-.646 1.07-1.443.61a2.993 2.993 0 0 1-1.442-2.275z" class="cls-6" data-name="Path 33192" transform="translate(-880.272 -561.023)"/>
                            </g>
                        </g>
                        <g id="Group_10007" data-name="Group 10007" transform="translate(219.855 94.626)">
                            <g id="Group_10000" data-name="Group 10000" transform="translate(.577 42.009)">
                                <path id="Path_33193" d="M918.776 590.764c0-.8.646-1.07 1.443-.61a2.991 2.991 0 0 1 1.442 2.275c0 .8-.646 1.07-1.442.61a2.992 2.992 0 0 1-1.443-2.275z" class="cls-9" data-name="Path 33193" transform="translate(-918.776 -589.931)"/>
                            </g>
                            <g id="Group_10001" data-name="Group 10001" transform="translate(.577 35.008)">
                                <path id="Path_33194" d="M918.776 566.383c0-.8.646-1.07 1.443-.61a2.991 2.991 0 0 1 1.442 2.275c0 .8-.646 1.07-1.442.61a2.993 2.993 0 0 1-1.443-2.275z" class="cls-9" data-name="Path 33194" transform="translate(-918.776 -565.55)"/>
                            </g>
                            <g id="Group_10002" data-name="Group 10002" transform="translate(0 27.487)">
                                <ellipse id="Ellipse_1783" cx="1.085" cy="1.918" class="cls-9" data-name="Ellipse 1783" rx="1.085" ry="1.918" transform="rotate(-36.97 1.951 .653)"/>
                            </g>
                            <g id="Group_10003" data-name="Group 10003" transform="translate(.577 21.005)">
                                <path id="Path_33195" d="M918.776 517.621c0-.8.646-1.07 1.443-.61a2.991 2.991 0 0 1 1.442 2.275c0 .8-.646 1.07-1.442.61a2.992 2.992 0 0 1-1.443-2.275z" class="cls-9" data-name="Path 33195" transform="translate(-918.776 -516.788)"/>
                            </g>
                            <g id="Group_10004" data-name="Group 10004" transform="translate(.577 14.003)">
                                <path id="Path_33196" d="M918.776 493.24c0-.8.646-1.07 1.443-.61a2.992 2.992 0 0 1 1.442 2.276c0 .8-.646 1.07-1.442.61a2.992 2.992 0 0 1-1.443-2.276z" class="cls-9" data-name="Path 33196" transform="translate(-918.776 -492.406)"/>
                            </g>
                            <g id="Group_10005" data-name="Group 10005" transform="translate(.577 7.002)">
                                <path id="Path_33197" d="M918.776 468.858c0-.8.646-1.069 1.443-.61a2.992 2.992 0 0 1 1.442 2.276c0 .8-.646 1.07-1.442.61a2.992 2.992 0 0 1-1.443-2.276z" class="cls-9" data-name="Path 33197" transform="translate(-918.776 -468.025)"/>
                            </g>
                            <g id="Group_10006" data-name="Group 10006" transform="translate(.577)">
                                <path id="Path_33198" d="M918.776 444.477c0-.8.646-1.069 1.443-.61a2.992 2.992 0 0 1 1.442 2.276c0 .8-.646 1.069-1.442.61a2.993 2.993 0 0 1-1.443-2.276z" class="cls-9" data-name="Path 33198" transform="translate(-918.776 -443.644)"/>
                            </g>
                        </g>
                        <g id="Group_10015" data-name="Group 10015" transform="translate(17.515 83.85)">
                            <g id="Group_10008" data-name="Group 10008" transform="translate(.578 42.01)">
                                <path id="Path_33199" d="M214.179 553.24c0-.8.646-1.07 1.442-.61a2.992 2.992 0 0 1 1.442 2.275c0 .8-.646 1.07-1.442.61a2.992 2.992 0 0 1-1.442-2.275z" class="cls-9" data-name="Path 33199" transform="translate(-214.179 -552.407)"/>
                            </g>
                            <g id="Group_10009" data-name="Group 10009" transform="translate(.578 35.008)">
                                <path id="Path_33200" d="M214.179 528.859c0-.8.646-1.07 1.442-.61a2.992 2.992 0 0 1 1.442 2.275c0 .8-.646 1.07-1.442.61a2.991 2.991 0 0 1-1.442-2.275z" class="cls-9" data-name="Path 33200" transform="translate(-214.179 -528.026)"/>
                            </g>
                            <g id="Group_10010" data-name="Group 10010" transform="translate(0 27.488)">
                                <ellipse id="Ellipse_1784" cx="1.085" cy="1.918" class="cls-9" data-name="Ellipse 1784" rx="1.085" ry="1.918" transform="rotate(-36.97 1.951 .653)"/>
                            </g>
                            <g id="Group_10011" data-name="Group 10011" transform="translate(.578 21.005)">
                                <path id="Path_33201" d="M214.179 480.1c0-.8.646-1.07 1.442-.61a2.992 2.992 0 0 1 1.442 2.275c0 .8-.646 1.07-1.442.61a2.992 2.992 0 0 1-1.442-2.275z" class="cls-9" data-name="Path 33201" transform="translate(-214.179 -479.264)"/>
                            </g>
                            <g id="Group_10012" data-name="Group 10012" transform="translate(.578 14.003)">
                                <path id="Path_33202" d="M214.179 455.716c0-.8.646-1.07 1.442-.61a2.992 2.992 0 0 1 1.442 2.276c0 .8-.646 1.07-1.442.61a2.992 2.992 0 0 1-1.442-2.276z" class="cls-9" data-name="Path 33202" transform="translate(-214.179 -454.882)"/>
                            </g>
                            <g id="Group_10013" data-name="Group 10013" transform="translate(.578 7.002)">
                                <path id="Path_33203" d="M214.179 431.334c0-.8.646-1.069 1.442-.61a2.992 2.992 0 0 1 1.443 2.276c0 .8-.646 1.069-1.442.61a2.993 2.993 0 0 1-1.443-2.276z" class="cls-9" data-name="Path 33203" transform="translate(-214.179 -430.501)"/>
                            </g>
                            <g id="Group_10014" data-name="Group 10014" transform="translate(.578)">
                                <path id="Path_33204" d="M214.179 406.953c0-.8.646-1.07 1.442-.61a2.992 2.992 0 0 1 1.442 2.275c0 .8-.646 1.07-1.442.61a2.993 2.993 0 0 1-1.442-2.275z" class="cls-9" data-name="Path 33204" transform="translate(-214.179 -406.12)"/>
                            </g>
                        </g>
                        <g id="Group_10023" data-name="Group 10023" transform="translate(6.27 113.965)">
                            <g id="Group_10016" data-name="Group 10016" transform="translate(0 42.01)">
                                <path id="Path_33205" d="M173.011 658.107c0-.8.646-1.07 1.442-.61a2.993 2.993 0 0 1 1.443 2.276c0 .8-.646 1.069-1.443.61a2.992 2.992 0 0 1-1.442-2.276z" class="cls-6" data-name="Path 33205" transform="translate(-173.011 -657.273)"/>
                            </g>
                            <g id="Group_10017" data-name="Group 10017" transform="translate(0 35.008)">
                                <path id="Path_33206" d="M173.011 633.725c0-.8.646-1.07 1.442-.61a2.992 2.992 0 0 1 1.443 2.276c0 .8-.646 1.069-1.443.61a2.993 2.993 0 0 1-1.442-2.276z" class="cls-6" data-name="Path 33206" transform="translate(-173.011 -632.892)"/>
                            </g>
                            <g id="Group_10018" data-name="Group 10018" transform="translate(0 28.006)">
                                <path id="Path_33207" d="M173.011 609.344c0-.8.646-1.07 1.442-.61a2.992 2.992 0 0 1 1.443 2.275c0 .8-.646 1.07-1.443.61a2.992 2.992 0 0 1-1.442-2.275z" class="cls-6" data-name="Path 33207" transform="translate(-173.011 -608.511)"/>
                            </g>
                            <g id="Group_10019" data-name="Group 10019" transform="translate(0 21.005)">
                                <path id="Path_33208" d="M173.011 584.963c0-.8.646-1.07 1.442-.61a2.992 2.992 0 0 1 1.443 2.275c0 .8-.646 1.07-1.443.61a2.992 2.992 0 0 1-1.442-2.275z" class="cls-6" data-name="Path 33208" transform="translate(-173.011 -584.13)"/>
                            </g>
                            <g id="Group_10020" data-name="Group 10020" transform="translate(0 14.003)">
                                <path id="Path_33209" d="M173.011 560.582c0-.8.646-1.07 1.442-.61a2.993 2.993 0 0 1 1.443 2.275c0 .8-.646 1.07-1.443.61a2.992 2.992 0 0 1-1.442-2.275z" class="cls-6" data-name="Path 33209" transform="translate(-173.011 -559.749)"/>
                            </g>
                            <g id="Group_10021" data-name="Group 10021" transform="translate(0 7.002)">
                                <path id="Path_33210" d="M173.011 536.2c0-.8.646-1.07 1.442-.61a2.993 2.993 0 0 1 1.443 2.276c0 .8-.646 1.07-1.443.61a2.992 2.992 0 0 1-1.442-2.276z" class="cls-6" data-name="Path 33210" transform="translate(-173.011 -535.367)"/>
                            </g>
                            <g id="Group_10022" data-name="Group 10022">
                                <path id="Path_33211" d="M173.011 511.819c0-.8.646-1.069 1.442-.61a2.993 2.993 0 0 1 1.443 2.276c0 .8-.646 1.07-1.443.61a2.992 2.992 0 0 1-1.442-2.276z" class="cls-6" data-name="Path 33211" transform="translate(-173.011 -510.986)"/>
                            </g>
                        </g>
                        <g id="Group_10066" data-name="Group 10066" transform="translate(32.213 35.675)">
                            <g id="Group_10042" data-name="Group 10042" transform="translate(97.485 21.28)">
                                <g id="Group_10029" data-name="Group 10029" transform="translate(27.76 51.981)">
                                    <g id="Group_10024" data-name="Group 10024" transform="translate(0 47.634)">
                                        <path id="Path_33212" d="M706.519 661.064s-6.781 2.906-7.034 8.158 13.906-2.419 14.4-4.406-.755-5.871-2.084-5.436-5.282 1.684-5.282 1.684z" class="cls-10" data-name="Path 33212" transform="translate(-699.481 -659.347)"/>
                                    </g>
                                    <g id="Group_10025" data-name="Group 10025" transform="translate(11.058 53.475)">
                                        <path id="Path_33213" d="M745.026 681.405s-6.781 2.906-7.034 8.158 13.905-2.419 14.4-4.406-.756-5.871-2.085-5.436-5.281 1.684-5.281 1.684z" class="cls-11" data-name="Path 33213" transform="translate(-737.988 -679.688)"/>
                                    </g>
                                    <g id="Group_10026" data-name="Group 10026" transform="translate(16.822 3.842)">
                                        <path id="Path_33214" d="M763.7 560.674a4.187 4.187 0 0 1-4.133-3.554c-1.432-9.365-1.5-44.579-1.507-46.073a4.186 4.186 0 0 1 4.179-4.192h.007a4.186 4.186 0 0 1 4.186 4.179c0 .36.073 36.073 1.411 44.821a4.191 4.191 0 0 1-4.143 4.819z" class="cls-8" data-name="Path 33214" transform="translate(-758.06 -506.854)"/>
                                    </g>
                                    <g id="Group_10027" data-name="Group 10027" transform="translate(5.414)">
                                        <path id="Path_33215" d="M723.972 547.294a4.187 4.187 0 0 1-4.133-3.554c-1.432-9.365-1.5-44.579-1.506-46.073a4.186 4.186 0 0 1 4.179-4.193h.007a4.186 4.186 0 0 1 4.186 4.179c0 .36.073 36.073 1.411 44.821a4.19 4.19 0 0 1-4.143 4.819z" class="cls-8" data-name="Path 33215" transform="translate(-718.333 -493.474)"/>
                                    </g>
                                    <g id="Group_10028" data-name="Group 10028" transform="translate(8.974 2.282)">
                                        <path id="Path_33216" d="M732.085 509.555s6.1 4.561 9.144 5.274 1.631-6.97 1.631-6.97-7.289-6.258-10.045-6.437-2.547 6.167-.73 8.133z" class="cls-8" data-name="Path 33216" transform="translate(-730.729 -501.419)"/>
                                    </g>
                                </g>
                                <g id="Group_10038" data-name="Group 10038" transform="translate(0 14.701)">
                                    <g id="Group_10030" data-name="Group 10030">
                                        <path id="Path_33217" d="M610.881 370.624h-.064c-1-.026-2.8-.316-6.774-2.514a2.374 2.374 0 1 1 2.3-4.156c3.327 1.839 4.482 1.92 4.6 1.923a2.374 2.374 0 0 1-.062 4.748z" class="cls-12" data-name="Path 33217" transform="translate(-602.816 -363.656)"/>
                                    </g>
                                    <g id="Group_10031" data-name="Group 10031" transform="translate(7.162 2.097)">
                                        <path id="Path_33218" d="M655.67 383.876c-4.9 0-14.035-1.063-26.228-7.148a3.044 3.044 0 1 1 2.719-5.448c16.474 8.222 26.2 6.35 26.3 6.33a3.044 3.044 0 0 1 1.23 5.963 21.469 21.469 0 0 1-4.021.303z" class="cls-6" data-name="Path 33218" transform="translate(-627.757 -370.959)"/>
                                    </g>
                                    <g id="Group_10032" data-name="Group 10032" transform="translate(33.448 6.03)">
                                        <path id="Path_33219" d="M739.677 397.614l-.068 24.141a5.834 5.834 0 0 1-2.9 5.028 5.834 5.834 0 0 1-5.849.009l-8.651-5a5.833 5.833 0 0 1-2.917-5.069l.054-19.251c0-.339.067-.671.09-1.009a16.784 16.784 0 0 1 3.075-8.3 5.861 5.861 0 0 1 2.158-2.014c.512-.277.994-.529 1.382-.729a5.755 5.755 0 0 1 1.89-.592c1.816-.236 3.5-.326 4.512.259a21.277 21.277 0 0 1 3.091 2.621 5.732 5.732 0 0 1 .4.439 15.756 15.756 0 0 1 3.733 9.467z" class="cls-6" data-name="Path 33219" transform="translate(-719.289 -384.654)"/>
                                    </g>
                                    <g id="Group_10033" data-name="Group 10033" transform="translate(38.587 6.119)">
                                        <path id="Path_33220" d="M744.589 390.614a2.772 2.772 0 0 0 .084-4.772l-.036-.021a6.686 6.686 0 0 0-2.563-.842 2.72 2.72 0 0 0-1.542.285l-2.022 1.022a2.657 2.657 0 0 0-.559 4.165 6.913 6.913 0 0 0 1.431 1.122 3.192 3.192 0 0 0 3.348.107c.08-.038.157-.079.233-.124.498-.29 1.062-.617 1.626-.942z" class="cls-12" data-name="Path 33220" transform="translate(-737.186 -384.962)"/>
                                    </g>
                                    <g id="Group_10034" data-name="Group 10034" transform="translate(41.106 3.63)">
                                        <path id="Path_33221" d="M749.681 377.249a3.418 3.418 0 0 1-3.086 0 1.11 1.11 0 0 1-.637-.952v4.169a1.132 1.132 0 0 0 .636.9 3.418 3.418 0 0 0 3.086 0 1.078 1.078 0 0 0 .636-.9v-4.108a1.083 1.083 0 0 1-.635.891z" class="cls-13" data-name="Path 33221" transform="translate(-745.957 -376.296)"/>
                                    </g>
                                    <g id="Group_10035" data-name="Group 10035" transform="translate(45.462 3.63)">
                                        <path id="Path_33222" d="M761.125 376.3v.059-.059z" class="cls-12" data-name="Path 33222" transform="translate(-761.125 -376.296)"/>
                                    </g>
                                    <g id="Group_10036" data-name="Group 10036" transform="translate(48.063 42.576)">
                                        <path id="Path_33223" d="M772.557 521.688a2.374 2.374 0 0 1-1.756-3.972c2.557-2.812 2.9-3.918 2.934-4.034a2.374 2.374 0 0 1 4.59 1.218c-.4 1.522-1.716 3.488-4.01 6.012a2.368 2.368 0 0 1-1.758.776z" class="cls-12" data-name="Path 33223" transform="translate(-770.184 -511.915)"/>
                                    </g>
                                    <g id="Group_10037" data-name="Group 10037" transform="translate(47.544 11.389)">
                                        <path id="Path_33224" d="M775.911 438.78a3.045 3.045 0 0 1-2.566-4.679c3.647-5.736 6.639-12.224 6.4-13.885-.305-1.639-5.13-7.045-10.324-11.562a3.044 3.044 0 1 1 4-4.594c2.663 2.316 11.422 10.246 12.315 15.05.594 3.2-1.511 7.843-3.412 11.534a93.967 93.967 0 0 1-3.84 6.725 3.041 3.041 0 0 1-2.573 1.411z" class="cls-14" data-name="Path 33224" transform="translate(-768.377 -403.314)"/>
                                    </g>
                                </g>
                                <g id="Group_10041" data-name="Group 10041" transform="translate(35.633)">
                                    <g id="Group_10039" data-name="Group 10039" transform="translate(.092 .956)">
                                        <path id="Path_33225" d="M742.419 323.39v5.257a7.6 7.6 0 0 1-15.2 0v-5.257a7.57 7.57 0 0 1 .21-1.772c.033-.151.074-.3.122-.446a7.6 7.6 0 0 1 14.87 2.218z" class="cls-12" data-name="Path 33225" transform="translate(-727.218 -315.793)"/>
                                    </g>
                                    <g id="Group_10040" data-name="Group 10040">
                                        <path id="Path_33226" d="M750.808 323.647c-2.173-4.492-2.742-1.049-4.976-4.981a6.539 6.539 0 0 0-4.48-3.379 6.4 6.4 0 0 0-2.779-2.108 10.42 10.42 0 0 0-8.327.321l-1.908.921a2.52 2.52 0 0 0 .36 4.695l.087.021a7.2 7.2 0 0 0 1.37.179 2.633 2.633 0 0 0 .548 1.293 10.488 10.488 0 0 0 3.8 3.171c.289.932 1.175 1.6 1.857 3.286 1.228 3.039 1.072 1.966.443 6.217s2.77 9.7 8.762 10.137c7.368.538 10.992-3.357 11.707-8.043s-4.291-7.239-6.464-11.73z" class="cls-9" data-name="Path 33226" transform="translate(-726.898 -312.463)"/>
                                    </g>
                                </g>
                            </g>
                            <g id="Group_10065" data-name="Group 10065">
                                <g id="Group_10048" data-name="Group 10048" transform="translate(11.138 59.126)">
                                    <g id="Group_10043" data-name="Group 10043" transform="translate(0 67.157)">
                                        <path id="Path_33227" d="M310.46 680.154s7.4 3.392 7.541 9.2-15.282-3.049-15.768-5.256.994-6.459 2.449-5.943 5.778 1.999 5.778 1.999z" class="cls-15" data-name="Path 33227" transform="translate(-302.138 -678.108)"/>
                                    </g>
                                    <g id="Group_10044" data-name="Group 10044" transform="translate(.789 6.134)">
                                        <path id="Path_33228" d="M309.077 532.953a4.19 4.19 0 0 1-4.13-4.9c1.554-9.029 2.045-21.857 1.418-37.1-.478-11.626-1.444-20.62-1.454-20.71a4.186 4.186 0 0 1 8.323-.9c.163 1.5 3.945 37.006-.036 60.132a4.187 4.187 0 0 1-4.121 3.478z" class="cls-8" data-name="Path 33228" transform="translate(-304.886 -465.61)"/>
                                    </g>
                                    <g id="Group_10045" data-name="Group 10045" transform="translate(14.343 60.566)">
                                        <path id="Path_33229" d="M360.4 657.2s7.405 3.392 7.541 9.2-15.282-3.049-15.768-5.256.994-6.459 2.449-5.943 5.778 1.999 5.778 1.999z" class="cls-15" data-name="Path 33229" transform="translate(-352.083 -655.156)"/>
                                    </g>
                                    <g id="Group_10046" data-name="Group 10046" transform="translate(13.005)">
                                        <path id="Path_33230" d="M353.5 511.564a4.231 4.231 0 0 1-.583-.04 4.186 4.186 0 0 1-3.568-4.724c3.078-22.09-1.837-57.423-1.887-57.777a4.186 4.186 0 0 1 8.29-1.17c.211 1.494 5.127 36.861 1.889 60.1a4.187 4.187 0 0 1-4.141 3.611z" class="cls-8" data-name="Path 33230" transform="translate(-347.423 -444.251)"/>
                                    </g>
                                    <g id="Group_10047" data-name="Group 10047" transform="translate(4.561 11.252)">
                                        <path id="Path_33231" d="M329.752 484.342s-6.11-3.387-9.93 2.908-1.82 12.678 8.432 5.067 1.498-7.975 1.498-7.975z" class="cls-8" data-name="Path 33231" transform="translate(-318.02 -483.433)"/>
                                    </g>
                                </g>
                                <g id="Group_10057" data-name="Group 10057">
                                    <g id="Group_10049" data-name="Group 10049" transform="translate(18.799 8.747)">
                                        <path id="Path_33232" d="M331.854 301.8a3.045 3.045 0 0 1-.467-6.052 25.891 25.891 0 0 0 4.921-1.536 47.658 47.658 0 0 0 11.8-7.077c1.92-1.544 1.139-5.409-.528-12.677q-.214-.931-.438-1.916a3.044 3.044 0 1 1 5.939-1.344q.221.976.433 1.9a57.2 57.2 0 0 1 1.8 10.351c.113 3.749-.995 6.507-3.387 8.432-10.457 8.412-19.242 9.829-19.61 9.886a3.09 3.09 0 0 1-.463.033z" class="cls-14" data-name="Path 33232" transform="translate(-328.814 -268.821)"/>
                                    </g>
                                    <g id="Group_10050" data-name="Group 10050" transform="translate(12.058 31.003)">
                                        <path id="Path_33233" d="M305.34 360.834l.076 26.652a6.441 6.441 0 0 0 3.2 5.551 6.441 6.441 0 0 0 6.458.009l9.552-5.515a6.441 6.441 0 0 0 3.221-5.6l-.059-21.254c0-.374-.074-.741-.1-1.114-.248-3.595-1.786-6.214-3.664-9.181-.59-.932-6.945-8.342-14.08-.508-2.609 2.871-4.613 7.49-4.604 10.96z" class="cls-6" data-name="Path 33233" transform="translate(-305.34 -346.321)"/>
                                    </g>
                                    <g id="Group_10051" data-name="Group 10051" transform="translate(19.248 31.377)">
                                        <path id="Path_33234" d="M331.85 353.792c-1.792-1.472-2.094-4.1-.093-5.268a.426.426 0 0 0 .04-.023c3-2.24 6.763.513 6.763.513a2.984 2.984 0 0 1 .617 4.6c-1.615 1.859-5.357 1.795-7.327.178z" class="cls-12" data-name="Path 33234" transform="translate(-330.377 -347.623)"/>
                                    </g>
                                    <g id="Group_10052" data-name="Group 10052" transform="translate(21.298 28.558)">
                                        <path id="Path_33235" d="M338.22 338.86a3.773 3.773 0 0 0 3.407 0 1.226 1.226 0 0 0 .7-1.051v4.6a1.249 1.249 0 0 1-.7.992 3.773 3.773 0 0 1-3.407 0 1.189 1.189 0 0 1-.7-.993v-4.536a1.2 1.2 0 0 0 .7.988z" class="cls-13" data-name="Path 33235" transform="translate(-337.518 -337.808)"/>
                                    </g>
                                    <g id="Group_10053" data-name="Group 10053" transform="translate(21.298 28.558)">
                                        <path id="Path_33236" d="M337.523 337.809c0 .022-.005.044-.005.066v-.067z" class="cls-12" data-name="Path 33236" transform="translate(-337.518 -337.808)"/>
                                    </g>
                                    <g id="Group_10054" data-name="Group 10054" transform="translate(.114 75.703)">
                                        <path id="Path_33237" d="M266.423 513.938a2.622 2.622 0 0 1-2.616-2.492c-.186-3.761.075-6.357.8-7.938a2.621 2.621 0 1 1 4.768 2.181c-.055.121-.536 1.307-.329 5.5a2.622 2.622 0 0 1-2.489 2.748c-.046-.001-.09.001-.134.001z" class="cls-12" data-name="Path 33237" transform="translate(-263.749 -501.976)"/>
                                    </g>
                                    <g id="Group_10055" data-name="Group 10055" transform="translate(0 37.916)">
                                        <path id="Path_33238" d="M266.4 410.855c-.061 0-.122 0-.183-.006a3.044 3.044 0 0 1-2.858-3.22c1.476-24.787 13.7-35.993 14.218-36.457a3.044 3.044 0 0 1 4.069 4.529c-.167.154-10.9 10.233-12.21 32.29a3.045 3.045 0 0 1-3.036 2.864z" class="cls-6" data-name="Path 33238" transform="translate(-263.352 -370.396)"/>
                                    </g>
                                    <g id="Group_10056" data-name="Group 10056" transform="translate(36.591)">
                                        <path id="Path_33239" d="M393.77 250.337a2.624 2.624 0 0 1-2.513-3.371c.038-.128.349-1.368-.439-5.49a2.621 2.621 0 0 1 5.149-.985c.942 4.927.631 6.909.314 7.972a2.623 2.623 0 0 1-2.511 1.874z" class="cls-12" data-name="Path 33239" transform="translate(-390.771 -238.362)"/>
                                    </g>
                                </g>
                                <g id="Group_10064" data-name="Group 10064" transform="translate(14.217 7.504)">
                                    <g id="Group_10058" data-name="Group 10058" transform="translate(1.054 1.872)">
                                        <path id="Path_33240" d="M316.529 279.4v5.8a8.391 8.391 0 1 0 16.783 0v-5.8a8.364 8.364 0 0 0-.232-1.956 5.177 5.177 0 0 0-.134-.492 8.391 8.391 0 0 0-16.417 2.449z" class="cls-12" data-name="Path 33240" transform="translate(-316.529 -271.01)"/>
                                    </g>
                                    <g id="Group_10062" data-name="Group 10062" transform="translate(0 13.163)">
                                        <g id="Group_10059" data-name="Group 10059">
                                            <path id="Path_33241" d="M314.4 310.538a1.369 1.369 0 0 1 .716-.209l1.826 1.061a1.368 1.368 0 0 0-.716.209 3.4 3.4 0 0 0-1.538 2.664 1.083 1.083 0 0 0 .453.992l-1.826-1.061a1.083 1.083 0 0 1-.453-.992 3.4 3.4 0 0 1 1.538-2.664z" class="cls-12" data-name="Path 33241" transform="translate(-312.859 -310.328)"/>
                                        </g>
                                        <g id="Group_10060" data-name="Group 10060" transform="translate(1.826 1.061)">
                                            <path id="Path_33242" d="M320.757 314.234a3.4 3.4 0 0 0-1.538 2.664c0 .979.7 1.376 1.548.887a2.7 2.7 0 0 0 .715-.622l-.009-3.137a1.368 1.368 0 0 0-.716.208z" class="cls-12" data-name="Path 33242" transform="translate(-319.219 -314.024)"/>
                                        </g>
                                        <g id="Group_10061" data-name="Group 10061" transform="translate(2.547 2.051)">
                                            <path id="Path_33243" d="M322.553 317.583c.287-.166.566-.155.716.061v.955a1.815 1.815 0 0 1-.355.581 1.459 1.459 0 0 1-.36.3c-.307.177-.6.151-.746-.108a1.5 1.5 0 0 1 .385-1.493 1.456 1.456 0 0 1 .356-.3" class="cls-13" data-name="Path 33243" transform="translate(-321.73 -317.469)"/>
                                        </g>
                                    </g>
                                    <g id="Group_10063" data-name="Group 10063" transform="translate(.254)">
                                        <path id="Path_33244" d="M327.854 264.94c-2.975-.911-4.732-.252-5.646.389a11.491 11.491 0 0 0-3.67.769 7.082 7.082 0 0 0-4.461 5.826l-.316 2.892a3.143 3.143 0 0 0 2.1 3.313l.028.009a2.606 2.606 0 0 1 1.662 2.094c.144.833.583 1.51 1.511 1.325 1.484-.3.562-1.423 1.376-2.434.385-.478.175-1.13.137-1.927.646-.07 1.305-.783 1.994-2.266a4.739 4.739 0 0 0 1.924-.412 4.282 4.282 0 0 1 2.615-.823 5.2 5.2 0 0 0 2.286-1.034 3 3 0 0 0 2.438-2.727c1.809-1.863.857-3.514-3.978-4.994z" class="cls-9" data-name="Path 33244" transform="translate(-313.743 -264.492)"/>
                                    </g>
                                </g>
                            </g>
                        </g>
                        <g id="Group_10103" data-name="Group 10103" transform="translate(19.173 84.87)">
                            <g id="Group_10091" data-name="Group 10091">
                                <g id="Group_10071" data-name="Group 10071" transform="translate(87.696 105.023)">
                                    <g id="Group_10067" data-name="Group 10067" transform="translate(0 47.683)">
                                        <path id="Path_33245" d="M523.976 941.807a3.505 3.505 0 0 1 3.172 0 .967.967 0 0 1 0 1.831 3.505 3.505 0 0 1-3.172 0 .967.967 0 0 1 0-1.831z" class="cls-16" data-name="Path 33245" transform="translate(-523.32 -941.428)"/>
                                    </g>
                                    <g id="Group_10068" data-name="Group 10068" transform="translate(0 44.241)">
                                        <path id="Rectangle_11903" d="M0 0h4.486v4.822H0z" class="cls-16" data-name="Rectangle 11903"/>
                                    </g>
                                    <g id="Group_10069" data-name="Group 10069">
                                        <path id="Rectangle_11904" d="M0 0h4.486v44.304H0z" class="cls-9" data-name="Rectangle 11904"/>
                                    </g>
                                    <g id="Group_10070" data-name="Group 10070" transform="translate(0 42.946)">
                                        <path id="Path_33246" d="M523.976 925.313a3.505 3.505 0 0 1 3.172 0 .967.967 0 0 1 0 1.831 3.505 3.505 0 0 1-3.172 0 .967.967 0 0 1 0-1.831z" class="cls-9" data-name="Path 33246" transform="translate(-523.32 -924.933)"/>
                                    </g>
                                </g>
                                <g id="Group_10076" data-name="Group 10076" transform="translate(173.953 54.751)">
                                    <g id="Group_10072" data-name="Group 10072" transform="translate(0 47.683)">
                                        <path id="Path_33247" d="M824.344 766.748a3.505 3.505 0 0 1 3.172 0 .967.967 0 0 1 0 1.831 3.505 3.505 0 0 1-3.172 0 .967.967 0 0 1 0-1.831z" class="cls-16" data-name="Path 33247" transform="translate(-823.688 -766.368)"/>
                                    </g>
                                    <g id="Group_10073" data-name="Group 10073" transform="translate(0 44.241)">
                                        <path id="Rectangle_11905" d="M0 0h4.486v4.822H0z" class="cls-16" data-name="Rectangle 11905"/>
                                    </g>
                                    <g id="Group_10074" data-name="Group 10074">
                                        <path id="Rectangle_11906" d="M0 0h4.486v44.304H0z" class="cls-9" data-name="Rectangle 11906"/>
                                    </g>
                                    <g id="Group_10075" data-name="Group 10075" transform="translate(0 42.946)">
                                        <ellipse id="Ellipse_1785" cx="2.243" cy="1.295" class="cls-9" data-name="Ellipse 1785" rx="2.243" ry="1.295"/>
                                    </g>
                                </g>
                                <g id="Group_10081" data-name="Group 10081" transform="translate(1.439 54.751)">
                                    <g id="Group_10077" data-name="Group 10077" transform="translate(0 47.683)">
                                        <path id="Path_33248" d="M223.609 766.748a3.505 3.505 0 0 1 3.172 0 .967.967 0 0 1 0 1.831 3.505 3.505 0 0 1-3.172 0 .967.967 0 0 1 0-1.831z" class="cls-16" data-name="Path 33248" transform="translate(-222.952 -766.368)"/>
                                    </g>
                                    <g id="Group_10078" data-name="Group 10078" transform="translate(0 44.241)">
                                        <path id="Rectangle_11907" d="M0 0h4.486v4.822H0z" class="cls-16" data-name="Rectangle 11907"/>
                                    </g>
                                    <g id="Group_10079" data-name="Group 10079">
                                        <path id="Rectangle_11908" d="M0 0h4.486v44.304H0z" class="cls-9" data-name="Rectangle 11908"/>
                                    </g>
                                    <g id="Group_10080" data-name="Group 10080" transform="translate(0 42.946)">
                                        <path id="Path_33249" d="M223.609 750.254a3.505 3.505 0 0 1 3.172 0 .966.966 0 0 1 0 1.831 3.505 3.505 0 0 1-3.172 0 .966.966 0 0 1 0-1.831z" class="cls-9" data-name="Path 33249" transform="translate(-222.952 -749.874)"/>
                                    </g>
                                </g>
                                <g id="Group_10090" data-name="Group 10090">
                                    <g id="Group_10082" data-name="Group 10082" transform="translate(44.833)">
                                        <path id="Path_33250" d="M463.992 435.718l-16.77 9.746a14.476 14.476 0 0 1 6.345 1.73c4.062 2.345 4.088 6.149.048 8.5a16.162 16.162 0 0 1-14.665 0 5.585 5.585 0 0 1-3.011-3.667l-16.766 9.743-17.083-9.87a14.6 14.6 0 0 0 6.751-1.742c4.04-2.348 4.015-6.152-.048-8.5a16.156 16.156 0 0 0-14.665 0c-1.871 1.087-2.859 2.49-2.99 3.914l-17.078-9.86 44.82-26.046z" class="cls-13" data-name="Path 33250" transform="translate(-374.06 -409.672)"/>
                                    </g>
                                    <g id="Group_10083" data-name="Group 10083" transform="translate(135.045 52.092)">
                                        <path id="Path_33251" d="M733.032 591.067l-.013 4.694-44.819 26.047.013-4.694z" class="cls-9" data-name="Path 33251" transform="translate(-688.199 -591.067)"/>
                                    </g>
                                    <g id="Group_10084" data-name="Group 10084" transform="translate(89.945 26.046)">
                                        <path id="Path_33252" d="M621.085 526.416l-44.82 26.047-17.379-10.034c.021 1.546-.978 3.093-3.009 4.273a16.162 16.162 0 0 1-14.665 0c-4.062-2.345-4.084-6.147-.048-8.492a14.882 14.882 0 0 1 7.363-1.759l-17.375-10.031 16.766-9.743a5.585 5.585 0 0 0 3.011 3.667 16.162 16.162 0 0 0 14.665 0c4.04-2.348 4.014-6.152-.048-8.5a14.475 14.475 0 0 0-6.345-1.73l16.77-9.746z" class="cls-13" data-name="Path 33252" transform="translate(-531.153 -500.37)"/>
                                    </g>
                                    <g id="Group_10085" data-name="Group 10085" transform="translate(.013 26.046)">
                                        <path id="Path_33253" d="M297.541 506.315c4.062 2.346 4.088 6.15.048 8.5a14.6 14.6 0 0 1-6.751 1.742l17.083 9.863-17.455 10.144c.1-1.618-.908-3.252-3.045-4.486a16.155 16.155 0 0 0-14.661 0c-4.04 2.348-4.019 6.149.044 8.495a15.19 15.19 0 0 0 7.754 1.749L263.1 552.463l-45.113-26.046 44.82-26.046 17.078 9.86c.131-1.424 1.119-2.827 2.99-3.914a16.156 16.156 0 0 1 14.666-.002z" class="cls-13" data-name="Path 33253" transform="translate(-217.988 -500.371)"/>
                                    </g>
                                    <g id="Group_10086" data-name="Group 10086" transform="translate(0 52.093)">
                                        <path id="Path_33254" d="M263.068 617.116l-.013 4.694-45.113-26.046.013-4.694z" class="cls-9" data-name="Path 33254" transform="translate(-217.942 -591.07)"/>
                                    </g>
                                    <g id="Group_10087" data-name="Group 10087" transform="translate(45.113 78.138)">
                                        <path id="Path_33255" d="M420.161 707.814l-.013 4.694-45.113-26.046.013-4.694z" class="cls-9" data-name="Path 33255" transform="translate(-375.035 -681.768)"/>
                                    </g>
                                    <g id="Group_10088" data-name="Group 10088" transform="translate(90.225 78.138)">
                                        <path id="Path_33256" d="M576.96 681.767l-.013 4.694-44.819 26.046.013-4.694z" class="cls-9" data-name="Path 33256" transform="translate(-532.128 -681.767)"/>
                                    </g>
                                    <g id="Group_10089" data-name="Group 10089" transform="translate(45.126 52.092)">
                                        <path id="Path_33257" d="M465.013 617.115l-44.82 26.046-45.113-26.046 17.455-10.144a15.19 15.19 0 0 1-7.754-1.749c-4.062-2.346-4.084-6.147-.044-8.495a16.154 16.154 0 0 1 14.661 0c2.137 1.234 3.146 2.868 3.045 4.486l17.457-10.144 17.375 10.031a14.881 14.881 0 0 0-7.363 1.759c-4.036 2.346-4.015 6.147.048 8.492a16.162 16.162 0 0 0 14.665 0c2.031-1.18 3.03-2.726 3.009-4.273z" class="cls-13" data-name="Path 33257" transform="translate(-375.081 -591.069)"/>
                                    </g>
                                </g>
                            </g>
                            <g id="Group_10098" data-name="Group 10098" transform="translate(78.187 6.075)">
                                <g id="Group_10097" data-name="Group 10097">
                                    <g id="Group_10092" data-name="Group 10092" transform="translate(0 2.91)">
                                        <path id="Path_33258" d="M490.209 440.961v7.077a2.5 2.5 0 0 0 1.476 2.058 7.877 7.877 0 0 0 7.128 0 2.5 2.5 0 0 0 1.476-2.058v-7.077z" class="cls-7" data-name="Path 33258" transform="translate(-490.209 -440.961)"/>
                                    </g>
                                    <g id="Group_10093" data-name="Group 10093">
                                        <path id="Path_33259" d="M491.686 431.68a7.878 7.878 0 0 1 7.128 0c1.968 1.136 1.968 2.979 0 4.115a7.878 7.878 0 0 1-7.128 0c-1.969-1.136-1.969-2.978 0-4.115z" class="cls-7" data-name="Path 33259" transform="translate(-490.209 -430.828)"/>
                                    </g>
                                    <g id="Group_10094" data-name="Group 10094" transform="translate(.702 .702)">
                                        <path id="Path_33260" d="M501.33 435.481a1.884 1.884 0 0 1-1.126 1.449 6.54 6.54 0 0 1-3.213.757c-.249 0-.5-.01-.736-.033a6.121 6.121 0 0 1-2.477-.724 1.5 1.5 0 0 1 0-2.9 6.55 6.55 0 0 1 3.213-.759 7.315 7.315 0 0 1 2.194.32 5 5 0 0 1 1.019.439 1.881 1.881 0 0 1 1.126 1.451z" class="cls-16" data-name="Path 33260" transform="translate(-492.655 -433.273)"/>
                                    </g>
                                    <g id="Group_10095" data-name="Group 10095" transform="translate(2.166 .988)">
                                        <path id="Path_33261" d="M504.963 436.192a1.884 1.884 0 0 1-1.126 1.449 6.54 6.54 0 0 1-3.213.757c-.249 0-.5-.01-.736-.033a5.082 5.082 0 0 1-1.012-.437 1.5 1.5 0 0 1 0-2.9 6.525 6.525 0 0 1 3.213-.759c.248 0 .49.011.729.034a4.994 4.994 0 0 1 1.019.439 1.881 1.881 0 0 1 1.126 1.45z" class="cls-9" data-name="Path 33261" transform="translate(-497.751 -434.27)"/>
                                    </g>
                                    <g id="Group_10096" data-name="Group 10096" transform="translate(8.384 4.687)">
                                        <path id="Path_33262" d="M519.842 452.921a.439.439 0 0 1-.134-.858c2.307-.738 3.043-1.993 2.963-2.922a1.145 1.145 0 0 0-.869-1.1c-1.172-.162-1.518 1.26-1.532 1.321a.439.439 0 0 1-.855-.2 2.371 2.371 0 0 1 2.508-1.99 2 2 0 0 1 1.624 1.893c.166 1.931-1.735 3.247-3.57 3.834a.443.443 0 0 1-.135.022z" class="cls-7" data-name="Path 33262" transform="translate(-519.403 -447.15)"/>
                                    </g>
                                </g>
                            </g>
                            <path id="Path_33263" d="M388.759 487.884l13.3-7.085 21.251 5.473-13.902 7.228z" class="cls-17" data-name="Path 33263" transform="translate(-339.705 -460.374)"/>
                            <g id="Group_10099" data-name="Group 10099" transform="translate(67.457 70.967)">
                                <path id="Path_33264" d="M478.635 663.942l-.175.015a.683.683 0 0 0-.093-.068l-10.026-5.789a1.724 1.724 0 0 0-1.55.064L453.222 666a1.02 1.02 0 0 0-.192.144l-.186.016v.36h.005a.461.461 0 0 0 .263.375l10.026 5.789a1.723 1.723 0 0 0 1.55-.064l13.569-7.834a.636.636 0 0 0 .375-.5z" class="cls-18" data-name="Path 33264" transform="translate(-452.843 -657.615)"/>
                                <path id="Path_33265" d="M463.137 671.531l-10.026-5.789c-.4-.229-.347-.63.111-.895l13.569-7.834a1.724 1.724 0 0 1 1.55-.064l10.026 5.789c.4.229.347.63-.111.895l-13.569 7.834a1.721 1.721 0 0 1-1.55.064z" class="cls-17" data-name="Path 33265" transform="translate(-452.843 -656.794)"/>
                                <path id="Path_33266" d="M467.6 672.374l-9.919-5.727 13.444-7.762 9.919 5.727z" class="cls-19" data-name="Path 33266" transform="translate(-456.291 -658.285)"/>
                            </g>
                            <g id="Group_10102" data-name="Group 10102" transform="translate(89.193 37.013)">
                                <path id="Path_33267" d="M575.73 600.266l-10.93-6.31-18.47 10.664-1.423.211v.37a.4.4 0 0 0 .2.357l11.139 6.431a1.467 1.467 0 0 0 1.32-.055l18.478-10.668c.238-.138.346-.318.317-.482v-.611z" class="cls-20" data-name="Path 33267" transform="translate(-540.204 -578.047)"/>
                                <g id="Group_10100" data-name="Group 10100">
                                    <path id="Path_33268" d="M553.127 553.856l-19.894 11.485-4.655-14.705a1.024 1.024 0 0 1 .368-1.152l18.793-10.85c.339-.2.723 0 .858.445z" class="cls-21" data-name="Path 33268" transform="translate(-528.531 -538.559)"/>
                                    <path id="Path_33269" d="M554.506 557.184l-18.364 10.6-4.2-13 18.547-10.708z" class="cls-22" data-name="Path 33269" transform="translate(-530.962 -542.493)"/>
                                </g>
                                <g id="Group_10101" data-name="Group 10101" transform="translate(4.702 15.298)">
                                    <path id="Path_33270" d="M576.045 599.139l-18.478 10.669a1.468 1.468 0 0 1-1.32.055l-11.341-6.547 19.894-11.487 11.341 6.547c.338.196.295.537-.096.763z" class="cls-23" data-name="Path 33270" transform="translate(-544.906 -591.829)"/>
                                    <path id="Path_33271" d="M576.045 599.139l-18.478 10.669a1.468 1.468 0 0 1-1.32.055l-11.341-6.547 19.894-11.487 11.341 6.547c.338.196.295.537-.096.763z" class="cls-21" data-name="Path 33271" transform="translate(-544.906 -591.829)"/>
                                    <path id="Path_33272" d="M575.263 598.966l-17.995 10.389-5.368-3.1 18-10.389z" class="cls-24" data-name="Path 33272" transform="translate(-549.891 -594.707)"/>
                                    <path id="Path_33273" d="M606.4 624.857l-4.287 2.475a.913.913 0 0 1-.822.034l-2.056-1.187c-.211-.121-.184-.334.059-.474l4.287-2.475a.914.914 0 0 1 .822-.034l2.056 1.187c.212.117.185.334-.059.474z" class="cls-20" data-name="Path 33273" transform="translate(-583.533 -614.13)"/>
                                </g>
                            </g>
                        </g>
                        <g id="Group_10111" data-name="Group 10111" transform="translate(0 172.175)">
                            <g id="Group_10107" data-name="Group 10107" transform="translate(10.363 16.252)">
                                <g id="Group_10104" data-name="Group 10104" transform="translate(0 7.229)">
                                    <path id="Path_33274" d="M212.306 795.453h-24.95c-.863 2.639 4.621 15.844 4.621 15.844a4.544 4.544 0 0 0 2.225 2.465 12.541 12.541 0 0 0 11.348 0 4.2 4.2 0 0 0 2.326-2.932c.961-2.367 5.196-13.03 4.43-15.377z" class="cls-25" data-name="Path 33274" transform="translate(-187.263 -795.453)"/>
                                </g>
                                <g id="Group_10105" data-name="Group 10105" transform="translate(.092)">
                                    <path id="Path_33275" d="M191.251 772.4c4.89-2.823 12.818-2.823 17.708 0s4.89 7.4 0 10.223-12.818 2.823-17.708 0-4.889-7.403 0-10.223z" class="cls-26" data-name="Path 33275" transform="translate(-187.584 -770.28)"/>
                                </g>
                                <g id="Group_10106" data-name="Group 10106" transform="translate(1.655 1.563)">
                                    <path id="Path_33276" d="M203.985 787.054a16.428 16.428 0 0 1-8.073-1.908c-1.861-1.074-2.886-2.409-2.886-3.758s1.025-2.684 2.886-3.758a18.031 18.031 0 0 1 16.145 0c1.861 1.075 2.886 2.409 2.886 3.758s-1.025 2.684-2.886 3.759a16.428 16.428 0 0 1-8.072 1.907z" class="cls-9" data-name="Path 33276" transform="translate(-193.026 -775.721)"/>
                                </g>
                            </g>
                            <g id="Group_10108" data-name="Group 10108" transform="translate(0 10.796)">
                                <path id="Path_33277" d="M172.889 765.471s-4.378-1.165-6.4-3.1c-1.69-1.625-4.247-6.682-7.5-6.5s-8.211-.7-7.787-4.507c0 0 1.557 2.933 6.512.695s8.2.9 9.768 3.207a65.048 65.048 0 0 0 6.426 7.8z" class="cls-6" data-name="Path 33277" transform="translate(-151.178 -751.283)"/>
                            </g>
                            <g id="Group_10109" data-name="Group 10109" transform="translate(22.976 10.796)">
                                <path id="Path_33278" d="M232.208 765.471s4.378-1.165 6.4-3.1c1.691-1.625 4.247-6.682 7.5-6.5s8.211-.7 7.787-4.507c0 0-1.557 2.933-6.513.695s-8.2.9-9.768 3.207a65.038 65.038 0 0 1-6.426 7.8z" class="cls-14" data-name="Path 33278" transform="translate(-231.186 -751.283)"/>
                            </g>
                            <g id="Group_10110" data-name="Group 10110" transform="translate(18.421)">
                                <path id="Path_33279" d="M216.084 735.613c-.219-.569-2.194-8.052 1.266-11.4 3.6-3.486 5.579-5.7 6.731-8.155 1.223-2.6 5.439-2.365 5.439-2.365s-2.389 1.948-2.515 3.424c-.134 1.564.68 5.1-2.312 8.341s1.318 9.161-.993 11.747-5.883 2.895-7.616-1.592z" class="cls-14" data-name="Path 33279" transform="translate(-215.325 -713.688)"/>
                            </g>
                        </g>
                        <g id="Group_10168" data-name="Group 10168" transform="translate(38.884 120.145)">
                            <g id="Group_10142" data-name="Group 10142">
                                <g id="Group_10112" data-name="Group 10112" transform="translate(22.874 90.056)">
                                    <path id="Path_33280" d="M368.378 849.4s-2.758 6.121-2.018 7.938 3.5 3.632 5.583 2.287 8.858-6.314 9.2-11.363c0 0-.864-3.781-6.11-1.321s-6.655 2.459-6.655 2.459z" class="cls-11" data-name="Path 33280" transform="translate(-366.234 -846.104)"/>
                                </g>
                                <g id="Group_10114" data-name="Group 10114" transform="translate(14.134 56.128)">
                                    <g id="Group_10113" data-name="Group 10113">
                                        <path id="Path_33281" d="M350.25 769.105a3.928 3.928 0 0 1-3.745-5.105c3.772-11.953 6.041-24.481 5.18-28.135-.98.266-2.958 1.531-6.919 5.776-1.885 2.02-4.022 4.309-6.952 2.621-1.077-.621-2.727-2.176-1.681-5.617a3.925 3.925 0 0 1 3.259-2.753c3.494-3.736 9.1-9.449 15.245-7.556a6.342 6.342 0 0 1 3.779 3.257c3.8 7.247-2.426 28.446-4.424 34.771a3.928 3.928 0 0 1-3.742 2.741z" class="cls-9" data-name="Path 33281" transform="translate(-335.799 -727.959)"/>
                                    </g>
                                </g>
                                <g id="Group_10124" data-name="Group 10124" transform="translate(.321 61.672)">
                                    <g id="Group_10117" data-name="Group 10117" transform="translate(5.357 38.428)">
                                        <g id="Group_10115" data-name="Group 10115" transform="translate(0 6.865)">
                                            <path id="Path_33282" d="M330.179 905.052l-.007 2.571c-.005 1.754-1.157 3.5-3.46 4.843-4.637 2.695-12.178 2.693-16.842 0-2.348-1.356-3.521-3.135-3.516-4.912l.007-2.57c-.005 1.776 1.168 3.556 3.516 4.912 4.664 2.693 12.205 2.694 16.842 0 2.303-1.339 3.456-3.09 3.46-4.844z" class="cls-16" data-name="Path 33282" transform="translate(-306.354 -904.984)"/>
                                        </g>
                                        <g id="Group_10116" data-name="Group 10116" transform="translate(.007)">
                                            <path id="Path_33283" d="M326.682 883.1c4.663 2.692 4.692 7.061.055 9.755s-12.178 2.693-16.842 0-4.692-7.061-.055-9.755 12.175-2.694 16.842 0z" class="cls-9" data-name="Path 33283" transform="translate(-306.379 -881.08)"/>
                                        </g>
                                    </g>
                                    <g id="Group_10120" data-name="Group 10120" transform="translate(15.51 10.039)">
                                        <g id="Group_10118" data-name="Group 10118">
                                            <path id="Rectangle_11909" d="M0 0h3.531v34.878H0z" class="cls-25" data-name="Rectangle 11909"/>
                                        </g>
                                        <g id="Group_10119" data-name="Group 10119" transform="translate(0 33.809)">
                                            <path id="Path_33284" d="M342.224 900.249a2.76 2.76 0 0 1 2.5 0 .761.761 0 0 1 0 1.442 2.759 2.759 0 0 1-2.5 0 .761.761 0 0 1 0-1.442z" class="cls-25" data-name="Path 33284" transform="translate(-341.707 -899.95)"/>
                                        </g>
                                    </g>
                                    <g id="Group_10123" data-name="Group 10123">
                                        <g id="Group_10121" data-name="Group 10121" transform="translate(.016 9.99)">
                                            <path id="Path_33285" d="M322.263 782.149l-.01 3.723c-.007 2.54-1.676 5.076-5.011 7.015-6.716 3.9-17.638 3.9-24.392 0-3.4-1.964-5.1-4.541-5.093-7.114l.011-3.722c-.007 2.573 1.691 5.15 5.093 7.114 6.755 3.9 17.677 3.9 24.392 0 3.334-1.939 5.003-4.475 5.01-7.016z" class="cls-16" data-name="Path 33285" transform="translate(-287.756 -782.051)"/>
                                        </g>
                                        <g id="Group_10122" data-name="Group 10122">
                                            <ellipse id="Ellipse_1786" cx="9.99" cy="17.248" class="cls-9" data-name="Ellipse 1786" rx="9.99" ry="17.248" transform="rotate(-89.83 10.02 9.99)"/>
                                        </g>
                                    </g>
                                </g>
                                <g id="Group_10125" data-name="Group 10125" transform="translate(5.175 60.253)">
                                    <path id="Path_33286" d="M304.6 742.322s-.108 5.342 1.486 8.725a7.844 7.844 0 0 0 9.543 3.832c3.007-1.3 4.968-4.912 2.353-8.022s-13.382-4.535-13.382-4.535z" class="cls-8" data-name="Path 33286" transform="translate(-304.602 -742.322)"/>
                                </g>
                                <g id="Group_10126" data-name="Group 10126" transform="translate(35.855 95.316)">
                                    <path id="Path_33287" d="M417.309 864.42s-4.723 1.8-5.287 3.415-1.335 3.492 1.029 4.967 11.788 7.414 14.4 6.3 1.42-6.1-6.04-11.918z" class="cls-11" data-name="Path 33287" transform="translate(-411.437 -864.42)"/>
                                </g>
                                <g id="Group_10128" data-name="Group 10128" transform="translate(11.72 58.732)">
                                    <g id="Group_10127" data-name="Group 10127">
                                        <path id="Path_33288" d="M357.9 778.9a3.929 3.929 0 0 1-3.818-4.853c3.082-12.7 4.23-26.324 2.408-28.574a1.542 1.542 0 0 0-1.216-.6h-.037c-1.787 0-4.593 2-5.937 3.365-4.1 4.248-8.327 6.173-12.532 5.72a12.529 12.529 0 0 1-8.8-5.664 3.926 3.926 0 0 1 6.667-4.146c.068.1.067-.341 1.829-.174 1.609.162 3.746-1.052 6.006-3.393.583-.6 6.953-3.561 12.77-3.561h.122a9.38 9.38 0 0 1 6.9 3.126c5.815 6.283 1.553 27.094-.55 35.75a3.926 3.926 0 0 1-3.812 3.004z" class="cls-8" data-name="Path 33288" transform="translate(-327.393 -737.027)"/>
                                    </g>
                                </g>
                                <g id="Group_10135" data-name="Group 10135" transform="translate(4.49 20.09)">
                                    <g id="Group_10129" data-name="Group 10129" transform="translate(0 4.466)">
                                        <path id="Path_33289" d="M324.515 631.678l-.075 26.4c.075 3.673.575 3.925-1.967 5.358 0 0-1.383.787-4.916.5-2.977-.242-12.151-5.813-12.151-5.813a6.381 6.381 0 0 1-3.19-5.544l.059-21.053c0-.371.073-.734.1-1.1.245-3.561 1.756-9.081 5.724-11.275 6.207-3.434 12.176 2.036 12.336 2.185 3.613 3.384 4.089 6.904 4.08 10.342z" class="cls-6" data-name="Path 33289" transform="translate(-302.217 -618.017)"/>
                                    </g>
                                    <g id="Group_10134" data-name="Group 10134" transform="translate(8.375)">
                                        <g id="Group_10130" data-name="Group 10130">
                                            <path id="Path_33290" d="M335.455 602.886a3.864 3.864 0 0 0-3.378-.063 1.075 1.075 0 0 0 0 2.012 3.738 3.738 0 0 0 3.376 0 1.054 1.054 0 0 0 .002-1.949z" class="cls-27" data-name="Path 33290" transform="translate(-331.382 -602.465)"/>
                                        </g>
                                        <g id="Group_10133" data-name="Group 10133" transform="translate(0 1.329)">
                                            <g id="Group_10131" data-name="Group 10131">
                                                <path id="Path_33291" d="M335.456 608.133a3.739 3.739 0 0 1-3.375 0 1.213 1.213 0 0 1-.7-1.041v4.559a1.238 1.238 0 0 0 .7.983 3.739 3.739 0 0 0 3.375 0 1.179 1.179 0 0 0 .695-.983v-4.493a1.185 1.185 0 0 1-.695.975z" class="cls-12" data-name="Path 33291" transform="translate(-331.382 -607.091)"/>
                                            </g>
                                            <g id="Group_10132" data-name="Group 10132" transform="translate(4.764)">
                                                <path id="Path_33292" d="M347.97 607.092c0 .022.005.044.005.065v-.066z" class="cls-12" data-name="Path 33292" transform="translate(-347.97 -607.091)"/>
                                            </g>
                                        </g>
                                    </g>
                                </g>
                                <g id="Group_10137" data-name="Group 10137" transform="translate(6.98 2.416)">
                                    <g id="Group_10136" data-name="Group 10136">
                                        <path id="Path_33293" d="M327.513 549.229v5.75a8.312 8.312 0 1 1-16.625 0v-5.75a8.29 8.29 0 0 1 .23-1.938 4.87 4.87 0 0 1 .133-.487 8.312 8.312 0 0 1 16.262 2.425z" class="cls-12" data-name="Path 33293" transform="translate(-310.888 -540.921)"/>
                                    </g>
                                </g>
                                <g id="Group_10140" data-name="Group 10140" transform="translate(18.941 31.32)">
                                    <g id="Group_10138" data-name="Group 10138" transform="translate(36.304 16.199)">
                                        <path id="Path_33294" d="M481.818 704.024h-.278a2.6 2.6 0 1 1 .028-5.193c4.152.019 5.309-.505 5.426-.566a2.6 2.6 0 1 1 2.366 4.623c-.553.283-2.22 1.136-7.542 1.136z" class="cls-12" data-name="Path 33294" transform="translate(-478.958 -697.978)"/>
                                    </g>
                                    <g id="Group_10139" data-name="Group 10139">
                                        <path id="Path_33295" d="M388.9 664.628c-15.384 0-24.334-7.62-30.9-13.207-1.413-1.2-2.747-2.338-4.014-3.292a3.646 3.646 0 0 1 4.386-5.824c1.441 1.086 2.856 2.29 4.354 3.564 6.321 5.38 13.474 11.468 26.165 11.468h.655a3.646 3.646 0 0 1 .053 7.291c-.231-.002-.466 0-.699 0z" class="cls-14" data-name="Path 33295" transform="translate(-352.538 -641.57)"/>
                                    </g>
                                </g>
                                <g id="Group_10141" data-name="Group 10141">
                                    <path id="Path_33296" d="M309.155 539.921c3.69-1.156 2.019-4.426-1.66-6.709-2.374-1.473-3.767-.333-4.459.662a14.5 14.5 0 0 0-2.674-.117c-4.7.249-4.3 3.1-4.3 3.1-.8.749-2.4 2.147-3 6.193-.545 3.679.367 7.942.713 10.244a5.917 5.917 0 0 1-.882 2.809 12.292 12.292 0 0 0-1.829 9.586 1.66 1.66 0 0 1 .029.3 1.88 1.88 0 0 1-.988 1.609 6.385 6.385 0 0 0-3.484 4.818c-.381 4.059 1.586 7.745 6.279 7.646h.19a4.821 4.821 0 0 1 3.251 1.241 2.46 2.46 0 0 0 .492.327c3.876 1.953 7.207-.332 7.339-3.323a8.126 8.126 0 0 0 4.959-6.153c1.96-9.719-3.592-9.593-3.592-9.593s.043-5.3-.717-7.581a3.9 3.9 0 0 1-.119-2.18l.048-.192s-1.548.89-1.848-1.109.3-2.3 1.3-1.848 1.834-.874 1.834-.874-.906-3.042.643-4.341c1.02-.858 1.949-3.074 2.475-4.515z" class="cls-9" data-name="Path 33296" transform="translate(-286.583 -532.507)"/>
                                </g>
                            </g>
                            <g id="Group_10167" data-name="Group 10167" transform="translate(75.63 5.527)">
                                <g id="Group_10143" data-name="Group 10143" transform="translate(9.259 96.082)">
                                    <path id="Path_33297" d="M593.039 886.335s6.658-.2 6.515 2.269.076 4.9-7.2 7.532-10.723.173-10.1-1.71c.872-2.608 7.477-5.68 10.785-8.091z" class="cls-11" data-name="Path 33297" transform="translate(-582.186 -886.331)"/>
                                </g>
                                <g id="Group_10144" data-name="Group 10144" transform="translate(27.604 88.622)">
                                    <path id="Path_33298" d="M650.154 862.943s5.267-4.079 6.6-1.995 2.943 3.921-1.4 10.326-8.572 6.444-9.172 4.553c-.823-2.621 2.718-8.989 3.972-12.884z" class="cls-11" data-name="Path 33298" transform="translate(-646.065 -860.355)"/>
                                </g>
                                <g id="Group_10146" data-name="Group 10146" transform="translate(25.137 55.712)">
                                    <g id="Group_10145" data-name="Group 10145">
                                        <path id="Path_33299" d="M647.293 783.609a3.424 3.424 0 0 1-3.148-2.073c-2.45-5.7-10.049-24.89-4.935-32.47a7.654 7.654 0 0 1 6.742-3.31c10.354.23 20.58 10.225 21.01 10.651a3.425 3.425 0 0 1-4.814 4.873c-2.4-2.366-10.027-8.535-16.348-8.675-.707-.018-.82.155-.912.292-2.042 3.025 1.221 15.853 5.55 25.935a3.426 3.426 0 0 1-3.145 4.777z" class="cls-9" data-name="Path 33299" transform="translate(-637.477 -745.755)"/>
                                    </g>
                                </g>
                                <g id="Group_10149" data-name="Group 10149" transform="translate(35.581 102.555)">
                                    <g id="Group_10147" data-name="Group 10147" transform="translate(0 6.864)">
                                        <path id="Path_33300" d="M697.668 932.845l-.007 2.57c0 1.754-1.157 3.5-3.46 4.843-4.637 2.695-12.178 2.693-16.841 0-2.349-1.356-3.522-3.135-3.516-4.912l.007-2.57c-.005 1.777 1.168 3.556 3.516 4.912 4.664 2.693 12.205 2.695 16.842 0 2.302-1.338 3.455-3.088 3.459-4.843z" class="cls-16" data-name="Path 33300" transform="translate(-673.843 -932.777)"/>
                                    </g>
                                    <g id="Group_10148" data-name="Group 10148" transform="translate(.007)">
                                        <path id="Path_33301" d="M694.171 910.894c4.664 2.693 4.692 7.061.055 9.755s-12.178 2.693-16.842 0-4.692-7.061-.055-9.755 12.171-2.694 16.842 0z" class="cls-9" data-name="Path 33301" transform="translate(-673.868 -908.874)"/>
                                    </g>
                                </g>
                                <g id="Group_10152" data-name="Group 10152" transform="translate(45.733 74.165)">
                                    <g id="Group_10150" data-name="Group 10150">
                                        <path id="Rectangle_11910" d="M0 0h3.531v34.878H0z" class="cls-25" data-name="Rectangle 11910"/>
                                    </g>
                                    <g id="Group_10151" data-name="Group 10151" transform="translate(0 33.809)">
                                        <path id="Path_33302" d="M709.713 928.042a2.758 2.758 0 0 1 2.5 0 .761.761 0 0 1 0 1.442 2.76 2.76 0 0 1-2.5 0 .761.761 0 0 1 0-1.442z" class="cls-25" data-name="Path 33302" transform="translate(-709.196 -927.744)"/>
                                    </g>
                                </g>
                                <g id="Group_10155" data-name="Group 10155" transform="translate(30.223 64.127)">
                                    <g id="Group_10153" data-name="Group 10153" transform="translate(.016 9.99)">
                                        <path id="Path_33303" d="M689.752 809.943l-.011 3.722c-.007 2.54-1.676 5.077-5.011 7.015-6.716 3.9-17.638 3.9-24.392 0-3.4-1.964-5.1-4.541-5.093-7.114l.011-3.723c-.007 2.573 1.691 5.15 5.093 7.114 6.754 3.9 17.677 3.9 24.392 0 3.335-1.938 5.004-4.474 5.011-7.014z" class="cls-16" data-name="Path 33303" transform="translate(-655.245 -809.844)"/>
                                    </g>
                                    <g id="Group_10154" data-name="Group 10154">
                                        <ellipse id="Ellipse_1787" cx="9.99" cy="17.248" class="cls-9" data-name="Ellipse 1787" rx="9.99" ry="17.248" transform="rotate(-89.838 10.019 9.99)"/>
                                    </g>
                                </g>
                                <g id="Group_10156" data-name="Group 10156" transform="translate(46.79 58.301)">
                                    <path id="Path_33304" d="M722.88 758.274s3.057 6.141-2.457 9.887-11.171 1.677-4.566-8.479 7.023-1.408 7.023-1.408z" class="cls-8" data-name="Path 33304" transform="translate(-712.875 -754.772)"/>
                                </g>
                                <g id="Group_10157" data-name="Group 10157" transform="translate(13.111 62.035)">
                                    <path id="Path_33305" d="M635.036 769.554s-11.258-3.916-16.2-.137c-4.96-.952-10.827-1.38-15.976.076a9.279 9.279 0 0 0-6.064 5.234c-4.311 9.443 4.313 28.389 5.311 30.519a3.425 3.425 0 0 0 6.2-2.9c-3.246-6.943-8.023-18.208-5.754-23.172a5.188 5.188 0 0 1 2.509-2.22c5.729-1.621 11.5 1 14.355 2.655a9.777 9.777 0 0 0 2.425 1.572c.038.021.081.037.12.057l.161.068a5.569 5.569 0 0 0 .751.275c3.135 1.008 6.9.417 9.937-3.106 2.717-3.15 2.225-8.921 2.225-8.921z" class="cls-8" data-name="Path 33305" transform="translate(-595.598 -767.772)"/>
                                </g>
                                <g id="Group_10163" data-name="Group 10163" transform="translate(0 21.023)">
                                    <g id="Group_10158" data-name="Group 10158" transform="translate(35.125 2.444)">
                                        <path id="Path_33306" d="M672.255 647.987l.076 26.652a6.441 6.441 0 0 0 3.2 5.551 6.441 6.441 0 0 0 6.458.009l9.552-5.515a6.442 6.442 0 0 0 3.221-5.6s-.771-21.582-.808-21.954c-.528-5.379-1.137-6.628-3.015-9.595-.59-.932-6.945-8.342-14.08-.508-2.609 2.873-4.613 7.489-4.604 10.96z" class="cls-6" data-name="Path 33306" transform="translate(-672.255 -633.473)"/>
                                    </g>
                                    <g id="Group_10159" data-name="Group 10159" transform="translate(44.365)">
                                        <path id="Path_33307" d="M705.134 626.012a3.773 3.773 0 0 0 3.407 0 1.226 1.226 0 0 0 .7-1.051v4.6a1.25 1.25 0 0 1-.7.992 3.773 3.773 0 0 1-3.407 0 1.19 1.19 0 0 1-.7-.993v-4.536a1.2 1.2 0 0 0 .7.988z" class="cls-13" data-name="Path 33307" transform="translate(-704.432 -624.961)"/>
                                    </g>
                                    <g id="Group_10160" data-name="Group 10160" transform="translate(44.365)">
                                        <path id="Path_33308" d="M704.437 624.962c0 .022-.005.044-.005.066v-.067z" class="cls-12" data-name="Path 33308" transform="translate(-704.432 -624.961)"/>
                                    </g>
                                    <g id="Group_10161" data-name="Group 10161" transform="translate(0 33.251)">
                                        <path id="Path_33309" d="M559.1 747.648a2.652 2.652 0 0 1-.3-.017c-4.984-.574-6.782-1.465-7.7-2.085a2.621 2.621 0 0 1 2.932-4.346c.11.075 1.2.743 5.369 1.223a2.621 2.621 0 0 1-.3 5.226z" class="cls-12" data-name="Path 33309" transform="translate(-549.943 -740.75)"/>
                                    </g>
                                    <g id="Group_10162" data-name="Group 10162" transform="translate(7.379 10.338)">
                                        <path id="Path_33310" d="M579.286 691.472a3.646 3.646 0 0 1-1.336-7.039c20.571-8.094 26.517-21.163 26.575-21.294a3.646 3.646 0 0 1 6.674 2.936c-.285.648-7.245 15.962-30.58 25.143a3.638 3.638 0 0 1-1.333.254z" class="cls-14" data-name="Path 33310" transform="translate(-575.638 -660.961)"/>
                                    </g>
                                </g>
                                <g id="Group_10165" data-name="Group 10165" transform="translate(38.338 1.841)">
                                    <g id="Group_10164" data-name="Group 10164">
                                        <path id="Path_33311" d="M683.444 566.549v5.8a8.391 8.391 0 1 0 16.783 0v-5.8a8.368 8.368 0 0 0-.232-1.956 5.586 5.586 0 0 0-.134-.492 8.391 8.391 0 0 0-16.417 2.449z" class="cls-12" data-name="Path 33311" transform="translate(-683.444 -558.162)"/>
                                    </g>
                                </g>
                                <g id="Group_10166" data-name="Group 10166" transform="translate(37.396)">
                                    <path id="Path_33312" d="M682.192 556.089s-3.3 1.488-1.478 4.449 3.256 1.87 5 2.348-.937 2.369 1.427 4.428.472 3.151 1.282 4.244.232 7.961 7.648 4.619c4.339-1.956 5.946-9.2 5.525-14.526a8.681 8.681 0 0 0-7.721-8.3c-3.551-.5-4.582-2.891-8.409-.651s-3.274 3.389-3.274 3.389z" class="cls-9" data-name="Path 33312" transform="translate(-680.164 -551.753)"/>
                                </g>
                            </g>
                        </g>
                    </g>
                </g>
            </g>
        </g>
    </g>
</svg>
