<svg xmlns="http://www.w3.org/2000/svg" id="accessoires" width="80" height="80" viewBox="0 0 80 80">
    <defs>
        <style>
            .cls-1{fill:none}.cls-2{fill:#33b5a5}.cls-3{fill:#42c8b7}.cls-4{fill:#fff}
        </style>
    </defs>
    <path id="Rectangle_10940" d="M0 0h80v80H0z" class="cls-1" data-name="Rectangle 10940"/>
    <g id="Group_5298" data-name="Group 5298" transform="translate(8 8)">
        <path id="Path_15925" d="M254.145 193.2l-11.212 28.6-4.774-1.869a1.606 1.606 0 0 1-.5-.282 2.513 2.513 0 0 1-.948-3.033l9.817-25.024a2.574 2.574 0 0 1 3.328-1.446l.474.192 3.1 1.216a1.264 1.264 0 0 1 .717 1.651zm0 0" class="cls-2" data-name="Path 15925" transform="translate(-201.053 -161.472)"/>
        <path id="Path_15926" d="M250.664 191.757l-11.226 28.6-1.779-.7a2.513 2.513 0 0 1-.948-3.033l9.817-25.024a2.574 2.574 0 0 1 3.328-1.446l.474.192a1.3 1.3 0 0 1 .334 1.411zm0 0" class="cls-3" data-name="Path 15926" transform="translate(-201.053 -161.472)"/>
        <path id="Path_15927" d="M290.181 246.4l-4.767-1.87 9.819-25.023 4.766 1.87zm0 0" class="cls-4" data-name="Path 15927" transform="translate(-242.604 -186.581)"/>
        <path id="Path_15928" d="M72.89 191.53l3.575-1.4a2.56 2.56 0 0 1 3.318 1.448L89.6 216.6a2.559 2.559 0 0 1-1.448 3.318l-4.766 1.87-11.222-28.6a1.281 1.281 0 0 1 .726-1.658zm0 0" class="cls-3" data-name="Path 15928" transform="translate(-61.267 -161.458)"/>
        <path id="Path_15929" d="M44.016 221.382l4.766-1.87 9.818 25.022-4.766 1.87zm0 0" class="cls-4" data-name="Path 15929" transform="translate(-37.414 -186.585)"/>
        <path id="Path_15930" d="M39.255 8.535c-16.64 0-30.719 12.8-30.719 29.44v1.771a13.534 13.534 0 0 0 .9 4.864l3.846 10 5.338 13.593a1.272 1.272 0 0 0 1.075.807l2.852.256a1.28 1.28 0 0 0 1.308-1.741l-.179-.461-9.845-25.083a2.561 2.561 0 0 1-.176-.934v-3.072c0-11.52 8.96-23.04 25.6-23.04s25.6 11.52 25.6 23.04v3.072a2.562 2.562 0 0 1-.176.934L54.832 67.07l-.179.461a1.28 1.28 0 0 0 1.308 1.741l2.852-.256a1.273 1.273 0 0 0 1.075-.807l5.338-13.593 3.853-10a13.541 13.541 0 0 0 .9-4.864v-1.777c-.004-16.64-14.084-29.44-30.724-29.44zm0 0" class="cls-4" data-name="Path 15930" transform="translate(-7.257 -7.257)"/>
        <path id="Path_15931" d="M233.175 37.975v1.766a13.449 13.449 0 0 1-.909 4.864l-3.84 10.01-5.338 13.593a1.273 1.273 0 0 1-1.075.807l-2.855.256a1.248 1.248 0 0 1-.908-.271 1.279 1.279 0 0 0 1-.794l5.338-13.593 3.84-10.01a13.449 13.449 0 0 0 .909-4.864v-1.764c0-16-13-28.442-28.8-29.376a31.22 31.22 0 0 1 1.92-.064c16.638 0 30.718 12.8 30.718 29.44zm0 0" class="cls-4" data-name="Path 15931" transform="translate(-170.457 -7.257)"/>
        <path id="Path_15933" d="M235.692 215.819a1.281 1.281 0 0 1-.466-.09l-4.767-1.876a3.839 3.839 0 0 1-2.176-4.978l9.82-25.017a3.841 3.841 0 0 1 4.978-2.176l3.574 1.408a2.56 2.56 0 0 1 1.447 3.319l-11.219 28.6a1.28 1.28 0 0 1-1.191.81zm-4.3-4.342l3.574 1.4 10.752-27.406-3.572-1.4a1.28 1.28 0 0 0-1.664.723l-9.815 25.023a1.28 1.28 0 0 0 .726 1.664zm0 0" data-name="Path 15933" transform="translate(-193.816 -154.208)"/>
        <path id="Path_15934" d="M282.923 240.375a1.319 1.319 0 0 1-.466-.088l-4.767-1.876a1.28 1.28 0 0 1-.723-1.663l9.819-25.023a1.28 1.28 0 0 1 1.658-.724l4.767 1.87a1.281 1.281 0 0 1 .723 1.661l-9.82 25.033a1.281 1.281 0 0 1-1.191.81zm-3.106-3.875l2.383.936 8.883-22.641-2.382-.935zm0 0" data-name="Path 15934" transform="translate(-235.345 -179.278)"/>
        <path id="Path_15935" d="M76.142 215.807a1.28 1.28 0 0 1-1.191-.813L63.729 186.4a2.56 2.56 0 0 1 1.448-3.319l3.575-1.408a3.839 3.839 0 0 1 4.976 2.176l9.819 25.022a3.84 3.84 0 0 1-2.176 4.978l-4.767 1.87a1.285 1.285 0 0 1-.462.088zm-5.988-31.838a1.251 1.251 0 0 0-.467.09l-3.577 1.408 10.752 27.4 3.574-1.4a1.28 1.28 0 0 0 .724-1.664l-9.815-25.02a1.28 1.28 0 0 0-1.192-.813zm0 0" data-name="Path 15935" transform="translate(-54.02 -154.195)"/>
        <path id="Path_15936" d="M46.586 240.415a1.28 1.28 0 0 1-1.186-.815l-9.82-25.024a1.282 1.282 0 0 1 .723-1.66l4.767-1.87a1.28 1.28 0 0 1 1.664.724l9.814 25.03a1.28 1.28 0 0 1-.723 1.664l-4.767 1.87a1.3 1.3 0 0 1-.472.081zm-8.16-25.58l8.89 22.641 2.382-.936-8.889-22.64zm0 0" data-name="Path 15936" transform="translate(-30.166 -179.317)"/>
        <path id="Path_15937" d="M48.588 63.3a2.56 2.56 0 0 1-2.381-3.49l.178-.46 9.847-25.088a1.285 1.285 0 0 0 .088-.471V30.72c0-10.813-8.354-21.76-24.32-21.76S7.68 19.907 7.68 30.72v3.072a1.282 1.282 0 0 0 .088.468l10.024 25.552a2.56 2.56 0 0 1-2.616 3.479l-2.852-.255a2.534 2.534 0 0 1-2.148-1.605l-5.339-13.6-3.85-10.015A14.834 14.834 0 0 1 0 32.492V30.72C0 13.781 14.355 0 32 0s32 13.781 32 30.72v1.771a14.822 14.822 0 0 1-.987 5.324l-3.846 10-5.341 13.6a2.544 2.544 0 0 1-2.164 1.615l-2.839.256c-.08.014-.158.014-.235.014zM32 2.56c-16.233 0-29.44 12.632-29.44 28.16v1.771a12.232 12.232 0 0 0 .818 4.409l3.847 10 5.333 13.585 2.849.256-.178-.463L5.387 35.2a3.825 3.825 0 0 1-.267-1.408V30.72C5.12 18.634 14.352 6.4 32 6.4s26.88 12.234 26.88 24.32v3.072a3.848 3.848 0 0 1-.265 1.408L48.591 60.739l2.854-.255 5.335-13.593 3.84-10a12.232 12.232 0 0 0 .821-4.4V30.72C61.44 15.192 48.233 2.56 32 2.56zm0 0" data-name="Path 15937"/>
    </g>
</svg>
