<svg xmlns="http://www.w3.org/2000/svg" width="130" height="130" viewBox="0 0 130 130">
    <defs>
        <style>
            .cls-1{fill:#fff}.cls-2{fill:#e5e5e5}.cls-3{fill:#46b5a4}.cls-4{fill:#42c8b7}.cls-5{filter:url(#Rectangle_11879)}
        </style>
        <filter id="Rectangle_11879" width="130" height="130" x="0" y="0" filterUnits="userSpaceOnUse">
            <feOffset/>
            <feGaussianBlur result="blur" stdDeviation="5"/>
            <feFlood flood-opacity=".153"/>
            <feComposite in2="blur" operator="in"/>
            <feComposite in="SourceGraphic"/>
        </filter>
    </defs>
    <g id="Group_10272" data-name="Group 10272" transform="translate(-237 -924.65)">
        <g class="cls-5" transform="translate(237 924.65)">
            <rect id="Rectangle_11879-2" width="100" height="100" class="cls-1" data-name="Rectangle 11879" rx="10" transform="translate(15 15)"/>
        </g>
        <g id="Group_10268" data-name="Group 10268" transform="translate(265 965.837)">
            <g id="Group_10270" data-name="Group 10270" transform="translate(1.238 1.21)">
                <path id="Path_33329" d="M122.384 224.786a3.11 3.11 0 0 1-4.26.892c-.012-.012-.025-.012-.037-.025l-.2-.136a3.093 3.093 0 0 1-3.517 5.089l-2.043-1.412a3.215 3.215 0 0 1 .718 4.259 3.093 3.093 0 0 1-4.3.867l-2.006-1.424a4.233 4.233 0 0 1 .334.309 3.1 3.1 0 0 1-3.851 4.829l-5.151-3.442h-.012l-18.802-12.084-.669-.532-2.9-2.315 9.658-14.487h15.267l8.2 7.021.471.409 10.265 6.612 1.981 1.275a3.3 3.3 0 0 1 1.028 1.127v.012a3.115 3.115 0 0 1-.174 3.156z" class="cls-2" data-name="Path 33329" transform="translate(-65.946 -186.545)"/>
                <path id="Path_33330" d="M119.908 223.09a3.11 3.11 0 0 1-4.26.891c-.012-.012-.025-.012-.037-.025l-.2-.136a3.093 3.093 0 0 1-3.517 5.089l-2.043-1.412a3.215 3.215 0 0 1 .718 4.26 3.093 3.093 0 0 1-4.3.867l-2.006-1.424a4.313 4.313 0 0 1 .334.309 3.1 3.1 0 0 1-3.851 4.829L95.6 232.9h-.012l-17-10.921-2.9-2.315 9.658-14.487h14.772l6.686 5.733 2.006 1.288 10.24 6.6a2.693 2.693 0 0 1 .5.421 3.3 3.3 0 0 1 .532.706v.012a3.114 3.114 0 0 1-.174 3.153z" class="cls-1" data-name="Path 33330" transform="translate(-65.946 -186.545)"/>
                <g id="Group_10268-2" data-name="Group 10268" transform="translate(11.859 33.487)">
                    <path id="Path_33331" d="M120.2 329.235a3.1 3.1 0 0 1 .362-4.363l3.858-2.981a3.1 3.1 0 1 1 4 4.725l-3.858 2.981a3.1 3.1 0 0 1-4.362-.362z" class="cls-3" data-name="Path 33331" transform="translate(-115.229 -319.187)"/>
                    <path id="Path_33332" d="M90.84 313.966a2.45 2.45 0 0 1 .286-3.453l3.053-2.36a2.45 2.45 0 0 1 3.166 3.739l-3.053 2.36a2.45 2.45 0 0 1-3.452-.286z" class="cls-3" data-name="Path 33332" transform="translate(-90.26 -307.573)"/>
                    <path id="Path_33333" d="M183.5 381.165a2.47 2.47 0 0 1 .317-3.479l3.1-2.4a2.45 2.45 0 1 1 3.166 3.739l-3.1 2.4a2.471 2.471 0 0 1-3.483-.26z" class="cls-3" data-name="Path 33333" transform="translate(-169.479 -364.949)"/>
                    <path id="Path_33334" d="M150.216 357.514a2.45 2.45 0 0 1 .286-3.453l4.609-3.6a2.45 2.45 0 0 1 3.166 3.739l-4.61 3.6a2.45 2.45 0 0 1-3.451-.286z" class="cls-3" data-name="Path 33334" transform="translate(-141.021 -343.744)"/>
                </g>
                <path id="Path_33335" d="M53.233 169.594l-1 1.511-9.658 14.487-.433.644a1.239 1.239 0 0 1-1.647.4L36.95 184.6l12.605-19.279 3.405 2.6a1.252 1.252 0 0 1 .273 1.673z" class="cls-1" data-name="Path 33335" transform="translate(-32.827 -152.477)"/>
                <path id="Path_33336" d="M247.506 214.334v-.012l4.061-4.061-8.556-12.524-5.064 1.38-5.03-2.142c-4.467-.857-6.376.131-7.1.75a1.752 1.752 0 0 0-.387.44 13.859 13.859 0 0 1-2.354 1.558 2.34 2.34 0 0 0 .736 4.369 11.067 11.067 0 0 0 6.608-1.166l3.743 2.381z" class="cls-4" data-name="Path 33336" transform="translate(-190.895 -179.25)"/>
                <path id="Path_33337" d="M8.533 76.8l16.728 12.841-12.605 19.279-4.123-2.407z" class="cls-4" data-name="Path 33337" transform="translate(-8.533 -76.796)"/>
                <g id="Group_10269" data-name="Group 10269" transform="translate(51.205)">
                    <path id="Path_33338" d="M377.91 184.6l-3.541 2.031a1.239 1.239 0 0 1-1.647-.4l-1.832-2.749-8.556-12.828-.706-1.065a1.252 1.252 0 0 1 .272-1.672l3.405-2.6z" class="cls-1" data-name="Path 33338" transform="translate(-361.422 -152.477)"/>
                    <path id="Path_33339" d="M401.195 108.99l-13.014-19.349L404.909 76.8v29.717z" class="cls-4" data-name="Path 33339" transform="translate(-384.298 -76.796)"/>
                </g>
                <path id="Path_33340" d="M480.487 76.8v29.717l-3.715 2.476-.186-.285.186-.953V80.511z" class="cls-3" data-name="Path 33340" transform="translate(-408.671 -76.796)"/>
            </g>
            <path id="Path_33341" d="M73.6 68.582a1.24 1.24 0 0 0-1.3.127L52.173 84.1a2.48 2.48 0 0 0-.617 3.229l-3.176.871-4.635-1.973a1.23 1.23 0 0 0-.251-.077c-4.447-.85-6.752-.03-7.943.883H22.9a2.485 2.485 0 0 0-.777-2.926L1.99 68.709a1.238 1.238 0 0 0-1.99.983v29.717a1.237 1.237 0 0 0 .624 1.075l7.664 4.378a2.455 2.455 0 0 0 1.224.325 2.485 2.485 0 0 0 1.695-.674l1.437 1.148a3.686 3.686 0 0 0 2.6 5.946c.105.01.209.013.313.013a3.694 3.694 0 0 0 .568-.049 4.3 4.3 0 0 0 1 2.4 4.306 4.306 0 0 0 2.949 1.517c.122.011.244.016.366.016h.055a3.649 3.649 0 0 0 .853 2.192 3.705 3.705 0 0 0 2.83 1.304 3.649 3.649 0 0 0 1.269-.23 3.656 3.656 0 0 0 3.233 2.659c.105.01.209.013.313.013a3.6 3.6 0 0 0 2.331-.839l1.942-1.5 4.572 3.055a4.313 4.313 0 0 0 2.388.721 4.4 4.4 0 0 0 .868-.086 4.313 4.313 0 0 0 3.45-3.807 4.27 4.27 0 0 0 5.5-3.757 4.31 4.31 0 0 0 5.6-4.806 4.265 4.265 0 0 0 3.054-1.856 4.342 4.342 0 0 0 .573-3.537l2.442-2.441 1 1.495a2.48 2.48 0 0 0 3.29.777l7.664-4.378a1.237 1.237 0 0 0 .624-1.075V69.692a1.239 1.239 0 0 0-.691-1.11zM2.476 72.2L16.3 82.768 4.962 100.111l-2.485-1.42zm4.639 29.144l11.158-17.067 2.342 1.79-11.1 16.646zm8.331 7.8a1.214 1.214 0 0 1-.726-2.1l3.1-2.394a1.2 1.2 0 0 1 .781-.287h.1a1.214 1.214 0 0 1 .726 2.1l-3.1 2.394a1.166 1.166 0 0 1-.881.283zm4.831 3.883a1.858 1.858 0 0 1-1.089-3.233l3.9-3.016a1.858 1.858 0 0 1 3.052 1.571 1.83 1.83 0 0 1-.579 1.2l-1.061.828-2.87 2.213a1.837 1.837 0 0 1-1.353.433zm2.961 3.07a1.2 1.2 0 0 1-.283-.883 1.18 1.18 0 0 1 .386-.793l2.895-2.259.854-.66.025-.026.874-.682a1.2 1.2 0 0 1 .78-.288 1.009 1.009 0 0 1 .1 0 1.214 1.214 0 0 1 .722 2.1l-2.9 2.261-.1.074-1.653 1.29a1.21 1.21 0 0 1-1.707-.141zm6.528 2.589a1.151 1.151 0 0 1-.883.282 1.213 1.213 0 0 1-.726-2.1l.057-.044 3.041-2.351a1.213 1.213 0 0 1 1.608 1.815zM56.642 107.2a1.871 1.871 0 0 1-2.553.532l-.01-.006-8.132-5.62a1.238 1.238 0 1 0-1.408 2.036l7.869 5.44a1.848 1.848 0 0 1-.663 3.353 1.826 1.826 0 0 1-1.377-.264l-8.138-5.616a1.239 1.239 0 0 0-1.408 2.039l5.944 4.1a1.969 1.969 0 0 1 .534 2.66 1.851 1.851 0 0 1-2.545.538l-2.19-1.554-2.232-1.584a1.238 1.238 0 0 0-1.434 2.019l2.3 1.629a3.54 3.54 0 0 1 .315.288 1.862 1.862 0 0 1-2.307 2.9l-4.078-2.726a3.666 3.666 0 0 0-2.688-5.638 3.654 3.654 0 0 0-3.367-3.7 3.536 3.536 0 0 0-.477 0 4.3 4.3 0 0 0-6.489-3.591 3.683 3.683 0 0 0-5.85-1.726l-1.691 1.307-1.928-1.541L21.3 89.5h10.868a3.564 3.564 0 0 0-1.156 3.313 3.527 3.527 0 0 0 2.942 2.887 12.151 12.151 0 0 0 6.732-.97l3.157 2.009a1.238 1.238 0 0 0 .223.1l12.071 7.774a2.021 2.021 0 0 1 .588.625.33.33 0 0 0 .021.042 1.874 1.874 0 0 1-.104 1.92zm1.267-4.3a4.37 4.37 0 0 0-.417-.356l-12.245-7.89a1.177 1.177 0 0 0-.175-.068l-3.642-2.317a1.24 1.24 0 0 0-1.281-.03 9.805 9.805 0 0 1-5.791 1.019 1.043 1.043 0 0 1-.908-.873 1.116 1.116 0 0 1 .58-1.2 14.27 14.27 0 0 0 2.6-1.74.834.834 0 0 0 .207-.261.977.977 0 0 1 .131-.134c.363-.311 1.859-1.253 5.932-.5l4.907 2.089a1.212 1.212 0 0 0 .81.056l4.376-1.193 7.325 10.985zm6.867-.184l-11.1-16.645 2.343-1.792 11.157 17.065zm7.04-4.022l-2.485 1.42-11.338-17.345L71.817 72.2v26.491z" data-name="Path 33341" transform="translate(0 -68.454)"/>
        </g>
    </g>
</svg>
