<svg xmlns="http://www.w3.org/2000/svg" width="130" height="130" viewBox="0 0 130 130">
    <defs>
        <style>
            .cls-1{fill:#fff}.cls-2{fill:#e5e5e5}.cls-3{fill:#42c8b7}.cls-4{fill:#dcdcdc}.cls-5{filter:url(#Rectangle_11879)}
        </style>
        <filter id="Rectangle_11879" width="130" height="130" x="0" y="0" filterUnits="userSpaceOnUse">
            <feOffset/>
            <feGaussianBlur result="blur" stdDeviation="5"/>
            <feFlood flood-opacity=".149"/>
            <feComposite in2="blur" operator="in"/>
            <feComposite in="SourceGraphic"/>
        </filter>
    </defs>
    <g id="Group_10277" data-name="Group 10277" transform="translate(15 14.958)">
        <g id="Group_10275" class="cls-5" data-name="Group 10275" transform="translate(-15 -14.96)">
            <rect id="Rectangle_11879-2" width="100" height="100" class="cls-1" data-name="Rectangle 11879" rx="10" transform="translate(15 15)"/>
        </g>
        <g id="Group_9530" data-name="Group 9530" transform="translate(26.743 14.419)">
            <g id="Layer_3" data-name="Layer 3" transform="translate(1.167 1.167)">
                <g id="Group_9163" data-name="Group 9163" transform="translate(33.832 16.272)">
                    <path id="Shape" d="M363.195 134.308l-4.795 1.972v-7.607l2.2-.875a3.5 3.5 0 1 1 2.59 6.51z" class="cls-1" transform="translate(-356.067 -127.55)"/>
                    <path id="Path_31497" d="M351.833 225.367a3.5 3.5 0 0 1-3.5 3.5h-3.5a3.5 3.5 0 1 1 0-7h3.5a3.5 3.5 0 0 1 3.5 3.5z" class="cls-1" data-name="Path 31497" transform="translate(-341.333 -208.972)"/>
                    <path id="Path_31498" d="M350.836 276.567a3.5 3.5 0 0 1-3.5 3.5H345a3.236 3.236 0 0 1-1.167-.21 3.5 3.5 0 0 1 1.167-6.79h2.333a3.5 3.5 0 0 1 3.503 3.5z" class="cls-1" data-name="Path 31498" transform="translate(-341.503 -253.172)"/>
                </g>
                <path id="Path_31499" d="M365.584 273.067h-2.334a3.183 3.183 0 0 0-.583.058 3.5 3.5 0 0 1 0 6.883 3.509 3.509 0 0 0 .583.058h2.333a3.5 3.5 0 0 0 0-7z" class="cls-2" data-name="Path 31499" transform="translate(-325.918 -236.9)"/>
                <path id="Path_31500" d="M349.5 327.767a3.5 3.5 0 0 1-3.5 3.5h-1.167a3.5 3.5 0 1 1 0-7H346a3.5 3.5 0 0 1 3.5 3.5z" class="cls-1" data-name="Path 31500" transform="translate(-307.501 -281.1)"/>
                <path id="Path_31501" d="M360.733 324.267h-1.167a3.314 3.314 0 0 0-1.167.21 3.5 3.5 0 0 1 0 6.592 3.5 3.5 0 0 0 1.167.2h1.167a3.5 3.5 0 1 0 0-7z" class="cls-2" data-name="Path 31501" transform="translate(-322.235 -281.1)"/>
                <path id="Path_31502" d="M370.433 221.867h-3.5a3.5 3.5 0 1 1 0 7h3.5a3.5 3.5 0 0 0 0-7z" class="cls-2" data-name="Path 31502" transform="translate(-329.601 -192.7)"/>
                <path id="Path_31503" d="M361.655 129.758a3.5 3.5 0 0 1-1.96 4.55l-1.3.537v1.435l4.772-1.972a3.5 3.5 0 1 0-2.59-6.51l-.513.21a3.5 3.5 0 0 1 1.587 1.75z" class="cls-2" data-name="Path 31503" transform="translate(-322.235 -111.278)"/>
                <path id="Path_31504" d="M182.767 51.7a3.235 3.235 0 0 1-1.167-.21 3.5 3.5 0 0 1 1.167-6.79 3.5 3.5 0 0 1-1.167-6.8V12.033a3.5 3.5 0 0 0-3.5-3.5h-2.333l-1.692 3.367a2.334 2.334 0 0 1-2.088 1.3h-8.773a2.334 2.334 0 0 1-2.088-1.3l-1.692-3.372H157.1a3.5 3.5 0 0 0-3.5 3.5V34.41c1.738.525 2.742 1.68 4.667 2.228a34.47 34.47 0 0 0 4.947.968 2.333 2.333 0 0 1 2.053 2.275v.21s0 5.122-7 5.122A11.233 11.233 0 0 1 153.6 44.2v14.5a3.5 3.5 0 0 0 3.5 3.5h21a3.5 3.5 0 0 0 3.5-3.5v-.2a3.5 3.5 0 0 1 1.167-6.8zm-17.5-29.167a2.333 2.333 0 1 1-4.667 0V20.2a2.333 2.333 0 1 1 4.667 0zm9.333 23.333a2.333 2.333 0 1 1-4.667 0v-2.333a2.333 2.333 0 0 1 4.667 0zm0-11.667a2.333 2.333 0 0 1-4.667 0v-2.333a2.333 2.333 0 1 1 4.667 0z" class="cls-3" data-name="Path 31504" transform="translate(-145.435 -8.533)"/>
                <path id="Path_31505" d="M212.6 8.533l-1.691 3.367a2.334 2.334 0 0 1-2.088 1.3h-8.773a2.334 2.334 0 0 1-2.088-1.3l-1.692-3.372z" class="cls-4" data-name="Path 31505" transform="translate(-182.268 -8.533)"/>
                <path id="Path_31506" d="M125.376 224.266s-1.167 2.333-5.833 4.982a2.333 2.333 0 0 0-1.167 2.018v4.667a2.333 2.333 0 0 1-2.333 2.333h-14a2.333 2.333 0 0 1-2.333-2.333v-3.5c0-2.135-1.5-3.943-2.578-5.682-2.03-3.3-2.94-3.5-3.22-7.21-.152-1.925.257-7.187.3-9.135 0-1.073 0-4.76-.07-8.167a6.02 6.02 0 0 1 5.973-5.973 6.66 6.66 0 0 1 1.925.268c1.738.525 2.742 1.68 4.667 2.228a34.47 34.47 0 0 0 4.947.968 2.333 2.333 0 0 1 2.053 2.217v.21s0 5.122-7 5.122a11.234 11.234 0 0 1-4.667-1.015v14.5a3.5 3.5 0 0 0 3.5 3.5z" class="cls-1" data-name="Path 31506" transform="translate(-93.877 -170.599)"/>
                <path id="Path_31507" d="M127.706 196.448c1.738.525 2.742 1.68 4.667 2.228a34.473 34.473 0 0 0 4.947.968 2.333 2.333 0 0 1 2.053 2.275v.21s0 4.2-5.25 4.982a5.992 5.992 0 0 0 1.75.14c7 0 7-5.122 7-5.122v-.21a2.333 2.333 0 0 0-2.053-2.275 34.472 34.472 0 0 1-4.947-.968c-1.925-.548-2.928-1.7-4.667-2.228a6.659 6.659 0 0 0-1.925-.21 5.83 5.83 0 0 0-1.622.257z" class="cls-2" data-name="Path 31507" transform="translate(-123.04 -170.571)"/>
                <path id="Path_31508" d="M239.733 401.067s-1.167 2.333-5.833 4.982a2.333 2.333 0 0 0-1.167 2.018v4.667a2.333 2.333 0 0 1-2.333 2.333h3.5a2.333 2.333 0 0 0 2.333-2.333v-4.667a2.333 2.333 0 0 1 1.167-2.018c4.667-2.648 5.833-4.982 5.833-4.982z" class="cls-2" data-name="Path 31508" transform="translate(-211.735 -347.4)"/>
                <path id="Path_31509" d="M209.467 79.133v2.333a2.333 2.333 0 1 1-4.667 0v-2.333a2.333 2.333 0 1 1 4.667 0z" class="cls-1" data-name="Path 31509" transform="translate(-189.635 -67.467)"/>
                <path id="Path_31510" d="M277.734 164.466v2.334a2.333 2.333 0 0 1-4.667 0v-2.333a2.333 2.333 0 1 1 4.667 0z" class="cls-1" data-name="Path 31510" transform="translate(-248.568 -141.133)"/>
                <path id="Path_31511" d="M277.734 249.8v2.333a2.333 2.333 0 1 1-4.667 0V249.8a2.333 2.333 0 0 1 4.667 0z" class="cls-1" data-name="Path 31511" transform="translate(-248.568 -214.8)"/>
            </g>
            <g id="Group_9164" data-name="Group 9164">
                <path id="Path_31512" d="M87.465 56c1.167 1.727.957 1.458 1.948 2.963 2.112 3.173 1.762 3.15 1.762 7.537a3.5 3.5 0 0 0 3.5 3.5h14a3.5 3.5 0 0 0 3.5-3.5v-4.667a1.166 1.166 0 0 1 .583-1A18.013 18.013 0 0 0 118.591 56h.583a4.667 4.667 0 0 0 4.5-3.5h1.33a4.667 4.667 0 0 0 3.5-7.688 4.667 4.667 0 0 0 1.167-7 4.667 4.667 0 0 0-2.333-8.645h-3.5v-2.2l4.06-1.68a4.68 4.68 0 0 0-3.5-8.68l-.607.245V4.667A4.667 4.667 0 0 0 119.128 0H98.175a4.667 4.667 0 0 0-4.667 4.667v21a7.175 7.175 0 0 0-7.9 7.2c.117 8.89.105 7.91-.058 10.722-.117 2.333-.28 5.238-.175 6.638A9.334 9.334 0 0 0 87.465 56zm35.583-13.008a2.333 2.333 0 0 1 .793-4.492h2.333a2.333 2.333 0 1 1 0 4.667c-2.427 0-2.613 0-3.127-.21zm1.96 7.175h-1.167a2.333 2.333 0 0 1 0-4.667h1.167a2.333 2.333 0 0 1 0 4.667zm2.333-18.667a2.333 2.333 0 1 1 0 4.667h-3.5a2.333 2.333 0 0 1 0-4.667zm-2.03-12.728a2.339 2.339 0 1 1 1.715 4.352l-3.185 1.376v-5.145zm-10.36-16.439l-.84 1.692a1.166 1.166 0 0 1-1.05.642h-8.773a1.166 1.166 0 0 1-1.05-.642l-.84-1.692zm-19.11 2.334a2.333 2.333 0 0 1 2.333-2.333h1.61l1.365 2.73A3.5 3.5 0 0 0 104.288 7h8.773a3.5 3.5 0 0 0 3.139-1.937l1.365-2.73h1.61a2.333 2.333 0 0 1 2.333 2.333v25.1a4.667 4.667 0 0 0-.723 7.572 4.667 4.667 0 0 0 0 7 4.667 4.667 0 0 0 .723 7.432 2.333 2.333 0 0 1-2.333 1.9h-21a2.333 2.333 0 0 1-2.333-2.333V38.5a12.076 12.076 0 0 0 7 0h7a3.5 3.5 0 1 0 7 0h1.167a1.167 1.167 0 0 0 0-2.333h-1.167a3.5 3.5 0 1 0-7 0h-3.593a6.488 6.488 0 0 0 1.26-3.652 3.5 3.5 0 0 0-3.08-3.442c-6.323-.758-6.172-1.785-8.587-2.835zM114.508 38.5a1.167 1.167 0 0 1-2.333 0v-2.333a1.167 1.167 0 0 1 2.333 0zm-26.623 5.192c.56-10.278-.875-11.947 1.458-14.3A4.736 4.736 0 0 1 92.761 28c2.66 0 3.57 1.68 6.265 2.45a34.679 34.679 0 0 0 5.122 1 1.167 1.167 0 0 1 1.027 1.167v.047c0 .163-.07 3.967-5.833 3.967a.637.637 0 0 0-.21 0c-.875.082-4.982-.758-5.752-2.333a1.167 1.167 0 1 0-2.08 1.052 5.11 5.11 0 0 0 2.205 2.193v13.79A4.667 4.667 0 0 0 98.175 56h17.348a20.884 20.884 0 0 1-3.908 2.8 3.5 3.5 0 0 0-1.773 3.033V66.5a1.167 1.167 0 0 1-1.167 1.167h-14a1.167 1.167 0 0 1-1.167-1.167c0-4.6.362-5.052-2.147-8.855-.98-1.493-.793-1.318-1.983-3.022a7.14 7.14 0 0 1-1.7-4.6c-.07-1.248.093-4.072.21-6.335z" data-name="Path 31512" transform="translate(-85.342)"/>
                <path id="Path_31513" d="M217.633 358.4h-11.666a1.167 1.167 0 0 0 0 2.333h11.667a1.167 1.167 0 0 0 0-2.333z" data-name="Path 31513" transform="translate(-188.468 -309.4)"/>
                <path id="Path_31514" d="M180.367 74.1h1.167a3.5 3.5 0 0 0 7 0h10.5a1.167 1.167 0 1 0 0-2.333h-10.5a3.5 3.5 0 1 0-7 0h-1.167a1.167 1.167 0 1 0 0 2.333zm3.5-2.333a1.167 1.167 0 1 1 2.333 0V74.1a1.167 1.167 0 1 1-2.333 0z" data-name="Path 31514" transform="translate(-166.368 -58.934)"/>
                <path id="Path_31515" d="M180.367 159.433h10.5a3.5 3.5 0 0 0 7 0h1.167a1.167 1.167 0 0 0 0-2.333h-1.167a3.5 3.5 0 0 0-7 0h-10.5a1.167 1.167 0 0 0 0 2.333zM193.2 157.1a1.167 1.167 0 0 1 2.333 0v2.333a1.167 1.167 0 0 1-2.333 0z" data-name="Path 31515" transform="translate(-166.368 -132.6)"/>
            </g>
        </g>
    </g>
</svg>
