<svg xmlns="http://www.w3.org/2000/svg" width="130" height="130" viewBox="0 0 130 130">
    <defs>
        <style>
            .cls-1{fill:#fff}.cls-2{fill:#e5e5e5}.cls-3{fill:#46b5a4}.cls-4{fill:#42c8b7}.cls-5{filter:url(#Rectangle_11879)}
        </style>
        <filter id="Rectangle_11879" width="130" height="130" x="0" y="0" filterUnits="userSpaceOnUse">
            <feOffset/>
            <feGaussianBlur result="blur" stdDeviation="5"/>
            <feFlood flood-opacity=".149"/>
            <feComposite in2="blur" operator="in"/>
            <feComposite in="SourceGraphic"/>
        </filter>
    </defs>
    <g id="Group_10273" data-name="Group 10273" transform="translate(15 14.958)">
        <g class="cls-5" transform="translate(-15 -14.96)">
            <rect id="Rectangle_11879-2" width="100" height="100" class="cls-1" data-name="Rectangle 11879" rx="10" transform="translate(15 15)"/>
        </g>
        <g id="Group_9166" data-name="Group 9166" transform="translate(14 13.73)">
            <g id="Group_9166-2" data-name="Group 9166" transform="translate(1.197 3.563)">
                <path id="Path_31516" d="M29.925 444.481H9.791a1.179 1.179 0 0 1-1.175-1.381c.76-3.753 4.526-7.222 8.813-7.994a9.8 9.8 0 0 1 1.77-.166c5.523.003 10.726 4.778 10.726 9.541z" class="cls-2" data-name="Path 31516" transform="translate(-8.599 -377.964)"/>
                <path id="Path_31517" d="M26.361 445.51H9.791a1.179 1.179 0 0 1-1.176-1.378c.76-3.753 4.526-7.222 8.813-7.994 4.812.879 8.933 5.131 8.933 9.372z" class="cls-1" data-name="Path 31517" transform="translate(-8.599 -378.992)"/>
                <path id="Path_31518" d="M188.034 437.137h-26.227c0-4.193 4.929-9.312 10.714-10.488a12.449 12.449 0 0 1 2.4-.238c6.746 0 13.113 5.963 13.113 10.726z" class="cls-2" data-name="Path 31518" transform="translate(-140.481 -370.62)"/>
                <path id="Path_31519" d="M184.424 438.606h-22.616c0-4.193 5.2-9.312 11.308-10.488 6.105 1.176 11.308 6.295 11.308 10.488z" class="cls-1" data-name="Path 31519" transform="translate(-140.482 -372.089)"/>
                <path id="Path_31520" d="M370.357 444.483h-20.133c0-4.241 4.122-8.493 8.932-9.372a9.975 9.975 0 0 1 1.793-.166c4.989 0 9.716 3.9 10.583 8.16a1.179 1.179 0 0 1-1.176 1.378z" class="cls-2" data-name="Path 31520" transform="translate(-302.671 -377.966)"/>
                <path id="Path_31521" d="M366.794 445.512h-16.57c0-4.24 4.122-8.493 8.932-9.372 4.288.772 8.053 4.24 8.814 7.994a1.179 1.179 0 0 1-1.176 1.378z" class="cls-1" data-name="Path 31521" transform="translate(-302.671 -378.994)"/>
                <path id="Path_31522" d="M383.578 323.878a8.309 8.309 0 0 1-8.315 8.315 8.714 8.714 0 0 1-1.782-.19 8.319 8.319 0 0 1 0-16.249 8.712 8.712 0 0 1 1.782-.19 8.309 8.309 0 0 1 8.315 8.314z" class="cls-2" data-name="Path 31522" transform="translate(-317.068 -275.202)"/>
                <path id="Path_31523" d="M206.754 299.464a9.5 9.5 0 0 1-9.5 9.5 9.754 9.754 0 0 1-1.782-.166 9.505 9.505 0 0 1 0-18.672 9.733 9.733 0 0 1 1.782-.166 9.5 9.5 0 0 1 9.5 9.5z" class="cls-2" data-name="Path 31523" transform="translate(-162.812 -253.163)"/>
                <ellipse id="Ellipse_1715" cx="7.721" cy="9.336" class="cls-1" data-name="Ellipse 1715" rx="7.721" ry="9.336" transform="translate(24.937 36.965)"/>
                <path id="Path_31524" d="M42.244 323.878a8.309 8.309 0 0 1-8.315 8.315 8.714 8.714 0 0 1-1.782-.19 8.319 8.319 0 0 1 0-16.249 8.712 8.712 0 0 1 1.782-.19 8.309 8.309 0 0 1 8.315 8.314z" class="cls-2" data-name="Path 31524" transform="translate(-23.246 -275.202)"/>
                <ellipse id="Ellipse_1716" cx="6.533" cy="8.125" class="cls-1" data-name="Ellipse 1716" rx="6.533" ry="8.125" transform="translate(49.879 40.552)"/>
                <ellipse id="Ellipse_1717" cx="6.533" cy="8.125" class="cls-1" data-name="Ellipse 1717" rx="6.533" ry="8.125" transform="translate(2.369 40.552)"/>
                <path id="Path_31525" d="M182.106 39.853a14.25 14.25 0 0 1-14.254 14.254 12.59 12.59 0 0 1-1.782-.119 14.246 14.246 0 0 1 0-28.27 12.588 12.588 0 0 1 1.782-.119 14.25 14.25 0 0 1 14.254 14.254z" class="cls-3" data-name="Path 31525" transform="translate(-133.416 -25.599)"/>
                <ellipse id="Ellipse_1718" cx="12.472" cy="14.135" class="cls-4" data-name="Ellipse 1718" rx="12.472" ry="14.135" transform="translate(20.184 .119)"/>
                <circle id="Ellipse_1719" cx="7.127" cy="7.127" r="7.127" class="cls-4" data-name="Ellipse 1719" transform="translate(27.31 7.127)"/>
            </g>
            <g id="Group_9167" data-name="Group 9167">
                <path id="Path_31526" d="M64.212 302.8a9.487 9.487 0 0 0-3.632-17.6v-1.27a1.188 1.188 0 0 0-2.376 0v1.27a9.488 9.488 0 0 0-3.576 17.629 12.681 12.681 0 0 0-5.947 5.408 16.017 16.017 0 0 0-7.866-6.648 10.69 10.69 0 1 0-10.359 0 16.017 16.017 0 0 0-7.866 6.648 12.681 12.681 0 0 0-5.947-5.408 9.488 9.488 0 0 0-3.576-17.629v-1.27a1.188 1.188 0 0 0-2.376 0v1.27a9.487 9.487 0 0 0-3.632 17.6 11.973 11.973 0 0 0-7.012 8.031 2.293 2.293 0 0 0 .479 1.915 2.4 2.4 0 0 0 1.865.885h66.49a2.4 2.4 0 0 0 1.865-.885 2.293 2.293 0 0 0 .479-1.915 11.973 11.973 0 0 0-7.013-8.031zm-11.947-8.175a7.127 7.127 0 1 1 7.127 7.127 7.127 7.127 0 0 1-7.127-7.131zm-24.944-2.376a8.315 8.315 0 1 1 8.315 8.315 8.315 8.315 0 0 1-8.315-8.319zm-22.568 2.372a7.127 7.127 0 1 1 7.127 7.127 7.127 7.127 0 0 1-7.127-7.127zM2.375 311.3c.781-3.824 5.184-7.178 9.422-7.178 4.359 0 8.645 3.377 9.417 7.13zm21.491-.052c.966-3.857 6.313-8.315 11.769-8.315s10.8 4.457 11.769 8.315zm45.014 0H50.058c.773-3.752 5.058-7.127 9.416-7.127 4.238 0 8.641 3.355 9.431 7.115a.039.039 0 0 1-.025.014z" data-name="Path 31526" transform="translate(-.002 -242.358)"/>
                <path id="Path_31527" d="M76.8 175.418a1.188 1.188 0 0 0 2.376 0v-3.563a1.188 1.188 0 0 0-2.376 0z" data-name="Path 31527" transform="translate(-66.11 -146.911)"/>
                <path id="Path_31528" d="M76.8 235.151a1.188 1.188 0 0 0 2.376 0v-3.563a1.188 1.188 0 0 0-2.376 0z" data-name="Path 31528" transform="translate(-66.11 -198.329)"/>
                <path id="Path_31529" d="M420.509 171.855a1.188 1.188 0 0 0-2.375 0v3.563a1.188 1.188 0 0 0 2.375 0z" data-name="Path 31529" transform="translate(-359.932 -146.911)"/>
                <path id="Path_31530" d="M419.322 230.4a1.188 1.188 0 0 0-1.188 1.188v3.563a1.188 1.188 0 0 0 2.375 0v-3.563a1.188 1.188 0 0 0-1.187-1.188z" data-name="Path 31530" transform="translate(-359.932 -198.329)"/>
                <path id="Path_31531" d="M101.744 0a1.188 1.188 0 0 0-1.188 1.188v1.248a15.445 15.445 0 0 0-14.193 14.193h-7.187A2.378 2.378 0 0 0 76.8 19v1.188a1.188 1.188 0 1 0 2.376 0V19h7.187a15.445 15.445 0 0 0 14.193 14.2v2.436a1.188 1.188 0 0 0 2.376 0V33.2A15.445 15.445 0 0 0 117.125 19h7.187v1.188a1.188 1.188 0 1 0 2.376 0V19a2.378 2.378 0 0 0-2.376-2.376h-7.187a15.445 15.445 0 0 0-14.194-14.188V1.188A1.187 1.187 0 0 0 101.744 0zm-1.188 19v4.631A5.956 5.956 0 0 1 95.925 19zm-4.631-2.376A5.956 5.956 0 0 1 100.556 12v4.631zM102.932 19h4.631a5.956 5.956 0 0 1-4.631 4.631zm0-2.376V12a5.956 5.956 0 0 1 4.631 4.631zm-2.376-11.813V9.6a8.32 8.32 0 0 0-7.032 7.032h-4.786a13.079 13.079 0 0 1 11.818-11.821zM88.738 19h4.786a8.319 8.319 0 0 0 7.032 7.032v4.786A13.079 13.079 0 0 1 88.738 19zm14.193 11.818v-4.781A8.32 8.32 0 0 0 109.964 19h4.786a13.079 13.079 0 0 1-11.818 11.823zm11.819-14.189h-4.786a8.32 8.32 0 0 0-7.032-7.029V4.811a13.079 13.079 0 0 1 11.818 11.818z" data-name="Path 31531" transform="translate(-66.11)"/>
            </g>
        </g>
    </g>
</svg>
