<svg xmlns="http://www.w3.org/2000/svg" id="sell" width="80" height="80" viewBox="0 0 80 80">
    <defs>
        <style>
            .cls-1{fill:none}.cls-2{fill:#fdd7ad}.cls-3{fill:#fff}.cls-4{fill:#42c8b7}
        </style>
    </defs>
    <path id="Rectangle_10940" d="M0 0h80v80H0z" class="cls-1" data-name="Rectangle 10940"/>
    <g id="donation" transform="translate(8 5.999)">
        <g id="Group_3605" data-name="Group 3605" transform="translate(1.143)">
            <path id="Path_15939" d="M84.029 12.572H70.315V11.43a4.54 4.54 0 0 0-6.857-3.936V4.572a4.571 4.571 0 0 0-9.143 0v1.777a4.522 4.522 0 0 0-2.286-.634 4.576 4.576 0 0 0-4.571 4.571v2.286H26.887a2.293 2.293 0 0 0-2.287 2.286V40a2.293 2.293 0 0 0 2.286 2.286h13.772v.091c.49 6.1 4.4 13.841 5.518 15.937a1.134 1.134 0 0 0-1 1.115v6.857a1.146 1.146 0 0 0 1.143 1.143h22.853a1.146 1.146 0 0 0 1.143-1.143v-6.857a1.128 1.128 0 0 0-.556-.956c5.064-4 5.128-11.284 5.128-11.615v-4.571h9.143A2.293 2.293 0 0 0 86.315 40V14.858a2.293 2.293 0 0 0-2.286-2.286z" class="cls-2" data-name="Path 15939" transform="translate(-24.601 -.001)"/>
            <g id="Group_3604" data-name="Group 3604" transform="translate(24 1.143)">
                <path id="Path_15940" d="M313.058 63.163v1.143H306.2v-1.143a3.429 3.429 0 0 1 6.857 0z" class="cls-3" data-name="Path 15940" transform="translate(-292.487 -52.877)"/>
                <path id="Path_15941" d="M261.858 11.963v8H255v-8a3.429 3.429 0 0 1 6.857 0z" class="cls-3" data-name="Path 15941" transform="translate(-248.144 -8.534)"/>
                <path id="Path_15942" d="M210.658 54.63v2.286H203.8V54.63a3.429 3.429 0 0 1 6.857 0z" class="cls-3" data-name="Path 15942" transform="translate(-203.801 -45.487)"/>
            </g>
            <path id="Path_15943" d="M84.029 93.868H26.886a2.293 2.293 0 0 0-2.286 2.286V121.3a2.293 2.293 0 0 0 2.286 2.286h33.062a10.293 10.293 0 0 1 6.926-3.429.011.011 0 0 0 .008 0 .011.011 0 0 0 0-.008h6.857v3.44h10.29a2.292 2.292 0 0 0 2.286-2.286V96.154a2.292 2.292 0 0 0-2.286-2.286z" class="cls-4" data-name="Path 15943" transform="translate(-24.6 -81.297)"/>
            <path id="Path_15944" d="M448.448 96.153V121.3a2.293 2.293 0 0 1-2.286 2.286h-3.429a2.293 2.293 0 0 0 2.286-2.286V96.153a2.293 2.293 0 0 0-2.286-2.286h3.429a2.293 2.293 0 0 1 2.286 2.286z" class="cls-4" data-name="Path 15944" transform="translate(-386.734 -81.296)"/>
            <path id="Path_15945" d="M84.927 148.39v.183H63.3A4.57 4.57 0 0 0 58.733 144v-11.428A4.57 4.57 0 0 0 63.3 128h21.627a10.194 10.194 0 1 0 0 20.389z" class="cls-3" data-name="Path 15945" transform="translate(-54.162 -110.858)"/>
            <path id="Path_15946" d="M280.694 132.572V144a4.57 4.57 0 0 0-4.571 4.572h-21.806v-.183a10.194 10.194 0 0 0 10.16-9.451c.023-.24.034-.491.034-.743A10.2 10.2 0 0 0 254.409 128h21.714a4.57 4.57 0 0 0 4.571 4.571z" class="cls-3" data-name="Path 15946" transform="translate(-223.551 -110.858)"/>
            <path id="Path_15947" d="M277.266 132.572V144a4.57 4.57 0 0 0-4.572 4.572h-18.377v-.183a10.194 10.194 0 0 0 10.16-9.451c.023-.24.034-.491.034-.743A10.2 10.2 0 0 0 254.409 128h18.286a4.57 4.57 0 0 0 4.571 4.571z" class="cls-3" data-name="Path 15947" transform="translate(-223.551 -110.858)"/>
            <path id="Path_15949" d="M179.344 426.668H202.2a1.143 1.143 0 0 1 1.143 1.143v8a1.143 1.143 0 0 1-1.143 1.143h-22.856a1.143 1.143 0 0 1-1.143-1.143v-8a1.143 1.143 0 0 1 1.143-1.143z" class="cls-3" data-name="Path 15949" transform="translate(-157.629 -369.526)"/>
            <path id="Path_15950" d="M179.344 426.668h19.429a1.143 1.143 0 0 1 1.143 1.143v8a1.143 1.143 0 0 1-1.143 1.143h-19.429a1.143 1.143 0 0 1-1.143-1.143v-8a1.143 1.143 0 0 1 1.143-1.143z" class="cls-3" data-name="Path 15950" transform="translate(-157.629 -369.526)"/>
            <path id="Path_15951" d="M184.97 191.162v18.286s0 8-5.714 11.428h-20.572s-5.109-9.2-5.657-16h18.149a10.293 10.293 0 0 1 6.926-3.429.011.011 0 0 0 .008 0 .011.011 0 0 0 0-.008v-10.277a3.429 3.429 0 1 1 6.857 0z" class="cls-3" data-name="Path 15951" transform="translate(-135.827 -162.59)"/>
            <path id="Path_15952" d="M181.541 194.118V212.4s0 8-5.714 11.428h-17.143s-5.109-9.2-5.657-16h18.149a10.293 10.293 0 0 1 6.924-3.428.012.012 0 0 0 .008 0 .011.011 0 0 0 0-.008v-10.274a3.424 3.424 0 0 1 1.714-2.971 3.785 3.785 0 0 1 .709.549 3.422 3.422 0 0 1 1.01 2.422z" class="cls-3" data-name="Path 15952" transform="translate(-135.827 -165.546)"/>
        </g>
        <g id="Group_3606" data-name="Group 3606">
            <path id="Path_15953" d="M55.727 1.34a4.569 4.569 0 0 0-7.8 3.231v1.777a4.522 4.522 0 0 0-2.286-.634 4.576 4.576 0 0 0-4.571 4.571v1.143H20.5a3.432 3.432 0 0 0-3.429 3.429V40a3.432 3.432 0 0 0 3.429 3.428h13.9c.7 5.123 3.444 11.054 4.846 13.831a2.281 2.281 0 0 0-1.6 2.169v6.857a2.288 2.288 0 0 0 2.286 2.286h22.85a2.288 2.288 0 0 0 2.286-2.286v-6.857a2.271 2.271 0 0 0-.811-1.732C68.44 53.6 68.5 47.166 68.5 46.856v-3.428h9.143A3.432 3.432 0 0 0 81.068 40V14.857a3.432 3.432 0 0 0-3.429-3.429H63.925a4.54 4.54 0 0 0-6.857-3.936V4.571a4.539 4.539 0 0 0-1.341-3.231zm-5.516 3.231a2.286 2.286 0 0 1 4.571 0v6.857h-4.571V4.571zm-6.857 5.714a2.286 2.286 0 0 1 4.572 0v1.143h-4.572v-1.143zm-3.429 56v-6.857h22.857v6.857zm26.286-19.43c0 .073-.09 7.155-4.924 10.287H41.753c-1.012-1.929-4.236-8.372-5.056-13.714H51.46A11.273 11.273 0 0 0 50.211 48a1.141 1.141 0 0 0 1.138 1.141A1.145 1.145 0 0 0 52.5 48c0-.286.15-7.014 8.142-8.013a1.1 1.1 0 0 0 .2-.063.876.876 0 0 0 .431-.247c.011-.011.025-.017.036-.029a1.13 1.13 0 0 0 .335-.795V28.571a2.286 2.286 0 0 1 4.572 0v18.284zm-37.83-10.284a5.731 5.731 0 0 0-4.456-4.456v-9.374a5.731 5.731 0 0 0 4.456-4.456H42.23a11.354 11.354 0 0 0 0 18.286H28.381zm28.768-2.678a1.142 1.142 0 0 0-1.616 0 9.108 9.108 0 0 1-2.907 1.96 9.146 9.146 0 1 1 0-16.85 9.107 9.107 0 0 1 2.907 1.96 1.143 1.143 0 0 0 1.616-1.616 11.485 11.485 0 0 0-1.243-1.062h13.849a5.731 5.731 0 0 0 4.456 4.456v9.374a5.731 5.731 0 0 0-4.456 4.456H68.5v-8a4.571 4.571 0 0 0-9.143 0v8h-3.451a11.485 11.485 0 0 0 1.243-1.062 1.142 1.142 0 0 0 0-1.616zm20.49-20.179a1.144 1.144 0 0 1 1.143 1.143V40a1.144 1.144 0 0 1-1.143 1.143H68.5v-2.287h2.286a1.143 1.143 0 0 0 1.143-1.143 3.432 3.432 0 0 1 3.429-3.429 1.143 1.143 0 0 0 1.142-1.142V21.713a1.143 1.143 0 0 0-1.143-1.143 3.432 3.432 0 0 1-3.429-3.429A1.143 1.143 0 0 0 70.782 16H27.354a1.143 1.143 0 0 0-1.143 1.143 3.432 3.432 0 0 1-3.429 3.429 1.143 1.143 0 0 0-1.143 1.143v11.427a1.143 1.143 0 0 0 1.143 1.143 3.432 3.432 0 0 1 3.429 3.429 1.143 1.143 0 0 0 1.143 1.143h28.9a10.161 10.161 0 0 0-3.185 2.286H20.5A1.144 1.144 0 0 1 19.354 40V14.857a1.144 1.144 0 0 1 1.146-1.143zM59.354 9.142a2.29 2.29 0 0 1 2.286 2.286h-4.572a2.288 2.288 0 0 1 2.286-2.286z" data-name="Path 15953" transform="translate(-17.068 .001)"/>
            <path id="Path_15955" d="M86.476 179.2a1.143 1.143 0 0 0-1.143 1.143v4.571a1.143 1.143 0 1 0 2.286 0v-4.571a1.143 1.143 0 0 0-1.143-1.143z" data-name="Path 15955" transform="translate(-76.19 -155.201)"/>
            <path id="Path_15956" d="M410.745 186.058a1.143 1.143 0 0 0 1.143-1.143v-4.571a1.143 1.143 0 0 0-2.286 0v4.571a1.143 1.143 0 0 0 1.143 1.143z" data-name="Path 15956" transform="translate(-357.031 -155.201)"/>
        </g>
    </g>
</svg>
