<svg xmlns="http://www.w3.org/2000/svg" width="80" height="80" viewBox="0 0 80 80">
    <defs>
        <style>
            .cls-1{fill:none}.cls-2{clip-path:url(#clip-path)}.cls-3{fill:#33b5a5}.cls-4{fill:#42c8b7}.cls-5{fill:#fff}
        </style>
        <clipPath id="clip-path">
            <path id="Rectangle_11933" d="M0 0h80v80H0z" class="cls-1" data-name="Rectangle 11933" transform="translate(1466 811)"/>
        </clipPath>
    </defs>
    <g id="Mask_Group_55" class="cls-2" data-name="Mask Group 55" transform="translate(-1466 -811)">
        <g id="Group_9517" data-name="Group 9517" transform="translate(1439.509 595.371)">
            <path id="Path_32451" d="M51.418 222.086h30.025a4.617 4.617 0 0 1 4.618 4.618v57.738a4.618 4.618 0 0 1-4.618 4.619H51.418a4.618 4.618 0 0 1-4.618-4.619V226.7a4.617 4.617 0 0 1 4.618-4.614z" class="cls-3" data-name="Path 32451" transform="translate(.094 .097)"/>
            <path id="Path_32452" d="M51.418 222.086h26.56A4.618 4.618 0 0 1 82.6 226.7v57.738a4.619 4.619 0 0 1-4.619 4.619H51.418a4.618 4.618 0 0 1-4.618-4.619V226.7a4.617 4.617 0 0 1 4.618-4.614z" class="cls-4" data-name="Path 32452" transform="translate(.094 .097)"/>
            <g id="Group_9511" data-name="Group 9511" transform="translate(46.894 231.198)">
                <path id="Path_32453" d="M51.418 230.412h30.025a4.618 4.618 0 0 1 4.618 4.619v42.726a4.618 4.618 0 0 1-4.618 4.619H51.418a4.618 4.618 0 0 1-4.618-4.619v-42.726a4.618 4.618 0 0 1 4.618-4.619z" class="cls-5" data-name="Path 32453" transform="translate(-46.8 -230.412)"/>
            </g>
            <g id="Group_9512" data-name="Group 9512" transform="translate(45.665 220.912)">
                <path id="Path_32454" d="M82.019 290.345H51.03a5.371 5.371 0 0 1-5.365-5.365v-58.7a5.372 5.372 0 0 1 5.365-5.366h30.989a5.372 5.372 0 0 1 5.365 5.366v58.7a5.371 5.371 0 0 1-5.365 5.365zM51.03 223.37a2.912 2.912 0 0 0-2.908 2.908v58.7a2.912 2.912 0 0 0 2.908 2.908h30.989a2.912 2.912 0 0 0 2.908-2.908v-58.7a2.912 2.912 0 0 0-2.908-2.908z" data-name="Path 32454" transform="translate(-45.665 -220.912)"/>
            </g>
            <g id="Group_9513" data-name="Group 9513" transform="translate(45.665 230.15)">
                <path id="Path_32455" d="M82.518 283.685H50.531a4.871 4.871 0 0 1-4.866-4.866V234.31a4.871 4.871 0 0 1 4.866-4.866h31.987a4.871 4.871 0 0 1 4.866 4.866v44.509a4.871 4.871 0 0 1-4.866 4.866zM50.531 231.9a2.413 2.413 0 0 0-2.409 2.409v44.509a2.413 2.413 0 0 0 2.409 2.409h31.987a2.412 2.412 0 0 0 2.409-2.409V234.31a2.412 2.412 0 0 0-2.409-2.409z" data-name="Path 32455" transform="translate(-45.665 -229.444)"/>
            </g>
            <g id="Group_9516" data-name="Group 9516" transform="translate(58.905 225.532)">
                <g id="Group_9514" data-name="Group 9514" transform="translate(4.91)">
                    <path id="Path_32456" d="M72.757 227.636h-9.1a1.228 1.228 0 1 1 0-2.457h9.1a1.228 1.228 0 1 1 0 2.457z" data-name="Path 32456" transform="translate(-62.427 -225.179)"/>
                </g>
                <g id="Group_9515" data-name="Group 9515">
                    <rect id="Rectangle_11870" width="2.457" height="2.457" data-name="Rectangle 11870" rx="1.135"/>
                </g>
            </g>
            <g id="Group_5297" data-name="Group 5297" transform="translate(54.651 245.307)">
                <path id="Shape" d="M77.279 263.164a.38.38 0 0 1-.65.237l-1.116-1.119h-.008l-.495-.5a.449.449 0 0 0-.067-.052.372.372 0 0 0-.353-.028l-1.5.638a.467.467 0 0 0-.134.1.529.529 0 0 0-.064.1l-.653 1.516a.377.377 0 0 0 .079.418l1.623 1.62a.379.379 0 0 1-.241.649 3.793 3.793 0 0 1-2.909-1.108 3.638 3.638 0 0 1-.511-.633 3.82 3.82 0 0 1-.471-3.036.779.779 0 0 0-.194-.737l-3.7-3.7-2.356-2.355-3.7-3.7a.377.377 0 0 0-.079-.064.765.765 0 0 0-.656-.13 3.8 3.8 0 0 1-3.671-.982 3.671 3.671 0 0 1-.511-.632 3.817 3.817 0 0 1-.6-2.277.377.377 0 0 1 .574-.3.268.268 0 0 1 .075.055l.507.507 1.113 1.116a.373.373 0 0 0 .419.079l1.517-.653a.594.594 0 0 0 .1-.063.454.454 0 0 0 .103-.13l.638-1.5a.377.377 0 0 0-.079-.419l-1.619-1.619a.381.381 0 0 1-.005-.537.39.39 0 0 1 .243-.113 3.8 3.8 0 0 1 3.891 4.779.776.776 0 0 0 .195.736l4.315 4.316 5.438 5.434a.773.773 0 0 0 .736.194 3.8 3.8 0 0 1 4.777 3.893z" class="cls-5" transform="translate(-53.933 -243.412)"/>
                <path id="Shape-2" d="M76.1 262a.379.379 0 0 1-.578.293h-.008a.489.489 0 0 1-.064-.051l-.5-.5a.373.373 0 0 0-.419-.079l-1.5.638a.462.462 0 0 0-.134.094.572.572 0 0 0-.064.1l-.653 1.517a.373.373 0 0 0 .079.419l.5.5a.38.38 0 0 1-.241.65 3.8 3.8 0 0 1-2.234-.571 3.812 3.812 0 0 1-.471-3.037.778.778 0 0 0-.194-.736l-3.7-3.7-2.357-2.357-3.7-3.7c-.024-.023.428.4.4.387l-1.109-1.11a.778.778 0 0 0-.736-.194 5.348 5.348 0 0 1-3.474-.891 3.81 3.81 0 0 1-.6-2.277.378.378 0 0 1 .4-.352.384.384 0 0 1 .173.055l.507.507a.336.336 0 0 0 .074.055l1.114 1.117a.377.377 0 0 0 .419.079l1.519-.655a.529.529 0 0 0 .1-.064.467.467 0 0 0 .1-.134l.325-1.03c.063-.143.344-.78.234-.891l-1.622-1.62a.379.379 0 0 1 .238-.65 3.753 3.753 0 0 1 2.234.57 5.136 5.136 0 0 1 .951 3.438.777.777 0 0 0 .194.737l9.276 9.355a.437.437 0 0 0 .079.063l1.11 1.11a.778.778 0 0 0 .735.193 3.82 3.82 0 0 1 2.995.445A3.77 3.77 0 0 1 76.1 262z" class="cls-5" transform="translate(-53.933 -243.412)"/>
                <path id="Shape-3" d="M65.647 255.711l-1.111-1.111 10.281-10.283a.41.41 0 0 1 .1-.075l.8-.4a.394.394 0 0 1 .454.074l.157.157a.393.393 0 0 1 .074.454l-.4.8a.425.425 0 0 1-.075.1z" class="cls-5" transform="translate(-53.089 -243.412)"/>
                <path id="Shape-4" d="M66.939 256.627l-.931.118a.393.393 0 0 0-.31.31l-.2 1.013a.363.363 0 0 1-.106.2l-7.041 7.041a2.349 2.349 0 0 1-3.322.008l-.008-.008a2.309 2.309 0 0 1-.4-.523 2.356 2.356 0 0 1 .4-2.808l7.04-7.04a.349.349 0 0 1 .2-.106l1.012-.2a.392.392 0 0 0 .311-.31l.118-.931a.392.392 0 0 1 .663-.2l2.776 2.776a.392.392 0 0 1-.2.664z" class="cls-3" transform="translate(-53.934 -242.645)"/>
                <path id="Shape-5" d="M66.186 255.81l-.931.117a.393.393 0 0 0-.31.311l-.2 1.012a.356.356 0 0 1-.106.2l-7.042 7.041a2.345 2.345 0 0 1-2.973.3 2.359 2.359 0 0 1 .4-2.809l7.042-7.04a.349.349 0 0 1 .2-.106l1.012-.2a.392.392 0 0 0 .311-.31l.118-.931a.392.392 0 0 1 .663-.2l2.116 2.116a.393.393 0 0 1-.251.495.359.359 0 0 1-.043.011z" class="cls-4" transform="translate(-53.934 -242.645)"/>
                <rect id="Rectangle-path" width="10.861" height="1.571" class="cls-5" rx=".685" transform="rotate(-45 26.167 8.522)"/>
                <path id="Shape-6" d="M56.712 266.422a2.749 2.749 0 0 1-1.944-4.693l7.04-7.04a.784.784 0 0 1 .4-.214l1.017-.2.115-.9a.793.793 0 0 1 .547-.625.784.784 0 0 1 .783.2l2.775 2.776a.785.785 0 0 1-.4 1.325l-.958.123-.175 1.011a.785.785 0 0 1-.214.4l-7.041 7.04a2.737 2.737 0 0 1-1.945.797zm7.4-12.926l-.116.9a.793.793 0 0 1-.62.644l-1.016.2-7.039 7.039a1.963 1.963 0 0 0 2.777 2.776l7.04-7.038.2-1.016a.784.784 0 0 1 .616-.617l.957-.125z" transform="translate(-53.964 -242.675)"/>
                <path id="Shape-7" d="M56.593 264.605a1.178 1.178 0 0 1-.833-2.011l6.567-6.567a1.178 1.178 0 0 1 1.666 1.666l-6.568 6.567a1.165 1.165 0 0 1-.832.345zm6.568-8.139a.392.392 0 0 0-.278.115l-6.567 6.569a.392.392 0 0 0 0 .554.4.4 0 0 0 .557 0l6.567-6.568a.393.393 0 0 0-.277-.67z" transform="translate(-53.844 -242.429)"/>
                <path id="Shape-8" d="M65.677 256.134a.387.387 0 0 1-.277-.115l-1.111-1.111a.392.392 0 0 1 0-.555l10.281-10.28a.767.767 0 0 1 .2-.148l.8-.4a.784.784 0 0 1 .907.148l.155.154a.786.786 0 0 1 .148.907l-.4.8a.782.782 0 0 1-.147.2l-10.279 10.288a.39.39 0 0 1-.277.112zm-.557-1.5l.557.557 10-10 .4-.8-.156-.157-.8.4z" transform="translate(-53.119 -243.442)"/>
                <path id="Shape-9" d="M68.746 260.591a.392.392 0 0 1-.277-.115l-3.669-3.667a.394.394 0 0 1 .557-.557l3.668 3.667a.393.393 0 0 1-.278.67z" transform="translate(-53.077 -242.392)"/>
                <path id="Shape-10" d="M70.78 258.647a.394.394 0 0 1-.278-.115l-4.28-4.28a.394.394 0 1 1 .557-.557l4.279 4.281a.393.393 0 0 1-.277.67z" transform="translate(-52.959 -242.603)"/>
                <path id="Shape-11" d="M63.516 255.505a.392.392 0 0 1-.276-.115l-3.668-3.668a.373.373 0 0 0-.353-.089 4.162 4.162 0 0 1-5.232-4.264.748.748 0 0 1 .486-.668.773.773 0 0 1 .826.172l1.606 1.61 1.488-.652.625-1.477-1.6-1.591a.775.775 0 0 1-.172-.828.745.745 0 0 1 .667-.486 4.159 4.159 0 0 1 4.261 5.232.379.379 0 0 0 .093.354l4.276 4.279a.394.394 0 0 1-.557.557L61.7 249.59a1.17 1.17 0 0 1-.295-1.107 3.373 3.373 0 0 0-3.455-4.249l1.625 1.58a.764.764 0 0 1 .156.854l-.628 1.481a.788.788 0 0 1-.4.4l-1.51.651a.77.77 0 0 1-.85-.161l-1.606-1.61A3.5 3.5 0 0 0 55.756 250a3.39 3.39 0 0 0 3.261.872 1.17 1.17 0 0 1 1.105.291l3.671 3.672a.393.393 0 0 1-.277.67z" transform="translate(-53.963 -243.442)"/>
                <path id="Shape-12" d="M72.653 266.327a4.162 4.162 0 0 1-4.024-5.24.38.38 0 0 0-.094-.354l-3.664-3.664a.394.394 0 0 1 .557-.557l3.667 3.667a1.166 1.166 0 0 1 .295 1.105 3.379 3.379 0 0 0 3.457 4.251l-1.627-1.58a.761.761 0 0 1-.16-.853l.646-1.5a.8.8 0 0 1 .4-.4l1.5-.637a.768.768 0 0 1 .848.162l1.606 1.606a3.492 3.492 0 0 0-1.008-2.568 3.411 3.411 0 0 0-3.266-.871 1.17 1.17 0 0 1-1.105-.291l-4.282-4.284a.394.394 0 1 1 .557-.557l4.279 4.282a.376.376 0 0 0 .353.09 4.157 4.157 0 0 1 5.222 4.266.744.744 0 0 1-.485.663.775.775 0 0 1-.828-.173l-1.606-1.607-1.474.638-.638 1.494 1.6 1.59a.771.771 0 0 1 .174.827.748.748 0 0 1-.669.487q-.114.008-.231.008z" transform="translate(-53.071 -242.597)"/>
                <path id="Shape-13" d="M65.75 253.617a.392.392 0 0 1-.277-.115l-4.281-4.28a.394.394 0 0 1 .557-.557l4.279 4.281a.393.393 0 0 1-.277.67z" transform="translate(-53.375 -243.019)"/>
                <path id="Shape-14" d="M63.147 254.991a.392.392 0 0 1-.277-.115l-3.67-3.667a.394.394 0 0 1 .557-.557l3.668 3.667a.392.392 0 0 1-.278.67z" transform="translate(-53.54 -242.855)"/>
            </g>
        </g>
    </g>
</svg>
