<svg xmlns="http://www.w3.org/2000/svg" width="305" height="265" viewBox="0 0 305 265">
    <defs>
        <style>
            .cls-1,.cls-10,.cls-11,.cls-12,.cls-13,.cls-2{fill:none}.cls-1{stroke:#707070}.cls-3{clip-path:url(#clip-path)}.cls-4,.cls-5{fill:#42c8b7}.cls-4{opacity:.15}.cls-6{fill:#fff}.cls-7{fill:#efefef}.cls-8{fill:#174159}.cls-9{fill:#1abea3}.cls-10,.cls-11,.cls-12,.cls-13{stroke:#fff}.cls-10,.cls-12,.cls-13{stroke-miterlimit:10}.cls-10{stroke-width:.816px}.cls-11{stroke-width:.626px}.cls-12,.cls-13{stroke-width:.47px}.cls-13{stroke-linecap:round}.cls-14{clip-path:url(#clip-path-2)}.cls-15{fill:#2e546a}.cls-16{fill:#f2f2f2}.cls-17{fill:#983be9}.cls-18{fill:#e2e2e2}.cls-19{fill:#bec8d2}.cls-20{fill:#5793ce}
        </style>
        <clipPath id="clip-path">
            <path id="Path_33351" d="M0 0h305v265H0z" class="cls-1" data-name="Path 33351" transform="translate(28 2127)"/>
        </clipPath>
        <clipPath id="clip-path-2">
            <path id="Path_33178" d="M352.819 309.491c28.7-82.562 2.994-119.972-3.477-133.552-7.583-15.914-24.829-18.767-31.027-24.118-17-14.677-80.665 23.058-102.331 17.145-11.145-3.042-23.082-1.292-34.134 2.074-36.543 11.128-67.261 41.166-77.166 78.06s2.376 79.35 31.8 103.714c20.416 16.905 63.616 60.016 90.116 60.48 47.97.84 51.61-32.426 115.992-51.646 14.4-4.3-12.2-16.912-.393-26.206 3.096-2.434 9.322-22.216 10.62-25.951z" class="cls-2" data-name="Path 33178" transform="translate(-101.309 -148.406)"/>
        </clipPath>
    </defs>
    <g id="Mask_Group_62" class="cls-3" data-name="Mask Group 62" transform="translate(-28 -2127)">
        <g id="Group_9980" data-name="Group 9980" transform="translate(30 2125.213)">
            <path id="Path_32976" d="M390.489 367.727a18.631 18.631 0 0 0-9.826-31.017c-51.658-10.835-90.264-42.353-123.482-87.55-12.768-17.373-24.981-38.06-45.781-43.734-10.7-2.921-22.159-1.24-32.769 1.991-35.081 10.683-64.57 39.519-74.079 74.937s2.281 76.176 30.526 99.565c19.6 16.229 45.111 23.562 70.3 27.155a291.381 291.381 0 0 0 138.413-13.967c13.584-4.848 26.963-10.8 38.3-19.727a78.054 78.054 0 0 0 8.398-7.653z" class="cls-4" data-name="Path 32976" transform="translate(-98.015 -182.952)"/>
            <g id="Group_9940" data-name="Group 9940" transform="translate(75.633 99.684)">
                <g id="Group_9938" data-name="Group 9938">
                    <path id="Path_32977" d="M347.357 458v-2.917h-.551a6.637 6.637 0 0 0-2.492-2.331 16.236 16.236 0 0 0-14.691 0 6.634 6.634 0 0 0-2.492 2.331h-.55v2.9c-.007 1.54 1.006 3.081 3.042 4.257a16.234 16.234 0 0 0 14.69 0c2.03-1.166 3.044-2.701 3.044-4.24z" class="cls-5" data-name="Path 32977" transform="translate(-326.581 -449.09)"/>
                    <ellipse id="Ellipse_1778" cx="10.388" cy="5.997" class="cls-5" data-name="Ellipse 1778" rx="10.388" ry="5.997"/>
                    <path id="Path_32978" d="M344.334 467.792a16.235 16.235 0 0 1-14.69 0c-1.944-1.122-2.946-2.579-3.027-4.05-.088 1.6.915 3.212 3.027 4.432a16.235 16.235 0 0 0 14.69 0c2.113-1.22 3.114-2.834 3.027-4.431-.081 1.47-1.083 2.927-3.027 4.049z" class="cls-6" data-name="Path 32978" transform="translate(-326.601 -457.554)"/>
                </g>
                <g id="Group_9939" data-name="Group 9939" transform="translate(5.107 3.154)">
                    <path id="Path_32979" d="M342.066 459.534a.467.467 0 0 1-.274-.383l.01-3.907c0-.3.42-.539.936-.539s.933.242.933.541l-.009 3.24 9.4-1.151c.505-.062 1 .124 1.109.416s-.216.578-.721.64l-10.534 1.29a1.481 1.481 0 0 1-.783-.109l-.067-.038z" class="cls-6" data-name="Path 32979" transform="translate(-341.792 -454.705)"/>
                </g>
            </g>
            <g id="Group_9948" data-name="Group 9948" transform="translate(84.268 28.346)">
                <path id="Path_32980" d="M383.459 439.652l-21.373-12.34c-.743-.429-.65-1.178.208-1.674a3.221 3.221 0 0 1 2.9-.12l21.373 12.34c.743.429.65 1.178-.208 1.674a3.221 3.221 0 0 1-2.9.12z" class="cls-7" data-name="Path 32980" transform="translate(-358.466 -360.633)"/>
                <path id="Path_32981" d="M383.1 246.48l-23.029-13.3a1.846 1.846 0 0 0-1.964-.12v-.005l-2.889 1.674 1.938.362c-.006.1-.012.2-.012.3v54.316a7.013 7.013 0 0 0 2.929 5.6l22.705 13.111c-.207.649-.647 2.013-.647 2.013l2.826-1.639a2.539 2.539 0 0 0 1.074-2.4v-54.317a7.013 7.013 0 0 0-2.931-5.595z" class="cls-8" data-name="Path 32981" transform="translate(-354.235 -232.833)"/>
                <path id="Path_32982" d="M360.95 321.086a7.013 7.013 0 0 0 2.929 5.6l22.705 13.111c-.207.649-.647 2.013-.647 2.013l2.826-1.639a2.539 2.539 0 0 0 1.074-2.4v-54.322a7.279 7.279 0 0 0-.93-3.385L360.95 296.2z" class="cls-8" data-name="Path 32982" transform="translate(-358.045 -264.206)"/>
                <path id="Path_32983" d="M378.255 313.613l-23.029-13.3a7.013 7.013 0 0 1-2.928-5.6V240.4c0-2.156 1.311-3.148 2.928-2.214l23.029 13.3a7.013 7.013 0 0 1 2.928 5.6V311.4c.001 2.156-1.31 3.147-2.928 2.213z" class="cls-5" data-name="Path 32983" transform="translate(-352.298 -236.158)"/>
                <path id="Path_32984" d="M380.752 250.916l-23.029-13.3a1.786 1.786 0 0 0-2.118-.01 1.917 1.917 0 0 1 1.818.2l23.029 13.3a7.013 7.013 0 0 1 2.928 5.6v54.316a2.8 2.8 0 0 1-.81 2.224 2.505 2.505 0 0 0 1.11-2.416v-54.318a7.013 7.013 0 0 0-2.928-5.596z" class="cls-6" data-name="Path 32984" transform="translate(-354.495 -235.779)"/>
                <path id="Path_32985" d="M380.247 314.958l-22.129-12.779a5.213 5.213 0 0 1-2.177-4.159v-53.545c0-1.6.975-2.34 2.177-1.645l22.129 12.778a5.214 5.214 0 0 1 2.177 4.159v53.545c0 1.603-.975 2.34-2.177 1.646z" class="cls-6" data-name="Path 32985" transform="translate(-354.719 -239.3)"/>
                <path id="Path_32986" d="M380.429 314.985L358.3 302.206a5.213 5.213 0 0 1-2.177-4.159V244.5a1.9 1.9 0 0 1 .789-1.78c-.585.182-.971.847-.971 1.855v53.545a5.213 5.213 0 0 0 2.177 4.159l22.129 12.778a1.41 1.41 0 0 0 1.388.135 1.508 1.508 0 0 1-1.206-.207z" class="cls-9" data-name="Path 32986" transform="translate(-354.719 -239.402)"/>
                <g id="Group_9943" data-name="Group 9943" transform="translate(21.262 67.502)">
                    <g id="Group_9941" data-name="Group 9941">
                        <path id="Path_32987" d="M421.794 442.027l-3.695-2.133a.712.712 0 0 1-.3-.568v-2.747c0-.219.133-.32.3-.225l3.695 2.133a.713.713 0 0 1 .3.568v2.745c-.002.222-.136.322-.3.227z" class="cls-7" data-name="Path 32987" transform="translate(-417.071 -435.501)"/>
                        <path id="Path_32988" d="M420.207 436.052l-3.695-2.133a.189.189 0 0 0-.191-.015l-.359.207.252.092v2.691a.711.711 0 0 0 .3.568l3.532 2.039v.316l.362-.208a.264.264 0 0 0 .1-.237v-2.752a.712.712 0 0 0-.301-.568z" class="cls-8" data-name="Path 32988" transform="translate(-415.85 -433.884)"/>
                        <path id="Path_32989" d="M419.618 440.217l-3.695-2.133a.712.712 0 0 1-.3-.568v-2.747c0-.219.133-.32.3-.225l3.695 2.133a.712.712 0 0 1 .3.568v2.748c-.002.218-.135.318-.3.224z" class="cls-8" data-name="Path 32989" transform="translate(-415.626 -434.298)"/>
                        <path id="Path_32990" d="M419.751 436.678l-3.695-2.133a.175.175 0 0 0-.23.015.224.224 0 0 1 .131.034l3.695 2.133a.712.712 0 0 1 .3.568v2.747a.3.3 0 0 1-.067.209c.1-.008.166-.1.166-.258v-2.748a.713.713 0 0 0-.3-.567z" class="cls-6" data-name="Path 32990" transform="translate(-415.759 -434.299)"/>
                    </g>
                    <g id="Group_9942" data-name="Group 9942" transform="translate(1.041 2.373)">
                        <path id="Path_32991" d="M419.227 441.416c0 .159-.112.224-.249.144a.551.551 0 0 1-.249-.432c0-.159.112-.224.249-.144a.551.551 0 0 1 .249.432z" class="cls-6" data-name="Path 32991" transform="translate(-418.728 -440.95)"/>
                        <path id="Path_32992" d="M421.476 442.715c0 .159-.111.223-.249.144a.552.552 0 0 1-.249-.432c0-.159.112-.223.249-.144a.55.55 0 0 1 .249.432z" class="cls-6" data-name="Path 32992" transform="translate(-420.222 -441.813)"/>
                        <path id="Path_32993" d="M423.726 444.014c0 .159-.112.223-.249.144a.55.55 0 0 1-.249-.432c0-.159.111-.223.249-.144a.552.552 0 0 1 .249.432z" class="cls-6" data-name="Path 32993" transform="translate(-421.716 -442.676)"/>
                    </g>
                </g>
                <g id="Group_9946" data-name="Group 9946" transform="translate(10.043 25.524)">
                    <g id="Group_9945" data-name="Group 9945">
                        <g id="Group_9944" data-name="Group 9944">
                            <path id="Path_32994" d="M393.957 330.9l-7.036-4.062a1.356 1.356 0 0 1-.566-1.082v-11.77c0-.417.253-.609.566-.428l7.036 4.062a1.356 1.356 0 0 1 .566 1.082v11.774c0 .417-.253.608-.566.424z" class="cls-7" data-name="Path 32994" transform="translate(-384.964 -311.933)"/>
                            <path id="Path_32995" d="M390.935 312.983l-7.035-4.063a.359.359 0 0 0-.364-.029l-.682.395.479.175v11.666a1.356 1.356 0 0 0 .566 1.081l6.725 3.883v.6l.69-.4a.5.5 0 0 0 .191-.451v-11.776a1.356 1.356 0 0 0-.57-1.081z" class="cls-9" data-name="Path 32995" transform="translate(-382.637 -308.855)"/>
                            <path id="Path_32996" d="M389.813 327.456l-7.036-4.062a1.356 1.356 0 0 1-.566-1.081v-11.775c0-.417.253-.609.566-.428l7.036 4.062a1.356 1.356 0 0 1 .566 1.082v11.774c0 .417-.253.608-.566.428z" class="cls-5" data-name="Path 32996" transform="translate(-382.211 -309.643)"/>
                            <path id="Path_32997" d="M390.066 314.174l-7.036-4.062a.333.333 0 0 0-.438.029.425.425 0 0 1 .25.064l7.036 4.062a1.356 1.356 0 0 1 .566 1.082v11.774a.574.574 0 0 1-.128.4c.187-.015.316-.195.316-.492v-11.775a1.356 1.356 0 0 0-.566-1.082z" class="cls-6" data-name="Path 32997" transform="translate(-382.464 -309.646)"/>
                            <g id="Group_5597" data-name="Group 5597" transform="translate(1.545 3.408)">
                                <g id="Group_5587" data-name="Group 5587">
                                    <g id="Group_5582" data-name="Group 5582">
                                        <g id="Group_5583" data-name="Group 5583">
                                            <g id="Rectangle_11049" data-name="Rectangle 11049">
                                                <path id="Path_32998" d="M387.444 319.1l3.535 1.979a1.28 1.28 0 0 1 .631.984v8.037c0 .349-.282.473-.631.278l-3.535-1.979a1.279 1.279 0 0 1-.631-.984v-8.038c0-.35.287-.477.631-.277z" class="cls-10" data-name="Path 32998" transform="translate(-386.813 -319.005)"/>
                                                <path id="Path_32999" d="M387.652 319.441l3.535 1.979a1.067 1.067 0 0 1 .526.82v8.038c0 .29-.235.394-.526.231l-3.535-1.979a1.066 1.066 0 0 1-.526-.82v-8.038c0-.29.235-.394.526-.231z" class="cls-11" data-name="Path 32999" transform="translate(-387.021 -319.243)"/>
                                            </g>
                                            <path id="Path_20948" d="M392.795 322.086c-.072.144-.249.166-.446.055l-1.171-.656a1.036 1.036 0 0 1-.451-.557" class="cls-12" data-name="Path 20948" transform="translate(-389.413 -320.283)"/>
                                            <path id="Line_651" d="M0 0l1.162.65" class="cls-13" data-name="Line 651" transform="translate(1.84 9.623)"/>
                                        </g>
                                    </g>
                                </g>
                            </g>
                        </g>
                    </g>
                </g>
                <g id="Group_9947" data-name="Group 9947" transform="translate(4.454 40.73)">
                    <path id="Path_33000" d="M386.226 370.773l-15.5-8.949a4.352 4.352 0 0 1-1.817-3.472c0-1.338.814-1.953 1.817-1.374l15.5 8.949a4.353 4.353 0 0 1 1.817 3.472c0 1.339-.814 1.954-1.817 1.374z" class="cls-7" data-name="Path 33000" transform="translate(-367.786 -355.882)"/>
                    <path id="Path_33001" d="M386.595 366.783a4.352 4.352 0 0 0-1.817-3.472l-15.5-8.949a1.148 1.148 0 0 0-1.213-.078l-.763.446.351.04a2.243 2.243 0 0 0-.193.971 4.352 4.352 0 0 0 1.817 3.472l15.5 8.949a1.576 1.576 0 0 0 .562.205l-.094.311.753-.439h-.006a1.63 1.63 0 0 0 .603-1.456z" class="cls-9" data-name="Path 33001" transform="translate(-366.718 -354.145)"/>
                    <path id="Path_33002" d="M382.88 369.441l-15.5-8.949a4.351 4.351 0 0 1-1.817-3.472c0-1.338.814-1.953 1.817-1.374l15.5 8.949a4.352 4.352 0 0 1 1.817 3.472c.003 1.333-.813 1.953-1.817 1.374z" class="cls-5" data-name="Path 33002" transform="translate(-365.563 -354.997)"/>
                    <path id="Path_33003" d="M384.359 364.3l-15.5-8.949a1.114 1.114 0 0 0-1.3-.017 1.183 1.183 0 0 1 1.148.117l15.5 8.949a4.352 4.352 0 0 1 1.817 3.472 1.724 1.724 0 0 1-.516 1.391 1.573 1.573 0 0 0 .67-1.492 4.352 4.352 0 0 0-1.819-3.471z" class="cls-6" data-name="Path 33003" transform="translate(-366.888 -354.8)"/>
                </g>
                <path id="Path_33004" d="M386.627 371.787l-11.581-6.677v-1.482l11.581 6.677z" class="cls-6" data-name="Path 33004" transform="translate(-367.409 -319.714)"/>
            </g>
            <g id="Group_9979" data-name="Group 9979">
                <g id="Group_9978" class="cls-14" data-name="Group 9978">
                    <g id="Group_9955" data-name="Group 9955" transform="translate(38.066 4.186)">
                        <path id="Path_33005" d="M607.025 263.37L499.9 201.523a4.323 4.323 0 0 0-3.63-.445l.006-.011-.195.073-.047.018-3.871 1.481 3.474 1.7c-.015.064-.036.123-.05.189l-17.448 79.424c-.873 3.975.876 8.615 3.906 10.365l104.545 60.359-.372 4.43 4.231-1.64a5.945 5.945 0 0 0 3.03-4.31l17.448-79.424c.873-3.972-.872-8.613-3.902-10.362z" class="cls-8" data-name="Path 33005" transform="translate(-387.155 -187.103)"/>
                        <path id="Path_33006" d="M618.9 263.37l-107.123-61.847a4.323 4.323 0 0 0-3.63-.445l.007-.011-.195.073-.047.018-3.871 1.481 3.474 1.7c-.015.064-.036.123-.05.189l-11.5 52.345 52.413 40.835 73.9-30.071a8.313 8.313 0 0 0-3.378-4.267z" class="cls-8" data-name="Path 33006" transform="translate(-399.029 -187.103)"/>
                        <path id="Path_33007" d="M828.034 396.9l8.154-3.472a10.214 10.214 0 0 0-3.3-8.165l-12.908 5.43z" class="cls-8" data-name="Path 33007" transform="translate(-612.203 -308.427)"/>
                        <path id="Path_33008" d="M569.67 361.56l-107.122-61.846c-3.03-1.75-4.779-6.39-3.906-10.365l17.448-79.424c.873-3.975 4.038-5.779 7.068-4.029l107.122 61.847c3.03 1.75 4.779 6.39 3.906 10.365l-17.448 79.424c-.873 3.974-4.038 5.778-7.068 4.028z" class="cls-6" data-name="Path 33008" transform="translate(-374.325 -189.976)"/>
                        <path id="Path_33009" d="M632.76 266.657l-107.122-61.846a4.234 4.234 0 0 0-4.218-.183 4.4 4.4 0 0 1 3.19.56l107.121 61.846c3.031 1.75 4.779 6.391 3.906 10.365l-17.448 79.424a6.034 6.034 0 0 1-2.85 4.212c1.809-.4 3.318-2.035 3.879-4.588l17.448-79.424c.873-3.975-.876-8.616-3.906-10.366z" class="cls-6" data-name="Path 33009" transform="translate(-415.775 -189.268)"/>
                        <path id="Path_33010" d="M575.819 366.856l-100.746-58.137c-2.773-1.6-4.373-5.847-3.574-9.484l15.966-72.68c.8-3.637 3.695-5.288 6.468-3.687L594.68 281c2.773 1.6 4.373 5.847 3.574 9.485l-15.966 72.679c-.8 3.642-3.696 5.293-6.469 3.692z" class="cls-6" data-name="Path 33010" transform="translate(-382.796 -201.18)"/>
                        <path id="Path_33011" d="M575.819 366.856l-100.746-58.137c-2.773-1.6-4.373-5.847-3.574-9.484l15.966-72.68c.8-3.637 3.695-5.288 6.468-3.687L594.68 281c2.773 1.6 4.373 5.847 3.574 9.485l-15.966 72.679c-.8 3.642-3.696 5.293-6.469 3.692z" class="cls-5" data-name="Path 33011" transform="translate(-382.796 -201.18)"/>
                        <path id="Path_33012" d="M576.7 366.72l-100.748-58.137c-2.773-1.6-4.373-5.847-3.574-9.484l15.967-72.68a5.577 5.577 0 0 1 2.539-3.826c-1.6.411-2.917 1.908-3.417 4.183l-15.967 72.68c-.8 3.637.8 7.884 3.574 9.485l100.746 58.137a3.873 3.873 0 0 0 3.929.139 4.018 4.018 0 0 1-3.049-.497z" class="cls-9" data-name="Path 33012" transform="translate(-382.796 -201.401)"/>
                        <path id="Path_33013" d="M409.42 559.161l-14.643-1.933-94.522-54.573c-3.03-1.749-8.323-1.53-11.823.49L221.454 541.8l-8.854-1.169v5.024h.009a3.448 3.448 0 0 0 2.033 3.1l107.122 61.847c3.03 1.749 8.324 1.53 11.823-.49l72.942-42.1c1.968-1.137 2.95-2.6 2.892-3.976z" class="cls-8" data-name="Path 33013" transform="translate(-212.596 -384.884)"/>
                        <path id="Path_33014" d="M338.4 561.849l-6.716-3.877h-73.832l-36.4 21-8.852-1.172v5.024h.009a3.448 3.448 0 0 0 2.033 3.1l107.122 61.847a11.085 11.085 0 0 0 6.1 1.144z" class="cls-8" data-name="Path 33014" transform="translate(-212.596 -422.054)"/>
                        <path id="Path_33015" d="M216.529 616.464l-3.929-.519v5.024h.009a3.448 3.448 0 0 0 2.033 3.1l1.888 1.09z" class="cls-8" data-name="Path 33015" transform="translate(-212.596 -460.196)"/>
                        <path id="Path_33016" d="M534.872 799.217a13.722 13.722 0 0 0 10.045-.624v-11.205h-10.045z" class="cls-8" data-name="Path 33016" transform="translate(-424.626 -572.993)"/>
                        <path id="Path_33017" d="M321.755 589.572l-107.122-61.847c-3.03-1.749-2.65-4.805.849-6.826l72.942-42.1c3.5-2.02 8.792-2.24 11.823-.49l107.122 61.847c3.03 1.749 2.65 4.806-.849 6.826l-72.942 42.1c-3.5 2.018-8.793 2.24-11.823.49z" class="cls-6" data-name="Path 33017" transform="translate(-212.587 -368.866)"/>
                        <path id="Path_33018" d="M406.532 634.967l-72.942 42.1c-3.5 2.02-8.792 2.24-11.823.491L214.646 615.71a3.984 3.984 0 0 1-1.884-2.061c-.474 1.433.13 2.883 1.884 3.9l107.122 61.847c3.03 1.75 8.324 1.53 11.823-.49l72.942-42.1c2.352-1.358 3.287-3.183 2.732-4.765a5.693 5.693 0 0 1-2.733 2.926z" class="cls-6" data-name="Path 33018" transform="translate(-212.6 -458.686)"/>
                        <g id="Group_9949" data-name="Group 9949" transform="translate(42.497 112.072)">
                            <path id="Path_33019" d="M341.928 551.349l-4.847-2.8c-.389-.225-.34-.617.109-.876l5.721-3.3a1.688 1.688 0 0 1 1.518-.063l4.847 2.8c.389.224.34.617-.109.876l-5.721 3.3a1.688 1.688 0 0 1-1.518.063z" class="cls-15" data-name="Path 33019" transform="translate(-336.818 -525.037)"/>
                            <path id="Path_33020" d="M363.808 563.982l-4.847-2.8c-.389-.224-.34-.617.109-.876l5.721-3.3a1.688 1.688 0 0 1 1.518-.063l4.847 2.8c.389.225.34.617-.109.877l-5.721 3.3a1.687 1.687 0 0 1-1.518.062z" class="cls-15" data-name="Path 33020" transform="translate(-351.214 -533.348)"/>
                            <path id="Path_33021" d="M385.69 576.615l-4.847-2.8c-.389-.225-.34-.617.109-.876l5.721-3.3a1.688 1.688 0 0 1 1.518-.063l4.847 2.8c.389.225.34.617-.109.877l-5.721 3.3a1.687 1.687 0 0 1-1.518.062z" class="cls-15" data-name="Path 33021" transform="translate(-365.61 -541.66)"/>
                            <path id="Path_33022" d="M415.952 567.2l-4.847-2.8c-.389-.225-.34-.617.109-.876l4.8-2.773a1.688 1.688 0 0 1 1.518-.063l4.847 2.8c.389.225.34.617-.109.876l-4.8 2.773a1.689 1.689 0 0 1-1.518.063z" class="cls-15" data-name="Path 33022" transform="translate(-385.521 -535.816)"/>
                            <path id="Path_33023" d="M437.833 579.835l-4.847-2.8c-.389-.224-.34-.617.109-.876l4.8-2.773a1.688 1.688 0 0 1 1.518-.063l4.847 2.8c.389.225.34.617-.109.876l-4.8 2.773a1.688 1.688 0 0 1-1.518.063z" class="cls-15" data-name="Path 33023" transform="translate(-399.916 -544.127)"/>
                            <path id="Path_33024" d="M459.714 592.468l-4.847-2.8c-.389-.225-.34-.617.109-.876l4.8-2.773a1.687 1.687 0 0 1 1.518-.063l4.847 2.8c.389.225.34.617-.109.876l-4.8 2.773a1.688 1.688 0 0 1-1.518.063z" class="cls-15" data-name="Path 33024" transform="translate(-414.312 -552.439)"/>
                            <path id="Path_33025" d="M481.595 605.1l-4.847-2.8c-.389-.225-.34-.617.109-.876l4.8-2.773a1.689 1.689 0 0 1 1.518-.063l4.847 2.8c.389.225.34.617-.109.876l-4.8 2.773a1.688 1.688 0 0 1-1.518.063z" class="cls-15" data-name="Path 33025" transform="translate(-428.708 -560.75)"/>
                            <path id="Path_33026" d="M503.476 617.734l-4.847-2.8c-.389-.225-.34-.617.109-.876l4.8-2.773a1.687 1.687 0 0 1 1.518-.063l4.847 2.8c.389.224.34.617-.109.876l-4.8 2.773a1.687 1.687 0 0 1-1.518.063z" class="cls-15" data-name="Path 33026" transform="translate(-443.104 -569.062)"/>
                            <path id="Path_33027" d="M525.357 630.367l-4.847-2.8c-.389-.225-.34-.617.109-.876l4.8-2.773a1.688 1.688 0 0 1 1.518-.063l4.847 2.8c.389.225.34.617-.109.876l-4.8 2.773a1.688 1.688 0 0 1-1.518.063z" class="cls-15" data-name="Path 33027" transform="translate(-457.5 -577.374)"/>
                            <path id="Path_33028" d="M547.238 643l-4.847-2.8c-.389-.225-.34-.617.109-.876l4.8-2.773a1.688 1.688 0 0 1 1.519-.063l4.847 2.8c.389.225.34.617-.109.877l-4.8 2.773a1.686 1.686 0 0 1-1.519.062z" class="cls-15" data-name="Path 33028" transform="translate(-471.896 -585.685)"/>
                            <path id="Path_33029" d="M569.118 655.633l-4.847-2.8c-.389-.225-.34-.617.109-.876l4.8-2.773a1.688 1.688 0 0 1 1.518-.063l4.847 2.8c.389.224.34.617-.109.876l-4.8 2.773a1.687 1.687 0 0 1-1.518.063z" class="cls-15" data-name="Path 33029" transform="translate(-486.292 -593.996)"/>
                            <path id="Path_33030" d="M591 668.266l-4.846-2.8c-.389-.225-.34-.617.109-.877l4.8-2.773a1.688 1.688 0 0 1 1.518-.063l4.847 2.8c.389.225.34.617-.109.877l-4.8 2.773a1.687 1.687 0 0 1-1.519.063z" class="cls-15" data-name="Path 33030" transform="translate(-500.688 -602.308)"/>
                            <path id="Path_33031" d="M612.88 680.9l-4.847-2.8c-.389-.225-.34-.617.109-.876l4.8-2.773a1.688 1.688 0 0 1 1.518-.063l4.847 2.8c.389.225.34.617-.109.877l-4.8 2.773a1.687 1.687 0 0 1-1.518.062z" class="cls-15" data-name="Path 33031" transform="translate(-515.084 -610.619)"/>
                            <path id="Path_33032" d="M448.192 561.221l-4.846-2.8c-.389-.225-.34-.617.109-.877l4.8-2.773a1.687 1.687 0 0 1 1.518-.063l4.847 2.8c.389.225.34.617-.109.877l-4.8 2.773a1.688 1.688 0 0 1-1.519.063z" class="cls-15" data-name="Path 33032" transform="translate(-406.732 -531.881)"/>
                            <path id="Path_33033" d="M425.984 548.4l-4.847-2.8c-.389-.225-.34-.617.109-.877l4.8-2.772a1.688 1.688 0 0 1 1.518-.063l4.847 2.8c.389.225.34.617-.109.877l-4.8 2.773a1.686 1.686 0 0 1-1.518.062z" class="cls-15" data-name="Path 33033" transform="translate(-392.121 -523.445)"/>
                            <path id="Path_33034" d="M392.986 529.348l-10.439-6.027c-.389-.225-.34-.617.109-.877l4.8-2.773a1.686 1.686 0 0 1 1.518-.063l10.439 6.027c.389.225.34.617-.109.877l-4.8 2.773a1.688 1.688 0 0 1-1.518.063z" class="cls-15" data-name="Path 33034" transform="translate(-366.731 -508.787)"/>
                            <path id="Path_33035" d="M412.318 515.915l-8.471-4.891c-.389-.225-.34-.617.109-.876l4.8-2.773a1.688 1.688 0 0 1 1.518-.063l8.472 4.891c.389.225.34.617-.109.876l-4.8 2.773a1.688 1.688 0 0 1-1.519.063z" class="cls-15" data-name="Path 33035" transform="translate(-380.745 -500.696)"/>
                            <path id="Path_33036" d="M470.073 573.854l-4.847-2.8c-.389-.224-.341-.617.109-.876l4.8-2.773a1.687 1.687 0 0 1 1.518-.063l4.847 2.8c.389.225.34.617-.109.876l-4.8 2.773a1.688 1.688 0 0 1-1.518.063z" class="cls-15" data-name="Path 33036" transform="translate(-421.128 -540.192)"/>
                            <path id="Path_33037" d="M491.954 586.487l-4.847-2.8c-.389-.224-.34-.617.109-.876l4.8-2.773a1.687 1.687 0 0 1 1.518-.063l4.847 2.8c.389.225.34.617-.109.876l-4.8 2.773a1.688 1.688 0 0 1-1.518.063z" class="cls-15" data-name="Path 33037" transform="translate(-435.524 -548.504)"/>
                            <path id="Path_33038" d="M513.835 599.12l-4.847-2.8c-.389-.225-.34-.617.109-.876l4.8-2.773a1.689 1.689 0 0 1 1.518-.063l4.847 2.8c.389.225.34.617-.109.876l-4.8 2.773a1.688 1.688 0 0 1-1.518.063z" class="cls-15" data-name="Path 33038" transform="translate(-449.92 -556.815)"/>
                            <path id="Path_33039" d="M535.716 611.753l-4.847-2.8c-.389-.224-.34-.617.109-.877l4.8-2.773a1.688 1.688 0 0 1 1.518-.063l4.847 2.8c.389.225.34.617-.109.876l-4.8 2.773a1.687 1.687 0 0 1-1.518.064z" class="cls-15" data-name="Path 33039" transform="translate(-464.316 -565.127)"/>
                            <path id="Path_33040" d="M557.6 624.386l-4.847-2.8c-.389-.225-.34-.617.109-.876l4.8-2.773a1.688 1.688 0 0 1 1.518-.063l4.847 2.8c.389.225.34.617-.109.876l-4.8 2.773a1.689 1.689 0 0 1-1.518.063z" class="cls-15" data-name="Path 33040" transform="translate(-478.712 -573.438)"/>
                            <path id="Path_33041" d="M579.477 637.019l-4.847-2.8c-.389-.225-.34-.617.109-.876l4.8-2.773a1.689 1.689 0 0 1 1.518-.063l4.847 2.8c.389.225.34.617-.109.876l-4.8 2.773a1.688 1.688 0 0 1-1.518.063z" class="cls-15" data-name="Path 33041" transform="translate(-493.107 -581.75)"/>
                            <path id="Path_33042" d="M601.359 649.652l-4.847-2.8c-.389-.225-.34-.617.109-.876l4.8-2.773a1.687 1.687 0 0 1 1.518-.063l4.847 2.8c.389.224.34.617-.109.876l-4.8 2.773a1.687 1.687 0 0 1-1.518.063z" class="cls-15" data-name="Path 33042" transform="translate(-507.504 -590.061)"/>
                            <path id="Path_33043" d="M623.24 662.285l-4.847-2.8c-.389-.225-.34-.617.109-.876l4.8-2.773a1.689 1.689 0 0 1 1.518-.063l4.847 2.8c.389.224.34.617-.109.876l-4.8 2.773a1.688 1.688 0 0 1-1.518.063z" class="cls-15" data-name="Path 33043" transform="translate(-521.9 -598.373)"/>
                            <path id="Path_33044" d="M645.12 674.918l-4.847-2.8c-.389-.225-.34-.617.109-.876l4.8-2.773a1.688 1.688 0 0 1 1.518-.063l4.846 2.8c.389.225.341.617-.109.877l-4.8 2.773a1.687 1.687 0 0 1-1.517.062z" class="cls-15" data-name="Path 33044" transform="translate(-536.296 -606.684)"/>
                            <path id="Path_33045" d="M673 691.015l-10.575-6.106c-.389-.225-.34-.617.109-.876l4.8-2.773a1.688 1.688 0 0 1 1.518-.063l10.575 6.106c.389.225.341.617-.109.877l-4.8 2.773a1.686 1.686 0 0 1-1.518.062z" class="cls-15" data-name="Path 33045" transform="translate(-550.87 -615.099)"/>
                            <path id="Path_33046" d="M718.773 668.252l-8.926-5.153c-.389-.225-.34-.617.109-.877l4.8-2.773a1.689 1.689 0 0 1 1.518-.063l8.926 5.154c.389.225.34.617-.109.877l-4.8 2.773a1.687 1.687 0 0 1-1.518.062z" class="cls-15" data-name="Path 33046" transform="translate(-582.07 -600.749)"/>
                            <path id="Path_33047" d="M508.391 571.382l-4.847-2.8c-.389-.225-.34-.617.109-.877l4.8-2.773a1.687 1.687 0 0 1 1.519-.063l4.847 2.8c.389.225.34.617-.109.877l-4.8 2.773a1.688 1.688 0 0 1-1.519.063z" class="cls-15" data-name="Path 33047" transform="translate(-446.338 -538.566)"/>
                            <path id="Path_33048" d="M485.966 558.436l-4.846-2.8c-.389-.224-.341-.617.109-.876l4.8-2.773a1.687 1.687 0 0 1 1.518-.063l4.847 2.8c.389.225.34.617-.109.876l-4.8 2.773a1.688 1.688 0 0 1-1.519.063z" class="cls-15" data-name="Path 33048" transform="translate(-431.584 -530.048)"/>
                            <path id="Path_33049" d="M463.541 545.488l-4.847-2.8c-.389-.225-.34-.617.109-.876l4.8-2.773a1.689 1.689 0 0 1 1.518-.063l4.847 2.8c.389.224.34.617-.109.876l-4.8 2.773a1.689 1.689 0 0 1-1.518.063z" class="cls-15" data-name="Path 33049" transform="translate(-416.83 -521.53)"/>
                            <path id="Path_33050" d="M441.116 532.541l-4.847-2.8c-.389-.225-.34-.617.109-.876l4.8-2.773a1.688 1.688 0 0 1 1.518-.063l4.847 2.8c.389.224.34.617-.109.876l-4.8 2.773a1.688 1.688 0 0 1-1.518.063z" class="cls-15" data-name="Path 33050" transform="translate(-402.076 -513.011)"/>
                            <path id="Path_33051" d="M530.272 584.016l-4.847-2.8c-.389-.225-.34-.617.109-.877l4.8-2.773a1.687 1.687 0 0 1 1.519-.063l4.847 2.8c.389.225.34.617-.109.877l-4.8 2.773a1.687 1.687 0 0 1-1.519.063z" class="cls-15" data-name="Path 33051" transform="translate(-460.734 -546.878)"/>
                            <path id="Path_33052" d="M552.153 596.648l-4.847-2.8c-.389-.225-.341-.617.109-.877l4.8-2.773a1.687 1.687 0 0 1 1.518-.063l4.847 2.8c.389.225.34.617-.109.876l-4.8 2.773a1.688 1.688 0 0 1-1.518.064z" class="cls-15" data-name="Path 33052" transform="translate(-475.13 -555.189)"/>
                            <path id="Path_33053" d="M574.034 609.281l-4.847-2.8c-.389-.225-.34-.618.109-.877l4.8-2.772a1.686 1.686 0 0 1 1.518-.063l4.847 2.8c.389.225.34.617-.109.877l-4.8 2.773a1.688 1.688 0 0 1-1.518.062z" class="cls-15" data-name="Path 33053" transform="translate(-489.526 -563.501)"/>
                            <path id="Path_33054" d="M595.915 621.914l-4.847-2.8c-.389-.224-.34-.617.109-.876l4.8-2.773a1.687 1.687 0 0 1 1.518-.063l4.847 2.8c.389.225.34.617-.109.876l-4.8 2.773a1.687 1.687 0 0 1-1.518.063z" class="cls-15" data-name="Path 33054" transform="translate(-503.922 -571.812)"/>
                            <path id="Path_33055" d="M617.8 634.548l-4.847-2.8c-.389-.225-.34-.617.109-.877l4.8-2.773a1.686 1.686 0 0 1 1.518-.063l4.847 2.8c.389.225.34.617-.109.876l-4.8 2.773a1.688 1.688 0 0 1-1.518.064z" class="cls-15" data-name="Path 33055" transform="translate(-518.318 -580.124)"/>
                            <path id="Path_33056" d="M639.677 647.18l-4.847-2.8c-.389-.225-.34-.617.109-.876l4.8-2.772a1.688 1.688 0 0 1 1.518-.063l4.847 2.8c.389.225.34.617-.109.876l-4.8 2.773a1.688 1.688 0 0 1-1.518.062z" class="cls-15" data-name="Path 33056" transform="translate(-532.714 -588.435)"/>
                            <path id="Path_33057" d="M661.557 659.813l-4.847-2.8c-.389-.224-.34-.617.109-.876l4.8-2.773a1.688 1.688 0 0 1 1.518-.063l4.847 2.8c.389.225.34.617-.109.876l-4.8 2.773a1.687 1.687 0 0 1-1.518.063z" class="cls-15" data-name="Path 33057" transform="translate(-547.11 -596.747)"/>
                            <path id="Path_33058" d="M683.438 672.446l-4.847-2.8c-.389-.225-.34-.617.109-.876l4.8-2.77a1.688 1.688 0 0 1 1.518-.063l4.847 2.8c.389.225.34.617-.109.876l-4.8 2.773a1.689 1.689 0 0 1-1.518.06z" class="cls-15" data-name="Path 33058" transform="translate(-561.506 -605.058)"/>
                            <path id="Path_33059" d="M705.32 685.079l-4.847-2.8c-.389-.225-.34-.617.109-.876l4.8-2.773a1.69 1.69 0 0 1 1.519-.063l4.847 2.8c.389.225.34.617-.109.876l-4.8 2.772a1.687 1.687 0 0 1-1.519.064z" class="cls-15" data-name="Path 33059" transform="translate(-575.902 -613.37)"/>
                            <path id="Path_33060" d="M496.869 540.136l-4.847-2.8c-.389-.225-.34-.617.109-.877l4.8-2.773a1.688 1.688 0 0 1 1.518-.063l4.847 2.8c.389.225.34.617-.109.877l-4.8 2.773a1.686 1.686 0 0 1-1.518.063z" class="cls-15" data-name="Path 33060" transform="translate(-438.758 -518.008)"/>
                            <path id="Path_33061" d="M475.1 527.566l-4.847-2.8c-.389-.225-.34-.617.109-.877l4.8-2.772a1.687 1.687 0 0 1 1.518-.063l4.847 2.8c.389.225.34.617-.109.877l-4.8 2.773a1.686 1.686 0 0 1-1.518.062z" class="cls-15" data-name="Path 33061" transform="translate(-424.434 -509.738)"/>
                            <path id="Path_33062" d="M453.326 515l-4.847-2.8c-.389-.225-.34-.617.109-.877l4.8-2.773a1.687 1.687 0 0 1 1.518-.063l4.847 2.8c.389.225.34.617-.109.877l-4.8 2.773a1.687 1.687 0 0 1-1.518.063z" class="cls-15" data-name="Path 33062" transform="translate(-410.109 -501.468)"/>
                            <path id="Path_33063" d="M431.553 502.426l-4.847-2.8c-.389-.225-.34-.617.109-.877l4.8-2.773a1.687 1.687 0 0 1 1.518-.063l4.847 2.8c.389.225.34.617-.109.876l-4.8 2.773a1.688 1.688 0 0 1-1.518.064z" class="cls-15" data-name="Path 33063" transform="translate(-395.785 -493.198)"/>
                            <path id="Path_33064" d="M453.942 493.069l-4.847-2.8c-.389-.225-.34-.617.109-.877l1.588-.916a1.686 1.686 0 0 1 1.518-.063l4.847 2.8c.389.225.34.617-.109.877l-1.587.916a1.688 1.688 0 0 1-1.519.063z" class="cls-15" data-name="Path 33064" transform="translate(-410.515 -488.263)"/>
                            <path id="Path_33065" d="M482.354 509.473l-4.847-2.8c-.389-.225-.34-.617.109-.877l1.588-.916a1.687 1.687 0 0 1 1.518-.063l4.847 2.8c.389.225.34.617-.109.877l-1.588.916a1.687 1.687 0 0 1-1.518.063z" class="cls-15" data-name="Path 33065" transform="translate(-429.208 -499.056)"/>
                            <path id="Path_33066" d="M504.035 521.991l-4.847-2.8c-.389-.224-.34-.617.109-.876l1.588-.917a1.689 1.689 0 0 1 1.518-.063l4.847 2.8c.389.225.34.617-.109.876l-1.588.917a1.687 1.687 0 0 1-1.518.063z" class="cls-15" data-name="Path 33066" transform="translate(-443.472 -507.292)"/>
                            <path id="Path_33067" d="M525.717 534.509l-4.847-2.8c-.389-.225-.34-.617.109-.876l1.588-.917a1.688 1.688 0 0 1 1.518-.063l4.847 2.8c.389.224.34.617-.109.876l-1.587.917a1.688 1.688 0 0 1-1.519.063z" class="cls-15" data-name="Path 33067" transform="translate(-457.737 -515.527)"/>
                            <path id="Path_33068" d="M547.4 547.027l-4.846-2.8c-.389-.225-.34-.617.109-.877l1.588-.916a1.688 1.688 0 0 1 1.518-.063l4.847 2.8c.389.225.34.617-.109.877l-1.588.916a1.687 1.687 0 0 1-1.519.063z" class="cls-15" data-name="Path 33068" transform="translate(-472.002 -523.763)"/>
                            <path id="Path_33069" d="M668.442 616.911l-4.847-2.8c-.389-.225-.34-.617.109-.876l1.588-.917a1.689 1.689 0 0 1 1.518-.063l4.847 2.8c.389.225.34.617-.109.876l-1.588.917a1.689 1.689 0 0 1-1.518.063z" class="cls-15" data-name="Path 33069" transform="translate(-551.639 -569.742)"/>
                            <path id="Path_33070" d="M690.123 629.429l-4.847-2.8c-.389-.225-.341-.617.109-.876l1.588-.917a1.688 1.688 0 0 1 1.518-.063l4.847 2.8c.389.225.34.618-.109.877l-1.588.917a1.688 1.688 0 0 1-1.518.062z" class="cls-15" data-name="Path 33070" transform="translate(-565.904 -577.977)"/>
                            <path id="Path_33071" d="M711.8 641.946l-4.847-2.8c-.389-.225-.34-.617.109-.877l1.588-.916a1.687 1.687 0 0 1 1.519-.063l4.847 2.8c.389.225.34.617-.109.877l-1.588.917a1.686 1.686 0 0 1-1.519.062z" class="cls-15" data-name="Path 33071" transform="translate(-580.168 -586.213)"/>
                            <path id="Path_33072" d="M733.485 654.464l-4.847-2.8c-.389-.225-.34-.617.109-.877l1.588-.917a1.687 1.687 0 0 1 1.518-.063l4.847 2.8c.389.225.34.617-.109.876L735 654.4a1.688 1.688 0 0 1-1.515.064z" class="cls-15" data-name="Path 33072" transform="translate(-594.433 -594.449)"/>
                            <path id="Path_33073" d="M518.75 552.768l-4.847-2.8c-.389-.225-.34-.617.109-.877l4.8-2.773a1.687 1.687 0 0 1 1.518-.063l4.847 2.8c.389.225.34.617-.109.877l-4.8 2.772a1.686 1.686 0 0 1-1.518.064z" class="cls-15" data-name="Path 33073" transform="translate(-453.154 -526.319)"/>
                            <path id="Path_33074" d="M540.631 565.4l-4.847-2.8c-.389-.225-.34-.617.109-.877l4.8-2.773a1.688 1.688 0 0 1 1.518-.063l4.847 2.8c.389.225.34.617-.109.877l-4.8 2.773a1.686 1.686 0 0 1-1.518.063z" class="cls-15" data-name="Path 33074" transform="translate(-467.55 -534.631)"/>
                            <path id="Path_33075" d="M562.512 578.034l-4.847-2.8c-.389-.225-.34-.617.109-.877l4.8-2.773a1.687 1.687 0 0 1 1.519-.063l4.847 2.8c.389.225.341.617-.109.877l-4.8 2.773a1.687 1.687 0 0 1-1.519.063z" class="cls-15" data-name="Path 33075" transform="translate(-481.946 -542.943)"/>
                            <path id="Path_33076" d="M584.393 590.667l-4.847-2.8c-.389-.225-.34-.617.109-.877l4.8-2.773a1.687 1.687 0 0 1 1.519-.063l4.847 2.8c.389.225.34.617-.109.877l-4.8 2.773a1.686 1.686 0 0 1-1.519.063z" class="cls-15" data-name="Path 33076" transform="translate(-496.342 -551.254)"/>
                            <path id="Path_33077" d="M606.274 603.3l-4.846-2.8c-.389-.225-.34-.617.109-.877l4.8-2.773a1.688 1.688 0 0 1 1.519-.063l4.846 2.8c.389.225.34.617-.109.877l-4.8 2.773a1.688 1.688 0 0 1-1.519.063z" class="cls-15" data-name="Path 33077" transform="translate(-510.738 -559.566)"/>
                            <path id="Path_33078" d="M628.155 615.934l-4.847-2.8c-.389-.225-.34-.617.109-.877l4.8-2.773a1.686 1.686 0 0 1 1.518-.063l4.847 2.8c.389.225.34.617-.109.877l-4.8 2.773a1.688 1.688 0 0 1-1.518.063z" class="cls-15" data-name="Path 33078" transform="translate(-525.134 -567.877)"/>
                            <path id="Path_33079" d="M650.036 628.566l-4.847-2.8c-.389-.225-.34-.617.109-.877l4.8-2.773a1.686 1.686 0 0 1 1.518-.063l4.847 2.8c.389.225.34.617-.109.876l-4.8 2.773a1.688 1.688 0 0 1-1.518.064z" class="cls-15" data-name="Path 33079" transform="translate(-539.529 -576.189)"/>
                            <path id="Path_33080" d="M671.917 641.2l-4.847-2.8c-.389-.224-.34-.617.109-.876l4.8-2.773a1.686 1.686 0 0 1 1.518-.063l4.847 2.8c.389.225.34.617-.109.877l-4.8 2.773a1.688 1.688 0 0 1-1.518.062z" class="cls-15" data-name="Path 33080" transform="translate(-553.926 -584.5)"/>
                            <path id="Path_33081" d="M693.8 653.832l-4.847-2.8c-.389-.224-.34-.617.109-.876l4.8-2.773a1.687 1.687 0 0 1 1.518-.063l4.847 2.8c.389.225.34.617-.109.876l-4.8 2.773a1.687 1.687 0 0 1-1.518.063z" class="cls-15" data-name="Path 33081" transform="translate(-568.322 -592.812)"/>
                            <path id="Path_33082" d="M375.521 543.86l-14.274-8.241c-.389-.225-.341-.617.109-.876l4.8-2.773a1.688 1.688 0 0 1 1.518-.063l14.275 8.241c.389.225.34.617-.109.877l-4.8 2.773a1.688 1.688 0 0 1-1.519.062z" class="cls-15" data-name="Path 33082" transform="translate(-352.718 -516.877)"/>
                            <path id="Path_33083" d="M644.334 699.059l-14.274-8.241c-.389-.225-.34-.617.109-.877l4.8-2.773a1.687 1.687 0 0 1 1.518-.063l14.274 8.241c.389.225.34.617-.109.876l-4.8 2.773a1.688 1.688 0 0 1-1.518.064z" class="cls-15" data-name="Path 33083" transform="translate(-529.575 -618.986)"/>
                            <path id="Path_33084" d="M574.961 685.891l-4.847-2.8c-.389-.225-.34-.617.109-.876l5.721-3.3a1.688 1.688 0 0 1 1.518-.063l4.847 2.8c.389.225.34.617-.109.877l-5.721 3.3a1.688 1.688 0 0 1-1.518.062z" class="cls-15" data-name="Path 33084" transform="translate(-490.136 -613.555)"/>
                            <path id="Path_33085" d="M410.475 590.925l-7.751-4.475c-.389-.225-.34-.617.109-.876l5.721-3.3a1.687 1.687 0 0 1 1.518-.063l7.751 4.475c.389.225.34.617-.109.876l-5.721 3.3a1.688 1.688 0 0 1-1.518.063z" class="cls-15" data-name="Path 33085" transform="translate(-380.006 -549.971)"/>
                            <path id="Path_33086" d="M548.292 670.494l-7.751-4.475c-.389-.225-.34-.617.109-.877l5.721-3.3a1.687 1.687 0 0 1 1.518-.063l7.751 4.475c.389.225.34.617-.109.877l-5.721 3.3a1.688 1.688 0 0 1-1.518.063z" class="cls-15" data-name="Path 33086" transform="translate(-470.679 -602.321)"/>
                            <path id="Path_33087" d="M442.045 609.152l-7.751-4.475c-.389-.225-.34-.617.109-.877l5.721-3.3a1.688 1.688 0 0 1 1.519-.063l7.751 4.475c.389.225.34.617-.109.877l-5.721 3.3a1.688 1.688 0 0 1-1.519.063z" class="cls-15" data-name="Path 33087" transform="translate(-400.776 -561.963)"/>
                            <path id="Path_33088" d="M442.3 600.814l33.7 19.457a.462.462 0 0 1 0 .874l-5.834 3.368a1.672 1.672 0 0 1-1.514 0l-33.7-19.457z" class="cls-15" data-name="Path 33088" transform="translate(-401.383 -562.313)"/>
                            <path id="Path_33089" d="M638.461 722.391l5.4 3.117c.319.184.279.506-.09.718l-2.34 1.351a1.383 1.383 0 0 1-1.244.052l-5.4-3.117c-.319-.184-.279-.506.09-.719l2.34-1.351a1.383 1.383 0 0 1 1.244-.051z" class="cls-15" data-name="Path 33089" transform="translate(-532.717 -642.219)"/>
                            <path id="Path_33090" d="M616.4 709.653l5.4 3.117c.319.184.279.506-.089.718l-2.34 1.351a1.383 1.383 0 0 1-1.245.052l-5.4-3.117c-.319-.184-.279-.506.089-.719l2.341-1.351a1.382 1.382 0 0 1 1.244-.051z" class="cls-15" data-name="Path 33090" transform="translate(-518.202 -633.838)"/>
                            <path id="Path_33091" d="M594.518 697.02l5.4 3.117c.319.184.279.506-.089.718l-2.34 1.351a1.383 1.383 0 0 1-1.244.052l-5.4-3.117c-.319-.184-.279-.506.089-.718l2.341-1.351a1.382 1.382 0 0 1 1.243-.052z" class="cls-15" data-name="Path 33091" transform="translate(-503.806 -625.527)"/>
                            <path id="Path_33092" d="M628.482 702.677l5.4 3.117c.319.184.279.506-.09.718l-2.34 1.351a1.383 1.383 0 0 1-1.244.052l-5.4-3.117c-.319-.184-.279-.506.09-.719l2.34-1.351a1.383 1.383 0 0 1 1.244-.051z" class="cls-15" data-name="Path 33092" transform="translate(-526.152 -629.249)"/>
                        </g>
                        <g id="Group_9950" data-name="Group 9950" transform="translate(113.797 46.095)">
                            <path id="Path_33093" d="M643.613 407.09l-38-21.941a1.265 1.265 0 0 1-.608-1.341 1.265 1.265 0 0 1 1.873-.85l38 21.942a1.264 1.264 0 0 1 .608 1.341 1.264 1.264 0 0 1-1.873.849z" class="cls-6" data-name="Path 33093" transform="translate(-584.546 -352.892)"/>
                            <path id="Path_33094" d="M624.815 433.537l-25.83-14.913a1.265 1.265 0 0 1-.608-1.341 1.265 1.265 0 0 1 1.873-.85l25.83 14.913a1.264 1.264 0 0 1 .608 1.341 1.264 1.264 0 0 1-1.873.85z" class="cls-16" data-name="Path 33094" transform="translate(-580.188 -374.916)"/>
                            <path id="Path_33095" d="M624.331 414.608L602.3 401.887a1.265 1.265 0 0 1-.608-1.341 1.265 1.265 0 0 1 1.873-.85l22.035 12.721a1.265 1.265 0 0 1 .608 1.341 1.265 1.265 0 0 1-1.877.85z" class="cls-16" data-name="Path 33095" transform="translate(-582.367 -363.904)"/>
                            <path id="Path_33096" d="M695.669 454.592l-12.174-7.029.519-2.621 12.174 7.029z" class="cls-5" data-name="Path 33096" transform="translate(-636.205 -393.784)"/>
                            <path id="Path_33097" d="M567.33 303.445l-9.86-5.692a1.265 1.265 0 0 1-.608-1.341 1.264 1.264 0 0 1 1.873-.85l9.86 5.693a1.264 1.264 0 0 1 .609 1.341 1.265 1.265 0 0 1-1.874.849z" class="cls-16" data-name="Path 33097" transform="translate(-552.875 -295.392)"/>
                            <path id="Path_33098" d="M563.468 321.251l-9.86-5.693a1.265 1.265 0 0 1-.608-1.341 1.265 1.265 0 0 1 1.873-.85l9.86 5.693a1.265 1.265 0 0 1 .608 1.341 1.265 1.265 0 0 1-1.873.85z" class="cls-16" data-name="Path 33098" transform="translate(-550.334 -307.107)"/>
                            <path id="Path_33099" d="M738.139 568.238l-9.86-5.693a1.265 1.265 0 0 1-.608-1.341 1.265 1.265 0 0 1 1.873-.85l9.86 5.693a1.265 1.265 0 0 1 .608 1.341 1.265 1.265 0 0 1-1.873.85z" class="cls-8" data-name="Path 33099" transform="translate(-665.254 -469.605)"/>
                            <path id="Path_33100" d="M555.745 356.865l-9.86-5.693a1.264 1.264 0 0 1-.608-1.341 1.265 1.265 0 0 1 1.873-.85l9.86 5.693a1.264 1.264 0 0 1 .608 1.341 1.264 1.264 0 0 1-1.873.85z" class="cls-16" data-name="Path 33100" transform="translate(-545.253 -330.538)"/>
                        </g>
                        <g id="Group_9951" data-name="Group 9951" transform="translate(148.992 72.577)">
                            <path id="Path_33101" d="M651.269 375.424a1.519 1.519 0 0 1-2.189.674 1.905 1.905 0 0 1-.784-2.39 1.519 1.519 0 0 1 2.189-.674 1.906 1.906 0 0 1 .784 2.39z" class="cls-8" data-name="Path 33101" transform="translate(-648.138 -372.809)"/>
                            <path id="Path_33102" d="M666.6 384.274a1.519 1.519 0 0 1-2.189.674 1.9 1.9 0 0 1-.784-2.39 1.519 1.519 0 0 1 2.189-.674 1.905 1.905 0 0 1 .784 2.39z" class="cls-8" data-name="Path 33102" transform="translate(-658.223 -378.632)"/>
                            <path id="Path_33103" d="M681.927 393.124a1.519 1.519 0 0 1-2.189.674 1.9 1.9 0 0 1-.784-2.39 1.519 1.519 0 0 1 2.189-.674 1.905 1.905 0 0 1 .784 2.39z" class="cls-8" data-name="Path 33103" transform="translate(-668.308 -384.454)"/>
                            <path id="Path_33104" d="M697.255 401.974a1.519 1.519 0 0 1-2.189.674 1.905 1.905 0 0 1-.784-2.39 1.519 1.519 0 0 1 2.189-.674 1.9 1.9 0 0 1 .784 2.39z" class="cls-8" data-name="Path 33104" transform="translate(-678.393 -390.277)"/>
                        </g>
                        <g id="Group_9954" data-name="Group 9954" transform="translate(159.712)">
                            <g id="Group_9952" data-name="Group 9952">
                                <path id="Path_33105" d="M730.238 179.174l-31.6-18.236a1.915 1.915 0 0 0-1.794-.131l.007-.021-3.766 1.77s1.414.494 2.244.787l-4.56 23a4.8 4.8 0 0 0 1.87 4.856l30.2 17.43-.535 2.7 3.8-1.783-.017-.006a2.751 2.751 0 0 0 1.359-2.026l4.655-23.486a4.8 4.8 0 0 0-1.863-4.854z" class="cls-9" data-name="Path 33105" transform="translate(-686.85 -160.642)"/>
                                <path id="Path_33106" d="M713.03 214.675l-31.6-18.236a4.8 4.8 0 0 1-1.871-4.856l4.656-23.486c.371-1.872 1.81-2.731 3.214-1.921l31.6 18.236a4.8 4.8 0 0 1 1.87 4.855l-4.655 23.486c-.372 1.872-1.811 2.733-3.214 1.922z" class="cls-5" data-name="Path 33106" transform="translate(-679.475 -164.083)"/>
                                <path id="Path_33107" d="M732.445 183.6l-31.6-18.236a1.889 1.889 0 0 0-2.074.017 2 2 0 0 1 1.355.265l31.6 18.236a4.8 4.8 0 0 1 1.87 4.856l-4.655 23.486a2.9 2.9 0 0 1-1.14 1.9 2.492 2.492 0 0 0 1.858-2.186l4.656-23.486a4.8 4.8 0 0 0-1.87-4.852z" class="cls-6" data-name="Path 33107" transform="translate(-692.173 -163.548)"/>
                            </g>
                            <g id="Group_9953" data-name="Group 9953" transform="translate(11.084 20.281)">
                                <path id="Path_33108" d="M716.2 223.913a1.67 1.67 0 0 1-2.62 1.23 3.7 3.7 0 0 1-1.644-3.691 1.67 1.67 0 0 1 2.62-1.23 3.705 3.705 0 0 1 1.644 3.691z" class="cls-6" data-name="Path 33108" transform="translate(-711.878 -219.93)"/>
                                <path id="Path_33109" d="M735.077 234.809a1.67 1.67 0 0 1-2.62 1.23 3.706 3.706 0 0 1-1.644-3.691 1.67 1.67 0 0 1 2.62-1.23 3.706 3.706 0 0 1 1.644 3.691z" class="cls-6" data-name="Path 33109" transform="translate(-724.299 -227.099)"/>
                                <path id="Path_33110" d="M753.957 245.706a1.67 1.67 0 0 1-2.62 1.23 3.705 3.705 0 0 1-1.644-3.691 1.67 1.67 0 0 1 2.62-1.23 3.7 3.7 0 0 1 1.644 3.691z" class="cls-6" data-name="Path 33110" transform="translate(-736.721 -234.269)"/>
                            </g>
                        </g>
                    </g>
                    <g id="Group_9964" data-name="Group 9964" transform="translate(164.924 205.313)">
                        <g id="Group_9963" data-name="Group 9963">
                            <g id="Group_9962" data-name="Group 9962">
                                <path id="Path_33111" d="M756.548 748.692a.184.184 0 0 0-.2-.086l-2.545.552 1 1.705 1.72-1.955a.184.184 0 0 0 .025-.216z" class="cls-15" data-name="Path 33111" transform="translate(-695.525 -748.601)"/>
                                <g id="Group_9956" data-name="Group 9956" transform="translate(30.417 .281)">
                                    <path id="Path_33112" d="M740.584 750.49a1.271 1.271 0 0 0-.584-.99.416.416 0 0 0-.382-.047 16.252 16.252 0 0 0-8.369 2.241l-.184.108 3.161 5.378.933-.619a16.252 16.252 0 0 0 4.879-5.058l.4-.652a.416.416 0 0 0 .146-.361z" class="cls-5" data-name="Path 33112" transform="translate(-710.981 -749.423)"/>
                                    <path id="Path_33113" d="M733.64 760.023a4.874 4.874 0 0 0-2.235-3.8c-1.223-.694-2.206-.116-2.2 1.291a4.875 4.875 0 0 0 2.235 3.8c1.229.693 2.212.116 2.2-1.291z" class="cls-15" data-name="Path 33113" transform="translate(-709.76 -753.702)"/>
                                    <path id="Path_33114" d="M678.28 773.435l18.761-11.688-3.161-5.378-19.335 10.711z" class="cls-15" data-name="Path 33114" transform="translate(-673.794 -753.993)"/>
                                    <path id="Path_33115" d="M677.587 792a5.759 5.759 0 0 0-2.641-4.493c-1.446-.82-2.607-.137-2.594 1.525a5.759 5.759 0 0 0 2.641 4.493c1.446.819 2.607.136 2.594-1.525z" class="cls-16" data-name="Path 33115" transform="translate(-672.352 -774.25)"/>
                                </g>
                                <g id="Group_9957" data-name="Group 9957" transform="translate(4.527 13.819)">
                                    <path id="Path_33116" d="M674.458 793.838a5.76 5.76 0 0 0-2.641-4.493c-1.446-.82-2.607-.137-2.594 1.525a5.76 5.76 0 0 0 2.641 4.493c1.446.82 2.607.137 2.594-1.525z" class="cls-16" data-name="Path 33116" transform="translate(-644.403 -788.998)"/>
                                    <path id="Rectangle_11902" d="M0 0h28.79v7.371H0z" class="cls-15" data-name="Rectangle 11902" transform="rotate(-30.447 27.509 6.006)"/>
                                    <path id="Path_33117" d="M601.9 836.487a5.76 5.76 0 0 0-2.641-4.493c-1.446-.82-2.607-.137-2.594 1.525a5.759 5.759 0 0 0 2.641 4.493c1.448.819 2.609.136 2.594-1.525z" class="cls-15" data-name="Path 33117" transform="translate(-596.667 -817.057)"/>
                                    <path id="Path_33118" d="M602.761 838.532a3.8 3.8 0 0 0-1.784-2.729c-.928-.527-1.634-.158-1.577.823a3.805 3.805 0 0 0 1.784 2.729c.928.527 1.634.158 1.577-.823z" class="cls-8" data-name="Path 33118" transform="translate(-598.463 -819.634)"/>
                                </g>
                                <g id="Group_9958" data-name="Group 9958" transform="translate(29.199 12.739)">
                                    <path id="Path_33119" d="M680.15 791.021a5.76 5.76 0 0 0-2.641-4.493 2.036 2.036 0 0 0-1.549-.29 1.662 1.662 0 0 1 2.115-.052 5.76 5.76 0 0 1 2.641 4.493c.008.992-.405 1.632-1.046 1.814a2.058 2.058 0 0 0 .48-1.472z" class="cls-6" data-name="Path 33119" transform="translate(-673.508 -785.841)"/>
                                    <path id="Path_33120" d="M676.877 791.675a5.761 5.761 0 0 0-2.641-4.494 1.832 1.832 0 0 0-1.844-.168l-1.406.827.67 1.14a5.883 5.883 0 0 0 2.395 4.074l.67 1.14 1.406-.826a1.832 1.832 0 0 0 .75-1.693z" class="cls-5" data-name="Path 33120" transform="translate(-670.235 -786.495)"/>
                                    <path id="Path_33121" d="M674.027 794.091a5.761 5.761 0 0 0-2.641-4.493c-1.446-.82-2.607-.137-2.594 1.525a5.76 5.76 0 0 0 2.641 4.493c1.446.82 2.607.137 2.594-1.525z" class="cls-15" data-name="Path 33121" transform="translate(-668.792 -788.085)"/>
                                </g>
                                <g id="Group_9959" data-name="Group 9959" transform="translate(0 30.636)">
                                    <path id="Path_33122" d="M591.09 841.126l-1.612-2.741-5.261 3.092a1.59 1.59 0 0 0-.565 2.177 1.59 1.59 0 0 0 2.177.565z" class="cls-5" data-name="Path 33122" transform="translate(-583.433 -838.308)"/>
                                    <path id="Path_33123" d="M602.419 840.248a2.485 2.485 0 0 0-1.14-1.938c-.624-.354-1.125-.059-1.119.658a2.485 2.485 0 0 0 1.139 1.939c.624.352 1.125.058 1.12-.659z" class="cls-5" data-name="Path 33123" transform="translate(-594.438 -838.159)"/>
                                </g>
                                <g id="Group_9961" data-name="Group 9961" transform="translate(6.727 15.149)">
                                    <path id="Path_33124" d="M610.2 800.785l-.789-.448a1.68 1.68 0 0 0-1.688.181l-2.7 1.589a2.059 2.059 0 0 0-.917 1.618l.01 1.353a1.11 1.11 0 0 1-.272.68l.1.627-.674-.386a.346.346 0 0 1-.161-.329l-.011-1.353a4.29 4.29 0 0 1 1.912-3.373l2.7-1.589a2.388 2.388 0 0 1 2.4-.257l.789.448a1.679 1.679 0 0 0 1.687-.181l10.9-6.4a.351.351 0 0 1 .36-.035l.672.385-.576.221a1.113 1.113 0 0 1-.447.594l-10.9 6.406a2.388 2.388 0 0 1-2.395.249z" class="cls-15" data-name="Path 33124" transform="translate(-603.098 -792.888)"/>
                                    <path id="Path_33125" d="M611.406 801.479a1.679 1.679 0 0 0-1.687.18l-2.7 1.589a2.058 2.058 0 0 0-.917 1.617l.011 1.353a1.115 1.115 0 0 1-.5.877c-.277.163-.5.034-.507-.287l-.011-1.353a4.29 4.29 0 0 1 1.912-3.372l2.7-1.589a2.388 2.388 0 0 1 2.4-.257l.789.448a1.678 1.678 0 0 0 1.687-.181l10.9-6.405c.277-.163.5-.034.507.287a1.115 1.115 0 0 1-.5.877l-10.9 6.405a2.388 2.388 0 0 1-2.4.257z" class="cls-8" data-name="Path 33125" transform="translate(-604.411 -793.638)"/>
                                    <g id="Group_9960" data-name="Group 9960" transform="translate(1.653 11.109)">
                                        <path id="Path_33126" d="M607.93 825.705l.011 1.353v.028a.874.874 0 0 0 .038-.251l-.011-1.353c0-.038.006-.079.009-.118a1.559 1.559 0 0 0-.047.341z" class="cls-6" data-name="Path 33126" transform="translate(-607.93 -825.364)"/>
                                    </g>
                                </g>
                            </g>
                        </g>
                    </g>
                    <g id="Group_9971" data-name="Group 9971" transform="translate(43.272 187.417)">
                        <g id="Group_9970" data-name="Group 9970">
                            <g id="Group_9969" data-name="Group 9969">
                                <path id="Path_33127" d="M238.319 708.465c5.528-3.192 14.491-3.192 20.019 0 2.292 1.323 3.63 2.987 4.022 4.71a7.245 7.245 0 0 1-3.252 4.227 11.6 11.6 0 0 0-1.544-1.062c-5.528-3.192-14.491-3.192-20.019 0-.273.157-.527.321-.772.487a6.74 6.74 0 0 1-2.474-3.652c.389-1.723 1.728-3.387 4.02-4.71z" class="cls-16" data-name="Path 33127" transform="translate(-232.077 -702.723)"/>
                                <path id="Path_33128" d="M261.476 710.694l-2.16-2.816-6.558-3.047-5.65-.5-6.616.81-4.59 2.372-2.932 1.871-.527-3.047.99-3.51s2.507-1.659 2.662-1.813 5.863-2.2 5.863-2.2l5.709-.386 4.59.579 4.667 1.388 3.086 2.16 2.315 2.932.26 3.664z" class="cls-9" data-name="Path 33128" transform="translate(-230.857 -697.694)"/>
                                <path id="Path_33129" d="M227.807 723.713v5.931l1.586-2.572z" class="cls-9" data-name="Path 33129" transform="translate(-227.807 -714.33)"/>
                                <path id="Path_33130" d="M256.555 717.683c-5.528-3.192-14.491-3.192-20.019 0a8.79 8.79 0 0 0-3.575 3.477c-.487-.436-1.114-.778-1.374-1.365a11.151 11.151 0 0 1 3.467-2.968c6.347-3.664 16.637-3.664 22.983 0a11.506 11.506 0 0 1 3.255 2.685 4.857 4.857 0 0 1-1.16 1.652 8.779 8.779 0 0 0-3.577-3.481z" class="cls-9" data-name="Path 33130" transform="translate(-230.294 -707.992)"/>
                                <path id="Path_33131" d="M238.319 708.465c5.528-3.192 14.491-3.192 20.019 0 2.292 1.323 3.63 2.987 4.022 4.71-.391 1.722-1.73 3.387-4.022 4.71-5.528 3.192-14.491 3.192-20.019 0-2.292-1.323-3.63-2.988-4.022-4.71.391-1.723 1.73-3.387 4.022-4.71z" class="cls-16" data-name="Path 33131" transform="translate(-232.077 -702.723)"/>
                                <path id="Path_33132" d="M229.106 725.992a1.961 1.961 0 0 0 .494.641l.005-.062 1.466.874 1.8 1.672 2.494 1.106 3.446 1.234 3.06.72 4.217.18 2.726-.283 5.4-1.414 3.519-3.111c-.029-.062-.052-.125-.083-.187a4.858 4.858 0 0 0 1.16-1.652c.1.119.185.238.271.358l1.234-2.57v6.161-.005c0 2.4-1.581 4.807-4.757 6.64-6.347 3.664-16.636 3.664-22.983 0-4.826-2.786-5.975-6.886-3.469-10.302z" class="cls-9" data-name="Path 33132" transform="translate(-227.813 -714.189)"/>
                                <path id="Path_33133" d="M311.565 728.671l1.269-1.122c-.029-.062-.052-.125-.083-.187a4.858 4.858 0 0 0 1.16-1.652c.1.119.185.238.271.358l1.234-2.57v6.161-.005c0 2.16-1.282 4.319-3.848 6.066z" class="cls-5" data-name="Path 33133" transform="translate(-282.913 -714.189)"/>
                                <path id="Path_33134" d="M232.567 712.3c6.347 3.664 16.636 3.664 22.983 0s6.347-9.6 0-13.269-16.636-3.664-22.983 0-6.346 9.606 0 13.269zm1.482-12.414c5.528-3.192 14.491-3.192 20.019 0s5.528 8.366 0 11.558-14.491 3.192-20.019 0-5.528-8.364 0-11.556z" class="cls-5" data-name="Path 33134" transform="translate(-227.807 -696.284)"/>
                                <g id="Group_9967" data-name="Group 9967" transform="translate(27.977 17.44)">
                                    <g id="Group_9965" data-name="Group 9965">
                                        <path id="Path_33135" d="M320.355 752.683l-9.007-5.241-1.2 1.94 9.048 5.27z" class="cls-16" data-name="Path 33135" transform="translate(-309.959 -747.381)"/>
                                        <path id="Path_33136" d="M335.931 764.1c0 .515.362.724.808.466a1.784 1.784 0 0 0 .807-1.4c0-.515-.362-.724-.807-.466a1.785 1.785 0 0 0-.808 1.4z" class="cls-17" data-name="Path 33136" transform="translate(-326.921 -757.35)"/>
                                        <path id="Path_33137" d="M335.931 764.1c0 .515.362.724.808.466a1.784 1.784 0 0 0 .807-1.4c0-.515-.362-.724-.807-.466a1.785 1.785 0 0 0-.808 1.4z" class="cls-17" data-name="Path 33137" transform="translate(-326.921 -757.35)"/>
                                        <path id="Path_33138" d="M309.592 748.775c0 .515.361.723.807.466a1.785 1.785 0 0 0 .807-1.4c0-.515-.362-.724-.807-.466a1.784 1.784 0 0 0-.807 1.4z" class="cls-16" data-name="Path 33138" transform="translate(-309.592 -747.266)"/>
                                    </g>
                                    <path id="Path_33139" d="M322.978 755.633a7.679 7.679 0 0 1 3.474-6.017 2.407 2.407 0 0 1 2.5-.214L348 760.468l-4.976 8.47-18.842-10.97a1.658 1.658 0 0 1-.362-.211l-.016-.009a2.586 2.586 0 0 1-.826-2.115z" class="cls-15" data-name="Path 33139" transform="translate(-318.399 -748.501)"/>
                                    <path id="Path_33140" d="M351.091 762.813l-21.314-12.306a5.8 5.8 0 0 1 1.148-.892 2.407 2.407 0 0 1 2.5-.214l19.043 11.068z" class="cls-8" data-name="Path 33140" transform="translate(-322.872 -748.501)"/>
                                    <g id="Group_9966" data-name="Group 9966" transform="translate(22.195 10.529)">
                                        <ellipse id="Ellipse_1779" cx="4.913" cy="2.837" class="cls-15" data-name="Ellipse 1779" rx="4.913" ry="2.837" transform="rotate(-59.999 7.37 4.255)"/>
                                        <path id="Path_33141" d="M386.93 793.115a2.263 2.263 0 1 0 2.263-2.263 2.263 2.263 0 0 0-2.263 2.263z" class="cls-8" data-name="Path 33141" transform="translate(-382.67 -786.471)"/>
                                        <circle id="Ellipse_1780" cx=".669" cy=".669" r=".669" class="cls-6" data-name="Ellipse 1780" transform="translate(6.937 5.146)"/>
                                    </g>
                                    <path id="Path_33142" d="M381.408 781.559a2.351 2.351 0 0 1 2.582-.156 2.52 2.52 0 0 0-2.326.3 7.679 7.679 0 0 0-3.474 6.017 2.525 2.525 0 0 0 .892 2.162 2.356 2.356 0 0 1-1.148-2.31 7.679 7.679 0 0 1 3.474-6.013z" class="cls-6" data-name="Path 33142" transform="translate(-354.556 -769.518)"/>
                                </g>
                                <g id="Group_9968" data-name="Group 9968" transform="translate(.005 1.21)">
                                    <path id="Path_33143" d="M238.087 702.215c5.528-3.192 14.491-3.192 20.019 0 2.879 1.662 4.255 3.862 4.135 6.039-.11-2-1.486-3.989-4.135-5.518-5.528-3.192-14.491-3.192-20.019 0-2.649 1.53-4.025 3.515-4.135 5.519-.12-2.178 1.256-4.378 4.135-6.04z" class="cls-6" data-name="Path 33143" transform="translate(-231.849 -699.822)"/>
                                    <path id="Path_33144" d="M232.576 730.848c6.347 3.664 16.636 3.664 22.983 0 3.059-1.766 4.639-4.06 4.749-6.374.119 2.487-1.461 5-4.749 6.9-6.347 3.664-16.636 3.664-22.983 0-3.288-1.9-4.868-4.407-4.749-6.895.11 2.308 1.691 4.603 4.749 6.369z" class="cls-6" data-name="Path 33144" transform="translate(-227.821 -716.04)"/>
                                </g>
                            </g>
                        </g>
                    </g>
                    <g id="Group_9977" data-name="Group 9977" transform="translate(117.448 120.17)">
                        <g id="Group_9976" data-name="Group 9976">
                            <g id="Group_9973" data-name="Group 9973" transform="translate(2.318)">
                                <path id="Path_33145" d="M495.073 873.572s-3.079-1.553-4.969.759-4.593 7.769-4.677 11.456 2.918 3.439 4.7 2.566 7-8.434 7.313-9.916a5.143 5.143 0 0 0-.874-3.877c-.5-.392-1.493-.988-1.493-.988z" class="cls-5" data-name="Path 33145" transform="translate(-473.794 -745.343)"/>
                                <path id="Path_33146" d="M504.381 870.968l.143 3.19a1.808 1.808 0 0 1-.9 1.659 3.549 3.549 0 0 1-2.375.369c-2.319-.372-2.526-1.035-2.692-4.224s5.824-.994 5.824-.994z" class="cls-16" data-name="Path 33146" transform="translate(-482.431 -743.481)"/>
                                <g id="Group_9972" data-name="Group 9972" transform="translate(0 56.731)">
                                    <path id="Path_33147" d="M462.13 855.644s-3.078-1.552-4.969.759-4.593 7.769-4.677 11.456 2.918 3.439 4.7 2.566 7-8.434 7.313-9.916a5.143 5.143 0 0 0-.874-3.877c-.499-.391-1.493-.988-1.493-.988z" class="cls-5" data-name="Path 33147" transform="translate(-452.12 -790.279)"/>
                                    <path id="Path_33148" d="M471.439 853.04l.142 3.189a1.808 1.808 0 0 1-.9 1.659 3.549 3.549 0 0 1-2.375.369c-2.319-.373-2.526-1.036-2.692-4.224s5.825-.993 5.825-.993z" class="cls-16" data-name="Path 33148" transform="translate(-460.758 -788.417)"/>
                                    <path id="Path_33149" d="M489.575 671.61c-.911-14.825-16.055 2.181-16.055 2.181l-10.365 10.159-9.334 10.25a9.2 9.2 0 0 0-2.321 7.4l3.775 28.75a2.826 2.826 0 0 0 2.833 2.456 9.587 9.587 0 0 0 1.4-.122 3.512 3.512 0 0 0 3.119-3.727l-.69-26.89 19.6-11.816s8.949-3.815 8.038-18.641z" class="cls-15" data-name="Path 33149" transform="translate(-451.425 -665.543)"/>
                                </g>
                                <path id="Path_33150" d="M522.518 688.122c-.911-14.825-16.055 2.181-16.055 2.181l-10.363 10.16-9.334 10.253a9.2 9.2 0 0 0-2.318 7.391l3.776 28.75a2.825 2.825 0 0 0 2.833 2.456 9.63 9.63 0 0 0 1.4-.123 3.512 3.512 0 0 0 3.12-3.727l-.671-26.116 19.582-12.589s8.941-3.81 8.03-18.636z" class="cls-15" data-name="Path 33150" transform="translate(-473.098 -619.675)"/>
                                <path id="Path_33151" d="M527.1 557.5c11.481 4.76 11.252 11.547 11.252 11.547s-2.249 24.881-1.482 41.5c.321 6.947-36.908 7.477-31.356-11.056 6.546-21.852 4.093-39.542 7.157-42.21s11.459-1.013 14.429.219z" class="cls-5" data-name="Path 33151" transform="translate(-486.64 -536.642)"/>
                                <path id="Path_33152" d="M558.243 566.821c-.6 2.331-3.655 3.56-6.822 2.744s-5.248-3.367-4.647-5.7 3.655-3.56 6.822-2.744 5.248 3.369 4.647 5.7z" class="cls-16" data-name="Path 33152" transform="translate(-514.089 -539.945)"/>
                                <path id="Path_33153" d="M549.575 584.242l-2.112 2.294a1.391 1.391 0 0 0-.359 1.1l1.452 12.559a1.367 1.367 0 0 1-.272.988l-4.546 5.946a.41.41 0 0 1-.717-.125l-2.475-7.788a1.365 1.365 0 0 1 .026-.9l4.353-11.406a1.392 1.392 0 0 0 .062-.783l-.637-3.024z" class="cls-6" data-name="Path 33153" transform="translate(-510.018 -554.572)"/>
                                <path id="Path_33154" d="M552.323 569.315a8.438 8.438 0 0 1-2.1-.27 7.638 7.638 0 0 1-4.025-2.465 4.392 4.392 0 0 1-1.017-3.9c.675-2.619 4.032-4.028 7.49-3.138s5.717 3.747 5.042 6.367a4.388 4.388 0 0 1-2.775 2.924 7.018 7.018 0 0 1-2.615.482zm-1.75-8.948c-2.132 0-3.914.992-4.325 2.585a3.325 3.325 0 0 0 .8 2.934 6.962 6.962 0 0 0 7.48 1.927 3.324 3.324 0 0 0 2.122-2.18c.524-2.034-1.384-4.291-4.253-5.03a7.342 7.342 0 0 0-1.824-.236z" class="cls-6" data-name="Path 33154" transform="translate(-513.031 -538.894)"/>
                                <path id="Path_33155" d="M556.052 554.758a28.288 28.288 0 0 1-.1 4.1c-.063 1.143 3.942 2.212 4.978 1.177s.621-2.112.87-6-5.748.723-5.748.723z" class="cls-16" data-name="Path 33155" transform="translate(-520.195 -534.418)"/>
                                <path id="Path_33156" d="M561.8 557.029s-.986 3.609-5.848 4.994l.074-3.281z" class="cls-18" data-name="Path 33156" transform="translate(-520.196 -537.418)"/>
                                <circle id="Ellipse_1781" cx="8.838" cy="8.838" r="8.838" class="cls-16" data-name="Ellipse 1781" transform="rotate(-75.592 24.943 -6.848)"/>
                                <path id="Path_33157" d="M541.947 533.531s-4.866 2.084-8.235 2.108-2.627-2.8-2.627-2.8l10-1.445z" class="cls-18" data-name="Path 33157" transform="translate(-503.79 -520.553)"/>
                                <path id="Path_33158" d="M525.319 513.226s4.239-1.8 7.957-1.049a3.9 3.9 0 0 1 2.247 1.335 1.326 1.326 0 0 0 .68.492c.659.15 1.739-2.586 3.02-2.649s2.137.845 1.086 2.527-.7 3.565-.212 3.835 6.469-3.907 1.945-12.869-16.873-3.886-18.66-2.07c0 0-1.883 1.64-3.414.18.001.002-1.716 12.86 5.351 10.268z" class="cls-8" data-name="Path 33158" transform="translate(-496.401 -499.699)"/>
                                <path id="Path_33159" d="M555.482 640.208v6.723a2.74 2.74 0 0 1-.893 2.024l-13.812 12.592 1.569 2.4 19.028-12.477a3.708 3.708 0 0 0 1.511-2.613l1.3-12.477z" class="cls-16" data-name="Path 33159" transform="translate(-510.212 -589.625)"/>
                                <path id="Path_33160" d="M587.3 584.6s4.19 6.3 5.751 22.888c0 0-7.158 2.315-11.22 1S587.3 584.6 587.3 584.6z" class="cls-5" data-name="Path 33160" transform="translate(-536.556 -555.558)"/>
                                <path id="Path_33161" d="M578.193 607.893a116.819 116.819 0 0 0-1.733 12.907 2.634 2.634 0 0 0 1.734 2.544z" class="cls-9" data-name="Path 33161" transform="translate(-533.688 -570.882)"/>
                            </g>
                            <g id="Group_9974" data-name="Group 9974" transform="translate(2.208 66.903)">
                                <path id="Path_33162" d="M492.136 712.379l-3.052-.4-19.706-11.379a2.74 2.74 0 0 0-2.465.1l-13.963 8.059-1.846-.244v1.837a.719.719 0 0 0 .424.647l22.332 12.893a2.74 2.74 0 0 0 2.465-.1l15.207-8.776a1 1 0 0 0 .6-.829z" class="cls-19" data-name="Path 33162" transform="translate(-451.104 -698.616)"/>
                                <path id="Path_33163" d="M477.331 712.939l-1.4-.808h-15.392l-7.588 4.378-1.846-.244v1.835a.718.718 0 0 0 .424.647l22.332 12.893a2.313 2.313 0 0 0 1.272.238z" class="cls-19" data-name="Path 33163" transform="translate(-451.104 -706.366)"/>
                                <path id="Path_33164" d="M451.924 724.325l-.819-.108v1.837a.718.718 0 0 0 .424.647l.393.228z" class="cls-20" data-name="Path 33164" transform="translate(-451.104 -714.317)"/>
                                <path id="Path_33165" d="M518.29 763.214a2.859 2.859 0 0 0 2.094-.13v-3.126h-2.094z" class="cls-19" data-name="Path 33165" transform="translate(-495.306 -737.832)"/>
                                <path id="Path_33166" d="M473.86 718.719l-22.332-12.894c-.632-.365-.553-1 .177-1.423l15.206-8.776a2.74 2.74 0 0 1 2.465-.1l22.332 12.893c.632.365.552 1-.177 1.423l-15.207 8.777a2.74 2.74 0 0 1-2.464.1z" class="cls-6" data-name="Path 33166" transform="translate(-451.102 -695.277)"/>
                                <path id="Path_33167" d="M480.132 725.825L461.563 715.1c-.525-.3-.459-.833.147-1.183l8.149-4.582a2.277 2.277 0 0 1 2.049-.085l18.569 10.721c.525.3.459.833-.147 1.183l-8.149 4.582a2.278 2.278 0 0 1-2.049.089z" class="cls-19" data-name="Path 33167" transform="translate(-457.751 -704.338)"/>
                            </g>
                            <path id="Path_33168" d="M499.157 693.568l-.231 1.541a11.391 11.391 0 0 0 .1 3.951l.275 1.358a1.91 1.91 0 0 0 1.53 1.5 1.053 1.053 0 0 0 1.236-.919l.369-3.294s.843 1.1 1.25 1.1-.455-3.3-1.376-5.166-3.153-.071-3.153-.071z" class="cls-16" data-name="Path 33168" transform="translate(-480.275 -626.74)"/>
                            <path id="Path_33169" d="M504.622 614.524l-2.4 4.743a9.306 9.306 0 0 0-.981 3.6l-1.041 16.222-3.152-.075-1.427-18.214a6.644 6.644 0 0 1 .081-1.684l1.634-9.238z" class="cls-16" data-name="Path 33169" transform="translate(-478.171 -572.186)"/>
                            <g id="Group_9975" data-name="Group 9975" transform="translate(0 57.243)">
                                <path id="Path_33170" d="M469.607 701.379l-1.873-2.445-19.691-11.4a2.738 2.738 0 0 1-1.142-2.187l.017-16.122-1.132-1.478 1.064-.616a.719.719 0 0 1 .772.045L469.94 680.1a2.741 2.741 0 0 1 1.141 2.187l-.019 17.557a1 1 0 0 1-.418.936z" class="cls-19" data-name="Path 33170" transform="translate(-445.397 -667.039)"/>
                                <path id="Path_33171" d="M455.99 692.134l-1.4-.81-7.68-13.339.008-8.761-1.132-1.478 1.064-.616a.719.719 0 0 1 .772.045L469.94 680.1a2.313 2.313 0 0 1 .841.983z" class="cls-19" data-name="Path 33171" transform="translate(-445.397 -667.039)"/>
                                <path id="Path_33172" d="M446.289 668.4l-.5-.656 1.064-.616a.719.719 0 0 1 .772.045l.393.228z" class="cls-19" data-name="Path 33172" transform="translate(-445.397 -667.039)"/>
                                <path id="Path_33173" d="M512.576 705.628a2.861 2.861 0 0 1 .933 1.88l-2.181 1.259-1.045-1.815z" class="cls-19" data-name="Path 33173" transform="translate(-487.831 -692.428)"/>
                                <path id="Path_33174" d="M468.128 681.894l-22.317-12.921c-.631-.366-1.144.021-1.145.863l-.019 17.557a2.74 2.74 0 0 0 1.141 2.187l22.318 12.92c.631.365 1.144-.021 1.145-.863l.019-17.557a2.739 2.739 0 0 0-1.142-2.186z" class="cls-16" data-name="Path 33174" transform="translate(-444.648 -668.221)"/>
                            </g>
                            <path id="Path_33175" d="M531.212 712.352l-.358.741a4.962 4.962 0 0 1-1.865 2.067l-2.217 1.366a2.207 2.207 0 0 1-2.263.052l-.076-.045a1.334 1.334 0 0 1-.188-2.049l2.317-2.382s-1.3 1-1.666.6c-.268-.294 1.262-1.73 2.436-1.777a4.637 4.637 0 0 0 2.31-.969z" class="cls-16" data-name="Path 33175" transform="translate(-496.759 -638.029)"/>
                            <path id="Path_33176" d="M505.273 559.929s-8.492 9.24-11.917 17.716a17.337 17.337 0 0 0 10.012 7.285c7.108 2.052 1.905-25.001 1.905-25.001z" class="cls-5" data-name="Path 33176" transform="translate(-476.694 -539.326)"/>
                            <path id="Path_33177" d="M514.359 605.839l1.377-13.3L512.492 605a18.518 18.518 0 0 0 1.867.839z" class="cls-9" data-name="Path 33177" transform="translate(-489.284 -560.783)"/>
                        </g>
                    </g>
                </g>
            </g>
        </g>
    </g>
</svg>
