<svg xmlns="http://www.w3.org/2000/svg" xmlns:xlink="http://www.w3.org/1999/xlink" width="305" height="265" viewBox="0 0 305 265">
    <defs>
        <style>
            .cls-1,.cls-17,.cls-2{fill:none}.cls-1{stroke:#707070}.cls-3{clip-path:url(#clip-path)}.cls-4,.cls-8{fill:#42c8b7}.cls-4{opacity:.15}.cls-5{clip-path:url(#clip-path-2)}.cls-6{fill:#1abea3}.cls-20,.cls-7{fill:#fff}.cls-9{fill:#bec8d2}.cls-10{fill:#174159}.cls-11{fill:#173d7a}.cls-12{fill:#2e546a}.cls-13{fill:#f2f2f2}.cls-14,.cls-15{opacity:.75}.cls-14{fill:url(#linear-gradient)}.cls-15{fill:url(#linear-gradient-2)}.cls-16{fill:#133747}.cls-17{stroke:#1abea3;stroke-linecap:round;stroke-linejoin:round;stroke-width:2px}.cls-18{fill:#17a58a}.cls-19{fill:#dbdbdb}.cls-20{opacity:.3}
        </style>
        <clipPath id="clip-path">
            <path id="Rectangle_11940" d="M0 0h305v265H0z" class="cls-1" data-name="Rectangle 11940" transform="translate(30 1226)"/>
        </clipPath>
        <clipPath id="clip-path-2">
            <path id="Path_33327" d="M209.416-2.737c-38.358 1.925-27.237 91.415-45.873 125-8.973 16.171-13.939 35.011-11.337 53.321 3.18 22.378 17.6 42.272 36.343 54.905s41.623 35.789 64.189 37.068 44.971-19.1 67.209-23.14c12.335-2.243 24.819-4.853 35.867-10.78 18.091-9.706 31.125-28.656 32.84-49.114s-8.341-41.694-25.728-52.612c-8.437-5.3-18.137-8.143-27.323-12s-18.314-9.122-23.551-17.6c-4.039-6.536-5.417-14.44-9.441-20.985C297.352 72.774 298.957-.42 289.255-3s-57.681.33-67.72.263" class="cls-2" data-name="Path 33327" transform="translate(-151.515 4.068)"/>
        </clipPath>
        <linearGradient id="linear-gradient" x1=".446" x2=".851" y1=".644" y2="-.427" gradientUnits="objectBoundingBox">
            <stop offset=".209" stop-opacity="0"/>
            <stop offset="1"/>
        </linearGradient>
        <linearGradient id="linear-gradient-2" x1=".453" x2=".595" y1="1.355" y2="-1.195" xlink:href="#linear-gradient"/>
    </defs>
    <g id="Mask_Group_61" class="cls-3" data-name="Mask Group 61" transform="translate(-30 -1226)">
        <g id="Group_10298" data-name="Group 10298">
            <path id="Path_33326" d="M253.5 253.192c-37.014 1.857-72.392 23.9-90.374 56.3-8.659 15.6-13.45 33.784-10.94 51.451 3.068 21.593 16.984 40.79 35.069 52.98s39.987 17.854 61.762 19.088 43.571-1.747 65.029-5.649c11.9-2.164 23.949-4.683 34.609-10.4 17.456-9.366 30.034-27.651 31.688-47.392s-8.053-40.23-24.83-50.77c-8.141-5.112-17.5-7.858-26.365-11.579s-17.672-8.8-22.726-16.98c-3.9-6.307-5.227-13.934-9.11-20.25-5.073-8.253-14.093-13.458-23.454-15.948s-10.676-.791-20.363-.856" class="cls-4" data-name="Path 33326" transform="translate(-81.515 1041.542)"/>
            <g id="Group_10182" class="cls-5" data-name="Group 10182" transform="translate(70 1223.395)">
                <g id="Group_9700" data-name="Group 9700" transform="translate(-9.724 7.609)">
                    <g id="Group_9699" data-name="Group 9699">
                        <g id="Group_9686" data-name="Group 9686" transform="translate(59.82 111.209)">
                            <path id="Path_32749" d="M353.81 506.557l33.4-19.286a15.137 15.137 0 0 1 13.7 0l35.04 20.23 9.978-4.075v9.836l-16.228 9.373v6.538c.069 1.207-.687 2.425-2.282 3.345a12.23 12.23 0 0 1-11.072 0 5.492 5.492 0 0 1-1.547-1.28l-20.732 11.97-21.167-12.215v-8.741a12.1 12.1 0 0 0-7.518 1.173 4.724 4.724 0 0 0-2.031 2.053L342.2 513.263v-9.836z" class="cls-6" data-name="Path 32749" transform="translate(-342.197 -475.795)"/>
                            <path id="Path_32750" d="M461.049 618.739l.343.466-.192.008 19.034 10.987 20.732-11.969a5.525 5.525 0 0 0 1.547 1.28 12.238 12.238 0 0 0 11.072 0 4.312 4.312 0 0 0 2.2-2.541c.348 1.366-.38 2.8-2.2 3.856a12.239 12.239 0 0 1-11.072 0 5.514 5.514 0 0 1-1.547-1.281l-20.732 11.97-21.16-12.212v-1.318z" class="cls-7" data-name="Path 32750" transform="translate(-428.367 -572.627)"/>
                            <path id="Path_32751" d="M372.9 493.544a10.215 10.215 0 0 0 3.556-1.172c3.057-1.766 3.058-4.628 0-6.394a12.238 12.238 0 0 0-11.073 0 4.719 4.719 0 0 0-2.031 2.053L342.2 475.815l45.018-25.992a15.137 15.137 0 0 1 13.7 0l45.017 25.991-20.735 11.969a9.309 9.309 0 0 1 2.218.893c3.057 1.766 3.057 4.628 0 6.393a12.237 12.237 0 0 1-11.072 0 5.527 5.527 0 0 1-1.547-1.28l-20.732 11.969z" class="cls-8" data-name="Path 32751" transform="translate(-342.197 -448.185)"/>
                            <g id="Group_9685" data-name="Group 9685" transform="translate(0 27.631)">
                                <path id="Path_32752" d="M658.118 565.323l20.732-11.969v1.318l-19.323 11.154a10.191 10.191 0 0 0-1.409-.503z" class="cls-7" data-name="Path 32752" transform="translate(-575.117 -553.354)"/>
                                <path id="Path_32753" d="M363.353 565.573a4.72 4.72 0 0 1 2.031-2.053 12.233 12.233 0 0 1 11.074 0c1.82 1.051 2.548 2.49 2.2 3.856a4.317 4.317 0 0 0-2.2-2.541 12.239 12.239 0 0 0-11.074 0 4.723 4.723 0 0 0-2.031 2.053L342.2 554.672v-1.315z" class="cls-7" data-name="Path 32753" transform="translate(-342.195 -553.356)"/>
                            </g>
                        </g>
                        <g id="Group_9688" data-name="Group 9688" transform="translate(0 148.577)">
                            <path id="Path_32754" d="M122.082 651.12l40.3-23.27 21.159 12.216a4.728 4.728 0 0 1 2.031-2.054 10.322 10.322 0 0 1 3.743-1.2 39.6 39.6 0 0 1 3.188-3.675l6.431-1.858v9.875c.024 1.175-.736 2.354-2.289 3.249a10.194 10.194 0 0 1-3.555 1.173l10.644 6.146 10.512-3.767v9.837l-21.774 12.578a4.057 4.057 0 0 0-2.266-2.909 11.542 11.542 0 0 0-6.035-1.31v9.013l-21.782 12.576-45.017-25.99c-1.933-1.117-2.872-2.587-2.828-4.052v-9.638z" class="cls-9" data-name="Path 32754" transform="translate(-114.531 -618.015)"/>
                            <path id="Path_32755" d="M355.139 723.151v17.478a4.053 4.053 0 0 0-2.266-2.905 12.235 12.235 0 0 0-11.072 0 5.516 5.516 0 0 0-1.538 1.269 20.454 20.454 0 0 0-5.085-.889v-14.953z" class="cls-9" data-name="Path 32755" transform="translate(-277.201 -688.278)"/>
                            <path id="Path_32756" d="M162.37 627.85l.156.09v59.709l-.158.09-45.017-25.99c-1.933-1.117-2.872-2.587-2.828-4.052v-9.637l7.548 3.059z" class="cls-9" data-name="Path 32756" transform="translate(-114.515 -618.015)"/>
                            <path id="Path_32757" d="M372.634 773.345V770.5l-2.465 1.423z" class="cls-9" data-name="Path 32757" transform="translate(-302.999 -723.189)"/>
                            <path id="Path_32758" d="M114.6 706.9a5.236 5.236 0 0 0 2.761 3.3l45.017 25.991 18.986-10.961c.022-.3.109-.9.109-.9l2.687-.713v1.315L162.377 737.5l-45.017-25.987c-2.182-1.259-3.097-2.97-2.76-4.613z" class="cls-7" data-name="Path 32758" transform="translate(-114.524 -676.298)"/>
                            <path id="Path_32759" d="M117.341 616.406l45.018-25.99 21.155 12.214a4.722 4.722 0 0 1 2.031-2.053 12.233 12.233 0 0 1 11.074 0c3.058 1.766 3.058 4.628 0 6.394a10.2 10.2 0 0 1-3.555 1.172l21.158 12.215-21.78 12.575a4.057 4.057 0 0 0-2.266-2.909 12.235 12.235 0 0 0-11.072 0c-3.057 1.766-3.058 4.628 0 6.392a11.063 11.063 0 0 0 5.039 1.311L162.36 650.3l-45.017-25.991c-3.785-2.179-3.785-5.72-.002-7.903z" class="cls-10" data-name="Path 32759" transform="translate(-114.504 -590.416)"/>
                            <g id="Group_9687" data-name="Group 9687" transform="translate(62.311 14.014)">
                                <path id="Path_32760" d="M417.088 647.614a9 9 0 0 1-1.916.8l-1.64-.947a10.2 10.2 0 0 0 3.555-1.172 4.317 4.317 0 0 0 2.2-2.541c.349 1.37-.378 2.809-2.199 3.86z" class="cls-7" data-name="Path 32760" transform="translate(-397.281 -643.755)"/>
                                <path id="Path_32761" d="M351.758 717.911c-.347-1.365.38-2.8 2.2-3.855a12.23 12.23 0 0 1 11.072 0 4.041 4.041 0 0 1 2.266 2.909l21.782-12.575v1.319L367.3 718.282a4.054 4.054 0 0 0-2.266-2.909 12.238 12.238 0 0 0-11.072 0 4.314 4.314 0 0 0-2.204 2.538z" class="cls-7" data-name="Path 32761" transform="translate(-351.674 -688.459)"/>
                            </g>
                        </g>
                        <g id="Group_9690" data-name="Group 9690" transform="translate(123.852 148.575)">
                            <path id="Path_32762" d="M585.928 657.793v-9.837l10.337 3.868 10.4-6a5.474 5.474 0 0 0 1.546 1.28 12.233 12.233 0 0 0 11.074 0c2.988-1.724 3.048-4.493.2-6.266l-2.415 1.351v-12.208h7.481l.742 5.089 12.51-7.222 39.821 22.992 8.035-2.884v9.836c0 1.431-.946 2.862-2.838 3.954l-45.018 25.992-21.128-12.2a4.771 4.771 0 0 1-2.011 2.007 12.24 12.24 0 0 1-11.073 0c-1.588-.917-2.343-2.129-2.282-3.329v-7.551z" class="cls-9" data-name="Path 32762" transform="translate(-585.925 -618.011)"/>
                            <path id="Path_32763" d="M783.342 627.847l39.821 22.992 8.035-2.884v9.836c0 1.431-.946 2.862-2.838 3.954l-45.02 25.992v-59.889z" class="cls-9" data-name="Path 32763" transform="translate(-731.472 -618.011)"/>
                            <path id="Path_32764" d="M706.221 636.007l.258.666-.062.059c.08.04.161.078.237.123 1.82 1.051 2.548 2.49 2.2 3.855a4.317 4.317 0 0 0-2.2-2.541 9.3 9.3 0 0 0-2.217-.893v-1.319z" class="cls-7" data-name="Path 32764" transform="translate(-673.3 -623.991)"/>
                            <path id="Path_32765" d="M603.581 633.714a10.161 10.161 0 0 1 3.475-1.161l-21.128-12.2 20.733-11.969a5.507 5.507 0 0 0 1.546 1.28 12.238 12.238 0 0 0 11.074 0c3.058-1.766 3.058-4.628 0-6.393a9.321 9.321 0 0 0-2.217-.893l20.736-11.969 45.017 25.99c3.782 2.184 3.782 5.724 0 7.908L637.8 650.3l-21.128-12.2a4.774 4.774 0 0 1-2.011 2.006 12.237 12.237 0 0 1-11.073 0c-3.064-1.766-3.065-4.627-.007-6.392z" class="cls-10" data-name="Path 32765" transform="translate(-585.925 -590.409)"/>
                            <g id="Group_9689" data-name="Group 9689" transform="translate(0 29.945)">
                                <path id="Path_32766" d="M646.705 725.981a12.238 12.238 0 0 0 11.074 0 4.771 4.771 0 0 0 2.011-2.006l21.128 12.2 45.018-25.992a5.224 5.224 0 0 0 2.762-3.3c.336 1.642-.58 3.353-2.762 4.613l-45.018 25.994-21.128-12.2a4.772 4.772 0 0 1-2.011 2.006 12.24 12.24 0 0 1-11.074 0c-1.82-1.051-2.548-2.49-2.2-3.855a4.315 4.315 0 0 0 2.2 2.54z" class="cls-7" data-name="Path 32766" transform="translate(-629.05 -706.228)"/>
                                <path id="Path_32767" d="M607.047 716.585a11.823 11.823 0 0 0-1.627.379l-19.5-11.259v-1.319z" class="cls-7" data-name="Path 32767" transform="translate(-585.917 -704.386)"/>
                            </g>
                        </g>
                        <g id="Group_9692" data-name="Group 9692" transform="translate(59.815 188.458)">
                            <path id="Path_32768" d="M352.307 803.758l11.666-6.735a11.07 11.07 0 0 1-5.039-1.31 4.249 4.249 0 0 1-2.224-2.632l-.069.045v-10.49l9.866 3.835L364.24 788a11.426 11.426 0 0 1 5.768 1.318 4.036 4.036 0 0 1 2.266 2.909l21.782-12.575 12.8 7.389 1.328-4.438 7-.591v10.935l-2.139-.544a8.574 8.574 0 0 0-1.335.608c-3.058 1.766-3.058 4.628 0 6.393a12.238 12.238 0 0 0 11.072 0 4.764 4.764 0 0 0 2.011-2.007l11.694 6.752 9.434-4.39v9.841L400.9 835.589a15.136 15.136 0 0 1-13.7 0L342.189 809.6v-9.836z" class="cls-6" data-name="Path 32768" transform="translate(-342.185 -769.816)"/>
                            <path id="Path_32769" d="M600.382 789.8a8.7 8.7 0 0 1 1.575-.687l.19-.372 1.709-.105v1.318a10.137 10.137 0 0 0-3.475 1.161 4.311 4.311 0 0 0-2.2 2.541c-.344-1.37.384-2.809 2.201-3.856z" class="cls-7" data-name="Path 32769" transform="translate(-530.86 -776.436)"/>
                            <path id="Path_32770" d="M363.961 759.582a11.07 11.07 0 0 1-5.039-1.311c-3.057-1.765-3.057-4.627 0-6.393a12.236 12.236 0 0 1 11.072 0 4.039 4.039 0 0 1 2.266 2.909l21.782-12.575 21.128 12.2a10.153 10.153 0 0 0-3.475 1.161c-3.058 1.766-3.058 4.628 0 6.393a12.237 12.237 0 0 0 11.072 0 4.764 4.764 0 0 0 2.011-2.006l21.128 12.2-45.018 25.991a15.136 15.136 0 0 1-13.7 0l-45.017-25.99z" class="cls-8" data-name="Path 32770" transform="translate(-342.174 -742.212)"/>
                            <g id="Group_9691" data-name="Group 9691" transform="translate(.005 13.522)">
                                <path id="Path_32771" d="M397.307 793.682a4.312 4.312 0 0 0 2.2 2.536 11.068 11.068 0 0 0 5.039 1.311l-1.917 1.106a9.894 9.894 0 0 1-3.122-1.1c-1.82-1.048-2.547-2.488-2.2-3.853z" class="cls-7" data-name="Path 32771" transform="translate(-382.765 -793.682)"/>
                                <path id="Path_32772" d="M387.209 882.182a15.137 15.137 0 0 0 13.7 0l45.018-25.991v1.318L400.906 883.5a15.137 15.137 0 0 1-13.7 0l-45.017-25.99v-1.319z" class="cls-7" data-name="Path 32772" transform="translate(-342.192 -839.768)"/>
                            </g>
                        </g>
                        <g id="Group_9693" data-name="Group 9693" transform="translate(89.097 122.065)">
                            <ellipse id="Ellipse_1760" cx="24.133" cy="13.933" class="cls-6" data-name="Ellipse 1760" rx="24.133" ry="13.933"/>
                        </g>
                        <g id="Group_9698" data-name="Group 9698" transform="translate(62.484)">
                            <g id="Group_9697" data-name="Group 9697">
                                <g id="Group_9696" data-name="Group 9696">
                                    <g id="Group_9695" data-name="Group 9695">
                                        <g id="Group_9694" data-name="Group 9694" transform="translate(34.801 6.747)">
                                            <path id="Path_32773" d="M537.939 511.154c.228.568 4.15 5.343 8.073 6.536a9.01 9.01 0 0 0 3.6.5 1.188 1.188 0 0 0 .966-1.58 14.9 14.9 0 0 0-7.525-8.294c-6.653-3.301-5.114 2.838-5.114 2.838z" class="cls-11" data-name="Path 32773" transform="translate(-523.864 -387.337)"/>
                                            <path id="Path_32774" d="M518 528.836a32.455 32.455 0 0 1 1.932 6.366c.275 1.768-.693 4.065-1.492 5.588a1.632 1.632 0 0 1-2.541.44 9.43 9.43 0 0 1-3.183-6.085c-.455-4.888 0-5.741 0-5.741z" class="cls-11" data-name="Path 32774" transform="translate(-505.233 -403.185)"/>
                                            <path id="Path_32775" d="M496.8 290.447a92.893 92.893 0 0 0 0 12.988c.512 6.821 2.343 38.72 2.684 46.393 0 0-.171 2.324 4.326 1.812s4.135-3.09 4.135-3.09 6.318-.085 6.516-3.809 6.469-44.46 6.469-59.106z" class="cls-12" data-name="Path 32775" transform="translate(-493.475 -223.88)"/>
                                            <path id="Path_32776" d="M539.856 385.424a13.013 13.013 0 0 0 1.805-.187l1.239-49.587z" class="cls-10" data-name="Path 32776" transform="translate(-525.39 -260.754)"/>
                                            <path id="Path_32777" d="M494.8 127.6c-10.2 4.23-10 10.26-10 10.26s2 22.113 1.317 36.877c-.286 6.173 32.8 6.644 27.866-9.826-5.818-19.42-3.64-35.141-6.361-37.513s-10.187-.898-12.822.202z" class="cls-8" data-name="Path 32777" transform="translate(-484.796 -106.278)"/>
                                            <path id="Path_32778" d="M510.11 137.243c.534 2.072 3.248 3.164 6.063 2.438s4.664-2.992 4.13-5.063-3.248-3.164-6.063-2.439-4.665 2.992-4.13 5.064z" class="cls-13" data-name="Path 32778" transform="translate(-503.392 -110.575)"/>
                                            <path id="Path_32780" d="M524.076 124.262a25.233 25.233 0 0 0 .089 3.643c.055 1.016-3.5 1.965-4.424 1.045s-.549-1.877-.772-5.337 5.107.649 5.107.649z" class="cls-13" data-name="Path 32780" transform="translate(-509.985 -103.403)"/>
                                            <path id="Path_32781" d="M518.987 127.5s.877 3.208 5.2 4.438l-.069-2.915z" class="cls-14" data-name="Path 32781" transform="translate(-510.004 -107.294)"/>
                                            <path id="Path_32782" d="M507.869 79.956a7.854 7.854 0 1 0 9.57-5.639 7.854 7.854 0 0 0-9.57 5.639z" class="cls-13" data-name="Path 32782" transform="translate(-501.622 -67.894)"/>
                                            <path id="Path_32783" d="M530.647 99.745s4.326 1.854 7.319 1.874 2.335-2.486 2.335-2.486l-8.888-1.285z" class="cls-15" data-name="Path 32783" transform="translate(-518.601 -85.428)"/>
                                            <path id="Path_32784" d="M517.713 73.554a14.03 14.03 0 0 0-7.073-.932 3.463 3.463 0 0 0-2 1.187 1.177 1.177 0 0 1-.6.437c-.585.132-1.545-2.3-2.684-2.354s-1.9.751-.966 2.246.618 3.169.189 3.408-4.988-3.251-.968-11.215 14.234-3.675 15.822-2.06c0 0 1.674 1.458 3.035.16 0 0 1.525 11.426-4.755 9.123z" class="cls-10" data-name="Path 32784" transform="translate(-497.455 -58.75)"/>
                                            <path id="Path_32785" d="M589.641 70.085l5.487-2.366a2.434 2.434 0 0 0 1.338-1.442l5.415-15.7 2.511.437-4.38 19.539a3.3 3.3 0 0 1-1.6 2.151l-9.134 5.131z" class="cls-13" data-name="Path 32785" transform="translate(-561.826 -50.576)"/>
                                        </g>
                                        <path id="Path_32786" d="M357.862 117.871l-1.258-.577a10.123 10.123 0 0 1-2.89-2l-.875-.865a1.7 1.7 0 0 1-.372-1.868.937.937 0 0 1 1.227-.5l.058.027 2.629 1.329s-.412-1.168-.214-1.467 2.232 1.943 3.173 3.535-1.478 2.386-1.478 2.386z" class="cls-13" data-name="Path 32786" transform="translate(-352.334 -89.062)"/>
                                        <path id="Path_32787" d="M395.281 134.146l-4.694-.525a8.248 8.248 0 0 1-3.154-1.021l-12.573-7.116-1.477 2.382 12.854 9.926a5.906 5.906 0 0 0 1.292.755l7.667 3.278z" class="cls-13" data-name="Path 32787" transform="translate(-367.853 -99.056)"/>
                                        <path id="Path_32788" d="M639.389 32.078l.48-.55a4.4 4.4 0 0 0 1.03-2.25l.336-2.289a1.963 1.963 0 0 0-.755-1.865l-.065-.045a1.185 1.185 0 0 0-1.737.567l-1.129 2.728s.356-1.412-.1-1.569c-.334-.116-.968 1.638-.594 2.614a4.116 4.116 0 0 1 .022 2.226z" class="cls-13" data-name="Path 32788" transform="translate(-562.02 -24.894)"/>
                                        <path id="Path_32789" d="M543.8 122.991l2.028-.557a4.892 4.892 0 0 1-2.382 1.911c-1.414.388-1.633-.808-1.633-.808z" class="cls-7" data-name="Path 32789" transform="translate(-492.032 -96.808)"/>
                                    </g>
                                </g>
                                <path id="Path_32790" d="M560.952 119.033s9.165-1.811 11.964-2.661 3.967 6.838 3.755 8.786-9.743 4.121-10.877 7.464-4.842-13.589-4.842-13.589z" class="cls-8" data-name="Path 32790" transform="translate(-506.143 -92.29)"/>
                                <path id="Path_32791" d="M452.352 139.529a72.415 72.415 0 0 1-17.909 4.274 1.209 1.209 0 0 0-1 .792 13.269 13.269 0 0 0-.594 6.739 2.472 2.472 0 0 0 2.452 1.948c3.51-.024 11.063.313 12.288 3.593 1.611 4.3 4.763-17.346 4.763-17.346z" class="cls-8" data-name="Path 32791" transform="translate(-411.556 -109.412)"/>
                            </g>
                            <path id="Path_32793" d="M436.186 172.753c2 .233 6.926.657 10.713.972a3.481 3.481 0 0 1 3.06 4.378c-2.016 7.746.654 20.2.172 24.415-.576 5.043 2.48 6.993 2.5 7-3.022-.651-5.063-1.843-4.991-3.4a283.494 283.494 0 0 0-.693-28.692c-2.2-2.4-8.6-2.671-11.718-2.646a2.467 2.467 0 0 1-2.425-2.011 11.75 11.75 0 0 1-.035-4.083c-.008.085-.006 3.669 3.417 4.067z" class="cls-6" data-name="Path 32793" transform="translate(-411.514 -130.914)"/>
                        </g>
                    </g>
                </g>
                <g id="Group_9693-2" data-name="Group 9693" transform="rotate(-36 355.54 -141.048)">
                    <path id="Ellipse_1760-2" d="M9.576.011c4.759-.29 8.21 5.089 7.707 12.015S12.514 24.8 7.755 25.092-.454 20 .049 13.077 4.817.3 9.576.011z" class="cls-16" data-name="Ellipse 1760" transform="rotate(-71.321 11.441 8.21)"/>
                </g>
                <g id="Group_10181" data-name="Group 10181" transform="translate(156.907 145.089)">
                    <path id="Line_1005" d="M1.005 0L0 3.049" class="cls-17" data-name="Line 1005" transform="translate(16.936 .016)"/>
                    <path id="Line_1006" d="M0 0l.901 3.082" class="cls-17" data-name="Line 1006" transform="translate(8.136)"/>
                    <path id="Line_1007" d="M0 0l2.149 2.385" class="cls-17" data-name="Line 1007" transform="translate(0 4.182)"/>
                    <path id="Line_1008" d="M2.114 0L0 2.417" class="cls-17" data-name="Line 1008" transform="translate(23.173 4.521)"/>
                    <g id="Group_7107" data-name="Group 7107" transform="translate(1.827 4.811)">
                        <path id="Path_24023" d="M772.389 557.6a9.089 9.089 0 0 1-.124 1.409 7.944 7.944 0 0 1-.5 1.728c-.03.065-.056.13-.086.195-.068.148-1.132 1.979-1.462 2.848-1.2 3.143-2.489 3.44-2.4 8.424l-.088.006a6.506 6.506 0 0 1 .088 1.023 6.239 6.239 0 0 1-12.478 0 6.16 6.16 0 0 1 .091-1.023l-.085-.006c.082-4.57-.99-4.8-2.1-7.642-.435-1.123-1.722-3.521-1.8-3.7s-.145-.345-.206-.522a8.123 8.123 0 0 1-.383-1.61 6.169 6.169 0 0 1-.041-.365 8.177 8.177 0 0 1-.045-.77 10.807 10.807 0 0 1 21.613 0z" class="cls-6" data-name="Path 24023" transform="translate(-750.775 -546.791)"/>
                        <path id="Path_24024" d="M772.394 557.6a9.089 9.089 0 0 1-.124 1.409 7.951 7.951 0 0 1-.5 1.728 11.89 11.89 0 0 1-4.83 3.226 14.417 14.417 0 0 1-3.429.811l1.259-5.88-.295-.038-1.283 5.95a15.737 15.737 0 0 1-1.681.062 14.537 14.537 0 0 1-1.616-.106l-2.123-10.046-.289.041 2.1 9.963a14.47 14.47 0 0 1-3.494-.926 12.055 12.055 0 0 1-4.84-3.454 8.119 8.119 0 0 1-.383-1.61 6.169 6.169 0 0 1-.041-.365 8.177 8.177 0 0 1-.045-.77 10.807 10.807 0 0 1 21.613 0z" class="cls-8" data-name="Path 24024" transform="translate(-750.781 -546.795)"/>
                        <path id="Path_24025" d="M780.675 631.754v.021a2.46 2.46 0 0 1-.834 1.731 6.138 6.138 0 0 1-2.686 1.387 10.69 10.69 0 0 1-5.475-.059 6.23 6.23 0 0 1-2.618-1.409 2.481 2.481 0 0 1-.831-1.763v-.024c.015-1.387 1.448-2.565 3.517-3.117a10 10 0 0 1 1.418-.263l.292-.027a10.96 10.96 0 0 1 2.244.044 9.575 9.575 0 0 1 1.523.307 5.9 5.9 0 0 1 .274.086 5.978 5.978 0 0 1 .575.212c1.579.645 2.601 1.697 2.601 2.874z" class="cls-18" data-name="Path 24025" transform="translate(-763.644 -606.806)"/>
                        <g id="Group_7103" data-name="Group 7103" transform="translate(9.163 20.349)">
                            <path id="Path_24026" d="M789.343 625.878v6.733a1.18 1.18 0 0 1-.245.7 1.7 1.7 0 0 1-.8.562 2.313 2.313 0 0 1-1.617-.024 1.8 1.8 0 0 1-.777-.568 1.2 1.2 0 0 1-.245-.72v-6.716a1.6 1.6 0 0 1 1.041-1.445 1.962 1.962 0 0 1 .773-.154h.04a2.042 2.042 0 0 1 .807.181.686.686 0 0 1 .084.04 1.243 1.243 0 0 1 .168.1 1.61 1.61 0 0 1 .771 1.311z" class="cls-13" data-name="Path 24026" transform="translate(-785.66 -624.244)"/>
                            <path id="Path_24027" d="M785.955 626.993l.335 2.245a2.274 2.274 0 0 1-.637-.478v-.891a1.473 1.473 0 0 1 .302-.876z" class="cls-12" data-name="Path 24027" transform="translate(-785.653 -626.271)"/>
                            <path id="Path_24028" d="M789.918 624.447l-.372 3.025a2.646 2.646 0 0 1-.489.035 2.788 2.788 0 0 1-.89-.156l-.4-2.66a1.8 1.8 0 0 1 .484-.295 1.973 1.973 0 0 1 .773-.153h.041a2.022 2.022 0 0 1 .808.183.257.257 0 0 1 .045.021z" class="cls-12" data-name="Path 24028" transform="translate(-787.21 -624.244)"/>
                            <path id="Path_24029" d="M796.752 626.917v.934a2.258 2.258 0 0 1-.805.513 3.2 3.2 0 0 1-.233.08l.342-2.789a1.591 1.591 0 0 1 .696 1.262z" class="cls-12" data-name="Path 24029" transform="translate(-793.071 -625.284)"/>
                        </g>
                        <path id="Path_24030" d="M785.09 672.427l.172-.066c0 .109.443.119.4.22l-.675.723c-.186.2-.347.42-.52.631a1.15 1.15 0 0 1-.1.105 2.369 2.369 0 0 1-1.032.53 3.847 3.847 0 0 1-1.048.125 3.943 3.943 0 0 1-1.05-.146 2.423 2.423 0 0 1-1-.542 1.062 1.062 0 0 1-.073-.084 3.823 3.823 0 0 0-.513-.552l-.769-.666c-.045-.1.809.05.809-.062l.232-.09a.3.3 0 0 1 .035-.146c0-.008.013-.032.029-.038h.007v.127a1.161 1.161 0 0 0 .241.339 2.383 2.383 0 0 0 1 .539 4.091 4.091 0 0 0 2.1.024 2.331 2.331 0 0 0 1.034-.535 1.107 1.107 0 0 0 .244-.336v-.13h.009a.085.085 0 0 1 .029.041c.023.076.439-.097.439-.011z" class="cls-12" data-name="Path 24030" transform="translate(-771.494 -639.371)"/>
                        <path id="Path_24031" d="M780.689 640.512V647a.1.1 0 0 1-.012.027v.018a1.087 1.087 0 0 1-.159.581 3.249 3.249 0 0 1-.489.6 6.285 6.285 0 0 1-2.774 1.433 10.532 10.532 0 0 1-2.819.337 10.391 10.391 0 0 1-2.825-.4 6.425 6.425 0 0 1-2.7-1.451 3.318 3.318 0 0 1-.483-.6 1.114 1.114 0 0 1-.163-.6.029.029 0 0 1-.006-.014v-6.485a3.152 3.152 0 0 0 .653.9 6.385 6.385 0 0 0 2.7 1.448 10.081 10.081 0 0 0 2.462.4c.1 0 .2.006.3.006a.473.473 0 0 0 .065 0h.265c.088 0 .2 0 .3-.006a10.022 10.022 0 0 0 2.257-.33 6.268 6.268 0 0 0 2.773-1.43 3.067 3.067 0 0 0 .655-.922z" class="cls-12" data-name="Path 24031" transform="translate(-763.666 -615.835)"/>
                        <path id="Path_24032" d="M768.236 664.982v.05a.028.028 0 0 1-.006-.014.137.137 0 0 1-.012-.03.019.019 0 0 1 .012 0s.002-.006.006-.006z" class="cls-19" data-name="Path 24032" transform="translate(-763.635 -633.93)"/>
                        <path id="Path_24033" d="M815.546 665.3a.1.1 0 0 1-.012.027.1.1 0 0 1-.012.027v-.054a.019.019 0 0 1 .012 0z" class="cls-19" data-name="Path 24033" transform="translate(-798.511 -634.164)"/>
                        <g id="Group_7104" data-name="Group 7104" transform="translate(4.393 25.08)">
                            <path id="Path_24034" d="M780.329 657.709v.018a2.21 2.21 0 0 1-.189.843 9 9 0 0 1-.024.054 2.917 2.917 0 0 1-.648.894 6.37 6.37 0 0 1-2.774 1.424 10.288 10.288 0 0 1-2.819.336 10.6 10.6 0 0 1-2.825-.393 6.5 6.5 0 0 1-2.7-1.459 3.1 3.1 0 0 1-.646-.894c0-.006-.006-.008-.006-.015a.126.126 0 0 1-.012-.029 2.2 2.2 0 0 1-.186-.876v-.024a1.952 1.952 0 0 1 .1-.625.027.027 0 0 0 0-.011.183.183 0 0 1 .08-.1.018.018 0 0 1 .012 0h.006v.065a1.078 1.078 0 0 0 .156.577 3.348 3.348 0 0 0 .49.611 6.393 6.393 0 0 0 2.7 1.451 10.987 10.987 0 0 0 5.644.065 6.292 6.292 0 0 0 2.774-1.433 3.146 3.146 0 0 0 .489-.6 1.079 1.079 0 0 0 .158-.593v-.061a.017.017 0 0 1 .012 0h.012c.047.024.071.094.08.109a2.144 2.144 0 0 1 .116.666z" class="cls-13" data-name="Path 24034" transform="translate(-767.499 -653.009)"/>
                            <path id="Path_24035" d="M780.329 650.417v.018a2.211 2.211 0 0 1-.189.843.1.1 0 0 1-.012.027.1.1 0 0 1-.012.027 2.908 2.908 0 0 1-.648.894 6.377 6.377 0 0 1-2.774 1.424 10.291 10.291 0 0 1-2.819.336 10.589 10.589 0 0 1-2.825-.393 6.491 6.491 0 0 1-2.7-1.459 3.105 3.105 0 0 1-.646-.894c0-.006-.006-.008-.006-.015a.131.131 0 0 1-.012-.03 2.2 2.2 0 0 1-.186-.876v-.019a1.944 1.944 0 0 1 .1-.625.038.038 0 0 0 0-.012.185.185 0 0 1 .08-.1.017.017 0 0 1 .012 0h.006v.065a1.077 1.077 0 0 0 .156.577 3.355 3.355 0 0 0 .49.611 6.39 6.39 0 0 0 2.7 1.451 10.992 10.992 0 0 0 5.644.065 6.29 6.29 0 0 0 2.774-1.433 3.12 3.12 0 0 0 .489-.6 1.079 1.079 0 0 0 .158-.593v-.062a.018.018 0 0 1 .012 0h.012c.048.024.071.094.08.109a2.138 2.138 0 0 1 .116.664z" class="cls-13" data-name="Path 24035" transform="translate(-767.499 -647.633)"/>
                            <path id="Path_24036" d="M780.327 643.119v.018a2.211 2.211 0 0 1-.189.843.105.105 0 0 1-.012.027.1.1 0 0 1-.012.027 2.911 2.911 0 0 1-.648.894 6.374 6.374 0 0 1-2.774 1.424 10.271 10.271 0 0 1-2.82.336 10.591 10.591 0 0 1-2.824-.393 6.5 6.5 0 0 1-2.7-1.459 3.093 3.093 0 0 1-.646-.894c0-.006-.006-.009-.006-.015a.136.136 0 0 1-.012-.03 2.2 2.2 0 0 1-.186-.875V643a1.941 1.941 0 0 1 .1-.626.035.035 0 0 0 0-.012.187.187 0 0 1 .08-.1.017.017 0 0 1 .012 0h.006v.065a1.077 1.077 0 0 0 .156.577 3.349 3.349 0 0 0 .489.611 6.391 6.391 0 0 0 2.7 1.451 10.991 10.991 0 0 0 5.644.065 6.292 6.292 0 0 0 2.774-1.433 3.133 3.133 0 0 0 .489-.6 1.081 1.081 0 0 0 .158-.593v-.062a.021.021 0 0 1 .012 0h.011c.047.024.071.094.08.109a2.141 2.141 0 0 1 .118.667z" class="cls-13" data-name="Path 24036" transform="translate(-767.497 -642.251)"/>
                        </g>
                        <path id="Path_24037" d="M800.715 557.271l-.009.013a2.081 2.081 0 0 1-1.091.818 3.29 3.29 0 0 1-1.83.038 4.638 4.638 0 0 1-2.567-1.718 3.368 3.368 0 0 1-.671-1.679 2.121 2.121 0 0 1 .316-1.349l.01-.014a2.636 2.636 0 0 1 2.919-.856 4.635 4.635 0 0 1 2.567 1.717c.034.045.065.091.1.136a3.562 3.562 0 0 1 .187.308 2.508 2.508 0 0 1 .069 2.586z" class="cls-20" data-name="Path 24037" transform="translate(-783.039 -550.936)"/>
                        <g id="Group_7105" data-name="Group 7105" transform="translate(8.805 17.931)">
                            <path id="Path_24038" d="M788.987 639.581c-.1 0-.2 0-.3-.006l-.6-4.031a1.539 1.539 0 0 0 .177.081c.047.021.094.038.142.056z" class="cls-12" data-name="Path 24038" transform="translate(-787.086 -630.158)"/>
                            <path id="Path_24039" d="M787.15 626.576l-.292.027-.056-.381a1.5 1.5 0 0 1 .253-.275z" class="cls-12" data-name="Path 24039" transform="translate(-786.142 -623.083)"/>
                            <path id="Path_24040" d="M787.615 630.372c-.047-.018-.094-.035-.142-.056a1.609 1.609 0 0 1-.177-.082l-.28-1.866.292-.027z" class="cls-12" data-name="Path 24040" transform="translate(-786.3 -624.847)"/>
                            <path id="Path_24041" d="M785.2 617.908a1.5 1.5 0 0 0-.254.275l-.66-3.14c.1.018.209.029.315.041z" class="cls-12" data-name="Path 24041" transform="translate(-784.289 -615.042)"/>
                        </g>
                        <g id="Group_7106" data-name="Group 7106" transform="translate(11.036 17.984)">
                            <path id="Path_24042" d="M793.55 636.275l-.472 3.839c-.1.006-.2.006-.3.006l.462-3.777a2.531 2.531 0 0 0 .31-.068z" class="cls-12" data-name="Path 24042" transform="translate(-792.779 -630.749)"/>
                            <path id="Path_24043" d="M795.931 625.182l-.091.747a4.219 4.219 0 0 0-.295-.032l.109-.885.035.018a1.189 1.189 0 0 1 .168.1.438.438 0 0 1 .074.052z" class="cls-12" data-name="Path 24043" transform="translate(-794.818 -622.445)"/>
                            <path id="Path_24044" d="M795.105 628.413l-.25 2.039a2.53 2.53 0 0 1-.307.068l.262-2.14c.1.01.199.02.295.033z" class="cls-12" data-name="Path 24044" transform="translate(-794.083 -624.928)"/>
                            <path id="Path_24045" d="M796.824 615.242l-.587 2.737a.436.436 0 0 0-.074-.055 1.213 1.213 0 0 0-.168-.1l-.035-.018.545-2.535c.11-.005.216-.017.319-.029z" class="cls-12" data-name="Path 24045" transform="translate(-795.124 -615.242)"/>
                        </g>
                    </g>
                </g>
            </g>
        </g>
    </g>
</svg>
