<svg xmlns="http://www.w3.org/2000/svg" width="130" height="130" viewBox="0 0 130 130">
    <defs>
        <style>
            .cls-1{fill:#fff}.cls-2{fill:#42c8b7}.cls-3{fill:#46b5a4}.cls-4{fill:#e5e5e5}.cls-5{filter:url(#Rectangle_11879)}
        </style>
        <filter id="Rectangle_11879" width="130" height="130" x="0" y="0" filterUnits="userSpaceOnUse">
            <feOffset/>
            <feGaussianBlur result="blur" stdDeviation="5"/>
            <feFlood flood-opacity=".149"/>
            <feComposite in2="blur" operator="in"/>
            <feComposite in="SourceGraphic"/>
        </filter>
    </defs>
    <g id="Group_10276" data-name="Group 10276" transform="translate(15 14.958)">
        <g class="cls-5" transform="translate(-15 -14.96)">
            <rect id="Rectangle_11879-2" width="100" height="100" class="cls-1" data-name="Rectangle 11879" rx="10" transform="translate(15 15)"/>
        </g>
        <g id="Group_9531" data-name="Group 9531" transform="translate(14.948 14.73)">
            <g id="Group_9169" data-name="Group 9169">
                <path id="Path_31548" d="M39.967 241.793v6.417a2.917 2.917 0 1 1-5.834 0v-7.315" class="cls-2" data-name="Path 31548" transform="translate(-29.466 -207.96)"/>
                <path id="Path_31549" d="M133.834 240.895v7.315a2.917 2.917 0 1 1-5.834 0v-6.417" class="cls-2" data-name="Path 31549" transform="translate(-110.5 -207.96)"/>
                <path id="Path_31550" d="M46.6 167.967v2.333a3.512 3.512 0 0 1-3.5 3.5h-14a3.512 3.512 0 0 1-3.5-3.5v-2.333a5.835 5.835 0 0 1 5.833-5.834h9.334a5.835 5.835 0 0 1 5.833 5.834z" class="cls-3" data-name="Path 31550" transform="translate(-22.102 -139.966)"/>
                <path id="Path_31551" d="M43.1 167.967v2.333a3.513 3.513 0 0 1-3.5 3.5H29.1a3.512 3.512 0 0 1-3.5-3.5v-2.333a5.835 5.835 0 0 1 5.833-5.834h5.834a5.836 5.836 0 0 1 5.833 5.834z" class="cls-2" data-name="Path 31551" transform="translate(-22.102 -139.966)"/>
                <path id="Path_31552" d="M245.634 9.7v16.335a1.169 1.169 0 0 1-1.166 1.166h-37.334a2.34 2.34 0 0 1-2.333-2.333v-14a2.34 2.34 0 0 1 2.333-2.333h37.333a1.169 1.169 0 0 1 1.167 1.165z" class="cls-3" data-name="Path 31552" transform="translate(-176.801 -7.368)"/>
                <path id="Path_31553" d="M242.134 9.7v16.335a1.17 1.17 0 0 1-1.167 1.166h-33.833a2.34 2.34 0 0 1-2.333-2.333v-14a2.34 2.34 0 0 1 2.333-2.333h33.833a1.17 1.17 0 0 1 1.167 1.165z" class="cls-2" data-name="Path 31553" transform="translate(-176.801 -7.368)"/>
                <path id="Path_31554" d="M275.4 42.668h4.667A2.333 2.333 0 0 1 282.4 45v4.667A2.333 2.333 0 0 1 280.066 52H275.4a2.333 2.333 0 0 1-2.333-2.333V45a2.333 2.333 0 0 1 2.333-2.332z" class="cls-4" data-name="Path 31554" transform="translate(-235.733 -36.834)"/>
                <path id="Path_31555" d="M275.4 42.668h1.167A2.333 2.333 0 0 1 278.9 45v4.667A2.333 2.333 0 0 1 276.566 52H275.4a2.333 2.333 0 0 1-2.333-2.333V45a2.333 2.333 0 0 1 2.333-2.332z" class="cls-1" data-name="Path 31555" transform="translate(-235.733 -36.834)"/>
                <path id="Path_31556" d="M58.7 138.868V158.7a28.007 28.007 0 0 1-28 28h-21a1.169 1.169 0 0 1-1.166-1.166V169.2a1.169 1.169 0 0 1 1.166-1.165h21a9.331 9.331 0 0 0 9.333-9.333v-19.834a2.34 2.34 0 0 1 2.333-2.333h14a2.34 2.34 0 0 1 2.334 2.333z" class="cls-3" data-name="Path 31556" transform="translate(-7.368 -117.868)"/>
                <path id="Path_31557" d="M55.2 138.868V158.7a28.007 28.007 0 0 1-28 28H9.7a1.169 1.169 0 0 1-1.166-1.166V169.2a1.169 1.169 0 0 1 1.166-1.165h21a9.331 9.331 0 0 0 9.333-9.333v-19.834a2.34 2.34 0 0 1 2.333-2.333h10.5a2.34 2.34 0 0 1 2.334 2.333z" class="cls-2" data-name="Path 31557" transform="translate(-7.368 -117.868)"/>
                <path id="Path_31558" d="M54.035 136.535V158.7a23.164 23.164 0 0 1-5.063 14.5l-2.4 2.6a23.268 23.268 0 0 1-15.866 6.23H8.535v-9.33H30.7a13.929 13.929 0 0 0 8.936-3.231l2.707-3A13.9 13.9 0 0 0 44.7 158.7v-22.165z" class="cls-3" data-name="Path 31558" transform="translate(-7.368 -117.868)"/>
                <path id="Path_31559" d="M50.535 136.535V158.7a23.167 23.167 0 0 1-5.063 14.5l-2.4 2.6a23.269 23.269 0 0 1-15.867 6.23H8.535v-9.33H30.7a13.929 13.929 0 0 0 8.936-3.231l2.707-3A13.9 13.9 0 0 0 44.7 158.7v-22.165z" class="cls-2" data-name="Path 31559" transform="translate(-7.368 -117.868)"/>
                <path id="Path_31560" d="M97.4 401.3l-3.3 3.3a2.323 2.323 0 0 1-3.29 0l-3.3-3.3a2.323 2.323 0 0 1 0-3.29l3.3-3.3a2.323 2.323 0 0 1 3.29 0l1.167 1.166 2.135 2.135a2.323 2.323 0 0 1 0 3.29z" class="cls-4" data-name="Path 31560" transform="translate(-74.957 -340.156)"/>
                <path id="Path_31561" d="M95.269 399.178l-3.29 3.29a2.317 2.317 0 0 1-3.3 0l-1.168-1.168a2.323 2.323 0 0 1 0-3.29l3.3-3.3a2.323 2.323 0 0 1 3.29 0l1.167 1.166a2.318 2.318 0 0 1 0 3.3z" class="cls-1" data-name="Path 31561" transform="translate(-74.957 -340.156)"/>
                <path id="Path_31562" d="M77.6 301v4.667A2.341 2.341 0 0 1 75.266 308H70.6a2.34 2.34 0 0 1-2.333-2.333V301a2.339 2.339 0 0 1 2.333-2.333h4.667A2.341 2.341 0 0 1 77.6 301z" class="cls-4" data-name="Path 31562" transform="translate(-58.933 -257.834)"/>
                <path id="Path_31563" d="M74.1 309.532v4.668a2.327 2.327 0 0 1-.315 1.167H70.6a2.34 2.34 0 0 1-2.333-2.333v-4.667a2.332 2.332 0 0 1 .315-1.167h3.185a2.34 2.34 0 0 1 2.333 2.332z" class="cls-1" data-name="Path 31563" transform="translate(-58.933 -265.199)"/>
                <path id="Path_31564" d="M238.364 355.5h4.666a2.333 2.333 0 0 1 2.333 2.333v4.667a2.333 2.333 0 0 1-2.333 2.333h-4.666a2.333 2.333 0 0 1-2.333-2.333v-4.667a2.333 2.333 0 0 1 2.333-2.333z" class="cls-4" data-name="Path 31564" transform="translate(-203.761 -306.896)"/>
                <path id="Path_31565" d="M238.364 355.5h1.167a2.333 2.333 0 0 1 2.333 2.333v4.667a2.333 2.333 0 0 1-2.333 2.333h-1.167a2.333 2.333 0 0 1-2.333-2.333v-4.667a2.333 2.333 0 0 1 2.333-2.333z" class="cls-1" data-name="Path 31565" transform="translate(-203.761 -306.896)"/>
                <path id="Path_31566" d="M276.6 222.145l-3.3 3.3a2.323 2.323 0 0 1-3.29 0l-3.3-3.3a2.323 2.323 0 0 1 0-3.29l3.3-3.3a2.275 2.275 0 0 1 2.333-.56 2.114 2.114 0 0 1 .957.56l3.3 3.3a2.323 2.323 0 0 1 0 3.29z" class="cls-4" data-name="Path 31566" transform="translate(-229.656 -185.5)"/>
                <path id="Path_31567" d="M274.071 220.022l-3.3 3.29a2.262 2.262 0 0 1-2.322.571l-1.738-1.738a2.323 2.323 0 0 1 0-3.29l3.3-3.3a2.275 2.275 0 0 1 2.333-.56l1.727 1.727a2.337 2.337 0 0 1 0 3.3z" class="cls-1" data-name="Path 31567" transform="translate(-229.656 -185.5)"/>
                <path id="Path_31568" d="M71.4 150.9a5.835 5.835 0 0 1-5.834 5.833 6.212 6.212 0 0 1-1.749-.256 5.85 5.85 0 0 1 0-11.153 6.2 6.2 0 0 1 1.749-.257A5.835 5.835 0 0 1 71.4 150.9z" class="cls-3" data-name="Path 31568" transform="translate(-51.567 -125.233)"/>
                <path id="Path_31569" d="M67.9 152.522c0-3.08-1.828-5.577-4.083-5.577s-4.084 2.5-4.084 5.577 1.828 5.577 4.084 5.577 4.083-2.499 4.083-5.577z" class="cls-2" data-name="Path 31569" transform="translate(-51.567 -126.855)"/>
                <path id="Path_31570" d="M237.1 21h-16.649a1.167 1.167 0 1 1 0-2.333H237.1V2.333h-37.334A1.169 1.169 0 0 0 198.6 3.5v14a1.169 1.169 0 0 0 1.167 1.167h2.648a1.167 1.167 0 0 1 0 2.333h-2.648a3.5 3.5 0 0 1-3.5-3.5v-14a3.5 3.5 0 0 1 3.5-3.5H237.1a2.335 2.335 0 0 1 2.333 2.333v16.334A2.336 2.336 0 0 1 237.1 21z" data-name="Path 31570" transform="translate(-169.433)"/>
                <path id="Path_31571" d="M85.062 399.271a3.477 3.477 0 0 1-2.475-1.025l-3.3-3.3a3.5 3.5 0 0 1 0-4.95l3.3-3.3a3.583 3.583 0 0 1 4.95 0l3.3 3.3a3.5 3.5 0 0 1 0 4.95l-3.3 3.3a3.476 3.476 0 0 1-2.475 1.025zm0-11.267a1.156 1.156 0 0 0-.824.342l-3.3 3.3a1.165 1.165 0 0 0 0 1.649l3.3 3.3a1.191 1.191 0 0 0 1.648 0l3.3-3.3a1.166 1.166 0 0 0 0-1.649l-3.3-3.3a1.157 1.157 0 0 0-.824-.346z" data-name="Path 31571" transform="translate(-67.562 -332.971)"/>
                <path id="Path_31572" d="M67.9 310.334h-4.666a3.5 3.5 0 0 1-3.5-3.5v-4.667a3.5 3.5 0 0 1 3.5-3.5H67.9a3.5 3.5 0 0 1 3.5 3.5v4.667a3.5 3.5 0 0 1-3.5 3.5zM63.234 301a1.167 1.167 0 0 0-1.166 1.166v4.667A1.168 1.168 0 0 0 63.234 308H67.9a1.169 1.169 0 0 0 1.167-1.167v-4.667A1.168 1.168 0 0 0 67.9 301z" data-name="Path 31572" transform="translate(-51.567 -257.834)"/>
                <path id="Path_31573" d="M235.636 358.6h-4.667a3.5 3.5 0 0 1-3.5-3.5v-4.667a3.5 3.5 0 0 1 3.5-3.5h4.667a3.5 3.5 0 0 1 3.5 3.5v4.667a3.5 3.5 0 0 1-3.5 3.5zm-4.667-9.333a1.168 1.168 0 0 0-1.166 1.167v4.666a1.167 1.167 0 0 0 1.166 1.166h4.667a1.168 1.168 0 0 0 1.164-1.166v-4.667a1.169 1.169 0 0 0-1.167-1.167z" data-name="Path 31573" transform="translate(-196.37 -299.505)"/>
                <path id="Path_31574" d="M264.261 220.072a3.48 3.48 0 0 1-2.475-1.025l-3.3-3.3a3.5 3.5 0 0 1 0-4.95l3.3-3.3a3.583 3.583 0 0 1 4.95 0l3.3 3.3a3.5 3.5 0 0 1 0 4.95l-3.3 3.3a3.474 3.474 0 0 1-2.475 1.025zm0-11.267a1.156 1.156 0 0 0-.824.342l-3.3 3.3a1.165 1.165 0 0 0 0 1.649l3.3 3.3a1.194 1.194 0 0 0 1.649 0l3.3-3.3a1.164 1.164 0 0 0 0-1.648l-3.3-3.3a1.161 1.161 0 0 0-.825-.348z" data-name="Path 31574" transform="translate(-222.261 -178.272)"/>
                <path id="Path_31575" d="M272.7 45.8h-4.667a3.5 3.5 0 0 1-3.5-3.5v-4.667a3.5 3.5 0 0 1 3.5-3.5h4.667a3.5 3.5 0 0 1 3.5 3.5V42.3a3.5 3.5 0 0 1-3.5 3.5zm-4.667-9.333a1.168 1.168 0 0 0-1.166 1.167V42.3a1.167 1.167 0 0 0 1.166 1.166h4.667a1.168 1.168 0 0 0 1.167-1.166v-4.667a1.169 1.169 0 0 0-1.167-1.167z" data-name="Path 31575" transform="translate(-228.368 -29.466)"/>
                <path id="Path_31576" d="M419.3 74.072a1.167 1.167 0 0 1-.6-2.167l5.833-3.5a1.167 1.167 0 1 1 1.2 2l-5.833 3.5a1.163 1.163 0 0 1-.6.167z" data-name="Path 31576" transform="translate(-360.966 -58.905)"/>
                <path id="Path_31577" d="M380.934 48.526H368.1a1.167 1.167 0 0 1 0-2.333h8.622L374.5 44.86a1.167 1.167 0 0 1 1.2-2l5.833 3.5a1.166 1.166 0 0 1-.6 2.167z" data-name="Path 31577" transform="translate(-316.767 -36.86)"/>
                <path id="Path_31578" d="M58.2 150.535a7 7 0 1 1 7-7 7 7 0 0 1-7 7zm0-11.666a4.667 4.667 0 1 0 4.667 4.666 4.666 4.666 0 0 0-4.667-4.667z" data-name="Path 31578" transform="translate(-44.199 -117.868)"/>
                <path id="Path_31579" d="M35.733 167.6h-14a4.68 4.68 0 0 1-4.667-4.667V160.6a7.008 7.008 0 0 1 7-7 1.167 1.167 0 1 1 0 2.333A4.672 4.672 0 0 0 19.4 160.6v2.333a2.275 2.275 0 0 0 .766 1.722 2.32 2.32 0 0 0 1.567.612h14a2.347 2.347 0 0 0 2.333-2.333V160.6a4.672 4.672 0 0 0-4.667-4.667 1.167 1.167 0 1 1 0-2.333 7.007 7.007 0 0 1 7 7v2.333a4.68 4.68 0 0 1-4.666 4.667z" data-name="Path 31579" transform="translate(-14.733 -132.602)"/>
                <path id="Path_31580" d="M29.685 244.928a4.088 4.088 0 0 1-4.083-4.084v-7.314a1.167 1.167 0 0 1 2.333 0v7.315a1.75 1.75 0 1 0 3.5 0v-6.417a1.167 1.167 0 0 1 2.333 0v6.417a4.088 4.088 0 0 1-4.083 4.083z" data-name="Path 31580" transform="translate(-22.102 -200.595)"/>
                <path id="Path_31581" d="M123.548 244.928a4.089 4.089 0 0 1-4.083-4.084v-6.417a1.167 1.167 0 0 1 2.334 0v6.417a1.75 1.75 0 1 0 3.5 0v-7.314a1.167 1.167 0 0 1 2.333 0v7.315a4.088 4.088 0 0 1-4.084 4.083z" data-name="Path 31581" transform="translate(-103.132 -200.595)"/>
                <path id="Path_31582" d="M23.334 180.5h-21A2.335 2.335 0 0 1 0 178.167v-16.334a2.336 2.336 0 0 1 2.333-2.333h7.315a1.167 1.167 0 1 1 0 2.333H2.333v16.334h21a26.864 26.864 0 0 0 26.833-26.833V131.5A1.169 1.169 0 0 0 49 130.333H35a1.169 1.169 0 0 0-1.167 1.167v19.833a10.511 10.511 0 0 1-10.5 10.5h-4.981a1.167 1.167 0 1 1 0-2.333h4.982a8.175 8.175 0 0 0 8.166-8.166V131.5A3.5 3.5 0 0 1 35 128h14a3.5 3.5 0 0 1 3.5 3.5v19.833A29.2 29.2 0 0 1 23.334 180.5z" data-name="Path 31582" transform="translate(0 -110.5)"/>
                <path id="Path_31583" d="M138.622 423.8h-3.909a1.167 1.167 0 0 1 0-2.333h3.909a22.11 22.11 0 0 0 15.073-5.919 1.167 1.167 0 1 1 1.587 1.711 24.433 24.433 0 0 1-16.66 6.541z" data-name="Path 31583" transform="translate(-115.289 -358.462)"/>
                <path id="Path_31584" d="M138.622 374.458h-3.909a1.167 1.167 0 0 1 0-2.333h3.909a12.833 12.833 0 0 0 8.19-2.962 1.167 1.167 0 1 1 1.493 1.794 15.177 15.177 0 0 1-9.683 3.501z" data-name="Path 31584" transform="translate(-115.289 -318.458)"/>
                <path id="Path_31585" d="M296.934 282.29a1.167 1.167 0 0 1-.911-1.894 21.873 21.873 0 0 0 4.808-13.774v-3.909a1.167 1.167 0 0 1 2.333 0v3.909a24.181 24.181 0 0 1-5.318 15.229 1.166 1.166 0 0 1-.912.439z" data-name="Path 31585" transform="translate(-255.331 -225.789)"/>
                <path id="Path_31586" d="M248.459 275.559a1.166 1.166 0 0 1-.968-1.816 12.758 12.758 0 0 0 2.16-7.121v-3.909a1.167 1.167 0 0 1 2.333 0v3.909a15.071 15.071 0 0 1-2.554 8.419 1.165 1.165 0 0 1-.971.518z" data-name="Path 31586" transform="translate(-213.484 -225.789)"/>
                <path id="Path_31587" d="M275.035 144.742a1.166 1.166 0 0 1-1.166-1.166v-13.243h-7v13.242a1.167 1.167 0 0 1-2.333 0v-14.408A1.167 1.167 0 0 1 265.7 128h9.333a1.167 1.167 0 0 1 1.167 1.167v14.408a1.167 1.167 0 0 1-1.165 1.167z" data-name="Path 31587" transform="translate(-228.368 -110.5)"/>
                <path id="Path_31588" d="M15.575 404.2H1.167A1.167 1.167 0 0 1 0 403.035V393.7a1.167 1.167 0 0 1 1.167-1.166h14.408a1.167 1.167 0 0 1 0 2.333H2.333v7h13.242a1.167 1.167 0 0 1 0 2.333z" data-name="Path 31588" transform="translate(0 -338.868)"/>
            </g>
        </g>
    </g>
</svg>
