<svg xmlns="http://www.w3.org/2000/svg" width="130" height="130" viewBox="0 0 130 130">
    <defs>
        <style>
            .cls-1{fill:#fff}.cls-2{fill:#46b5a4}.cls-3{fill:#42c8b7}.cls-4{filter:url(#Rectangle_11879)}
        </style>
        <filter id="Rectangle_11879" width="130" height="130" x="0" y="0" filterUnits="userSpaceOnUse">
            <feOffset/>
            <feGaussianBlur result="blur" stdDeviation="5"/>
            <feFlood flood-opacity=".149"/>
            <feComposite in2="blur" operator="in"/>
            <feComposite in="SourceGraphic"/>
        </filter>
    </defs>
    <g id="Group_10279" data-name="Group 10279" transform="translate(15 14.958)">
        <g class="cls-4" transform="translate(-15 -14.96)">
            <rect id="Rectangle_11879-2" width="100" height="100" class="cls-1" data-name="Rectangle 11879" rx="10" transform="translate(15 15)"/>
        </g>
        <g id="Group_9532" data-name="Group 9532" transform="translate(17 14.243)">
            <path id="Path_31532" d="M149.571 413.466h-41.7a2.31 2.31 0 0 0-2.135 1.4l-2.952 6.767h-5.54l4.375-10.034a4.674 4.674 0 0 1 4.282-2.8h41.71z" class="cls-1" data-name="Path 31532" transform="translate(-85.699 -352.799)"/>
            <path id="Path_31533" d="M82.223 350H40.514a4.674 4.674 0 0 0-4.282 2.8l-4.375 10.034h-6.884a3.5 3.5 0 0 1-3.278-4.713l2.567-6.954h4.562a2.342 2.342 0 0 0 2.193-1.54l3.255-8.96h37.8l1.015 3.069a2.343 2.343 0 0 0 2.216 1.6h4.947z" class="cls-2" data-name="Path 31533" transform="translate(-20.312 -293.996)"/>
            <path id="Path_31534" d="M182.653 451.032H137.7l2.952-6.767a2.31 2.31 0 0 1 2.135-1.4h41.7l1.4 3.313a3.5 3.5 0 0 1-3.232 4.853z" class="cls-2" data-name="Path 31534" transform="translate(-120.613 -382.199)"/>
            <path id="Path_31535" d="M78.373 350H40.957a4.674 4.674 0 0 0-4.282 2.8L32.3 362.829h-7.327a3.5 3.5 0 0 1-3.278-4.713l2.567-6.954h4.562a2.342 2.342 0 0 0 2.193-1.54l3.255-8.96h38.186l1.015 3.069a2.343 2.343 0 0 0 2.216 1.6h.711z" class="cls-3" data-name="Path 31535" transform="translate(-20.312 -293.996)"/>
            <path id="Path_31536" d="M178.8 451.032h-41.1l2.952-6.767a2.31 2.31 0 0 1 2.135-1.4h37.848l1.4 3.313a3.5 3.5 0 0 1-3.232 4.853z" class="cls-3" data-name="Path 31536" transform="translate(-120.613 -382.199)"/>
            <path id="Path_31537" d="M51.81 340.662l-3.255 8.96a2.342 2.342 0 0 1-2.193 1.54H41.8l3.022-8.213a3.481 3.481 0 0 1 3.278-2.287z" class="cls-1" data-name="Path 31537" transform="translate(-37.85 -293.996)"/>
            <path id="Path_31538" d="M399 345.329h-4.947a2.343 2.343 0 0 1-2.216-1.6l-1.015-3.069h3.9a3.483 3.483 0 0 1 3.221 2.147z" class="cls-1" data-name="Path 31538" transform="translate(-339.059 -293.996)"/>
            <path id="Path_31539" d="M123.718 8.493l-.431.035a21 21 0 0 0-11.76 37.007 5.78 5.78 0 0 1 1.446 1.785l6.534 13.091a6.192 6.192 0 0 0 3.78 3.162 6.293 6.293 0 0 0 1.75.245 6.176 6.176 0 0 0 5.53-3.407l6.58-13.2a5.3 5.3 0 0 1 1.318-1.61 21 21 0 0 0-14.747-37.108z" class="cls-2" data-name="Path 31539" transform="translate(-91.558 -7.293)"/>
            <path id="Path_31540" d="M123.287 9.018a21 21 0 0 0-11.76 37.007 5.78 5.78 0 0 1 1.446 1.785l6.534 13.09a6.192 6.192 0 0 0 3.78 3.162 6.2 6.2 0 0 0 3.78-3.162l6.58-13.2a5.305 5.305 0 0 1 1.319-1.61 21 21 0 0 0-11.679-37.072z" class="cls-3" data-name="Path 31540" transform="translate(-91.558 -7.783)"/>
            <path id="Path_31541" d="M176.414 65.586a15.273 15.273 0 1 1-15.273-15.273 15.273 15.273 0 0 1 15.273 15.273z" class="cls-1" data-name="Path 31541" transform="translate(-127.662 -43.421)"/>
            <path id="Path_31542" d="M211.85 103.472l-8.587 3.815-8.587-3.815 8.2-3.651a.978.978 0 0 1 .77 0z" class="cls-3" data-name="Path 31542" transform="translate(-169.784 -86.079)"/>
            <path id="Path_31543" d="M265.947 126.973v8.927a.957.957 0 0 1-.572.875l-7.63 3.4a1.119 1.119 0 0 1-.385.082v-9.461z" class="cls-3" data-name="Path 31543" transform="translate(-223.881 -109.579)"/>
            <path id="Path_31544" d="M203.263 130.788v9.461a1.118 1.118 0 0 1-.385-.082l-7.642-3.4a.965.965 0 0 1-.56-.875v-8.925z" class="cls-2" data-name="Path 31544" transform="translate(-169.784 -109.579)"/>
            <path id="Path_31545" d="M170.23 58.238a16.44 16.44 0 1 0-16.44 16.44 16.44 16.44 0 0 0 16.44-16.44zm-30.547 0a14.107 14.107 0 1 1 14.107 14.106 14.106 14.106 0 0 1-14.107-14.106z" data-name="Path 31545" transform="translate(-120.311 -36.072)"/>
            <path id="Path_31546" d="M196.783 110.384l7.634-3.392a2.123 2.123 0 0 0 1.258-1.939v-8.926a1.141 1.141 0 0 0-.082-.406.982.982 0 0 0-.05-.107 1.1 1.1 0 0 0-.168-.25.912.912 0 0 0-.072-.081 1.147 1.147 0 0 0-.32-.216l-.019-.008-8.179-3.642a2.113 2.113 0 0 0-1.724 0l-8.177 3.635-.022.015a1.16 1.16 0 0 0-.32.221c-.027.025-.047.054-.072.081a1.181 1.181 0 0 0-.168.25.854.854 0 0 0-.05.109 1.145 1.145 0 0 0-.082.4v8.925a2.124 2.124 0 0 0 1.259 1.939l7.635 3.393a2.109 2.109 0 0 0 1.724 0zm.305-2.683v-7l6.252-2.78v6.992zm-1.167-14.115l5.717 2.541-5.717 2.541-5.721-2.541zm-7.42 4.337l6.253 2.78v6.997l-6.257-2.781z" data-name="Path 31546" transform="translate(-162.442 -78.735)"/>
            <path id="Path_31547" d="M18.841 48.549l-5.588 15.167A4.667 4.667 0 0 0 17.625 70H75a4.667 4.667 0 0 0 4.307-6.474l-5.33-12.647-1.061-2.518a4.651 4.651 0 0 0-4.295-2.861H57.077l2.523-5.054a3.928 3.928 0 0 1 1.012-1.234 22.167 22.167 0 1 0-28.431-.074 4.509 4.509 0 0 1 1.152 1.408l2.475 4.954H23.214a4.667 4.667 0 0 0-4.373 3.049zm2.191.8a2.326 2.326 0 0 1 2.182-1.517h2.045L23.42 52.9l-.845 2.329a1.166 1.166 0 0 1-1.1.768h-2.893zm22.692 7.817a7.227 7.227 0 0 0 5.437 0h24.933l.985 2.333h-39.94a3.5 3.5 0 0 0-3.21 2.1l-2.637 6.067h-3l3.664-8.4a3.5 3.5 0 0 1 3.209-2.1zm33.228 9.45A2.3 2.3 0 0 1 75 67.666H31.836l2.237-5.134a1.166 1.166 0 0 1 1.07-.7h40.921l1.1 2.6a2.29 2.29 0 0 1-.212 2.184zm-6.184-17.354l.379.9h-3.191a1.182 1.182 0 0 1-1.109-.8l-.508-1.531h2.282a2.322 2.322 0 0 1 2.145 1.434zm-6.886-1.429l.754 2.278a3.515 3.515 0 0 0 3.32 2.388h4.172l.984 2.333H52.244a7.461 7.461 0 0 0 .77-1.2l2.9-5.8zm-30.2-10.481a19.834 19.834 0 1 1 25.434.068 6.184 6.184 0 0 0-1.605 1.98l-6.588 13.187A5 5 0 0 1 48.5 54.92a.556.556 0 0 0-.052.024 5.04 5.04 0 0 1-4.027 0 .5.5 0 0 0-.051-.024 5 5 0 0 1-2.418-2.333L35.422 39.5a6.81 6.81 0 0 0-1.738-2.148zm6.184 16.282a7.462 7.462 0 0 0 .775 1.2h-7.476a5.834 5.834 0 0 0-5.348 3.5l-4.072 9.333h-6.12a2.333 2.333 0 0 1-2.183-3.143l2.281-6.19h3.752a3.51 3.51 0 0 0 3.289-2.306l2.976-8.195h9.233z" data-name="Path 31547" transform="translate(-12.964 .001)"/>
        </g>
    </g>
</svg>
