<svg xmlns="http://www.w3.org/2000/svg" width="130" height="130" viewBox="0 0 130 130">
    <defs>
        <style>
            .cls-1{fill:#fff}.cls-2{fill:#42c8b7}.cls-3{fill:#46b5a4}.cls-4{filter:url(#Rectangle_11879)}
        </style>
        <filter id="Rectangle_11879" width="130" height="130" x="0" y="0" filterUnits="userSpaceOnUse">
            <feOffset/>
            <feGaussianBlur result="blur" stdDeviation="5"/>
            <feFlood flood-opacity=".153"/>
            <feComposite in2="blur" operator="in"/>
            <feComposite in="SourceGraphic"/>
        </filter>
    </defs>
    <g id="Group_10278" data-name="Group 10278" transform="translate(15 14.958)">
        <g class="cls-4" transform="translate(-15 -14.96)">
            <rect id="Rectangle_11879-2" width="100" height="100" class="cls-1" data-name="Rectangle 11879" rx="10" transform="translate(15 15)"/>
        </g>
        <g id="Group_9526" data-name="Group 9526" transform="translate(15.037 23.124)">
            <g id="Icons" transform="translate(4.67 1.164)">
                <path id="Shape" d="M47.934 103.913l2.917 11.935.268 1.085-3.384 1.867a2.344 2.344 0 0 1-3.173-.922L34.447 99.48a2.34 2.34 0 0 1 .922-3.173l34.86-19.168 1.937-1.062a2.333 2.333 0 0 1 3.172.923l8.622 15.68-3.722.91-30.6 7.5a2.333 2.333 0 0 0-1.704 2.823z" class="cls-1" transform="translate(-34.159 -75.786)"/>
                <path id="Path_31481" d="M47.934 112.45l2.917 11.935-3.232 2.392-1.447.8a2.34 2.34 0 0 1-1.61-1.167l-10.115-18.4a2.34 2.34 0 0 1 .922-3.173l34.86-19.168a2.34 2.34 0 0 1 1.61 1.167l8.4 15.283-30.6 7.5a2.333 2.333 0 0 0-1.705 2.831z" class="cls-1" data-name="Path 31481" transform="translate(-34.159 -84.323)"/>
                <path id="Path_31482" d="M122.317 139.763a3.535 3.535 0 0 1 1.6-1.855l-4.5-8.178a3.488 3.488 0 0 1-4.748-1.388l-26.582 14.617a3.5 3.5 0 0 1-1.388 4.748l4.5 8.178a3.472 3.472 0 0 1 3.768.28" class="cls-2" data-name="Path 31482" transform="translate(-79.516 -121.156)"/>
                <path id="Path_31483" d="M183.9 183.564l-13.592 3.325c-.058-.128-.117-.257-.163-.385-1.493-3.7-.408-7.782 2.7-9.473.2-.105.4-.2.595-.292 3.3-1.377 7.42.35 9.473 4.072a9.319 9.319 0 0 1 .992 2.753z" class="cls-2" data-name="Path 31483" transform="translate(-150.985 -162.53)"/>
                <path id="Path_31484" d="M183.095 212.245l-40.8 10a2.305 2.305 0 0 1-1.657-.2 2.359 2.359 0 0 1-1.167-1.505l-1.808-7.385-.268-1.085-2.917-11.935a2.333 2.333 0 0 1 1.7-2.823l30.6-7.5 3.722-.91 4.982-1.225 1.493-.362a2.339 2.339 0 0 1 2.823 1.715l4.993 20.393a2.326 2.326 0 0 1-1.7 2.823z" class="cls-1" data-name="Path 31484" transform="translate(-120.705 -172.008)"/>
                <path id="Path_31485" d="M180.446 214.984l-39.806 9.765a2.359 2.359 0 0 1-1.167-1.5l-4.993-20.4a2.333 2.333 0 0 1 1.7-2.823l39.3-9.637a1.213 1.213 0 0 1 .315.56l5.53 22.575a1.219 1.219 0 0 1-.887 1.47z" class="cls-1" data-name="Path 31485" transform="translate(-120.705 -174.712)"/>
                <path id="Path_31486" d="M180.453 251.579l-2.217-9.065a3.5 3.5 0 0 0 2.567-4.233l29.461-7.224a3.5 3.5 0 0 0 4.233 2.567l2.222 9.065a3.5 3.5 0 0 0-2.567 4.233l-29.466 7.223a3.5 3.5 0 0 0-4.233-2.566z" class="cls-2" data-name="Path 31486" transform="translate(-158.538 -209.829)"/>
                <path id="Path_31487" d="M276.226 272.213a6.016 6.016 0 0 1-2.7.047 8.253 8.253 0 0 1-6.043-6.312c-1.062-4.317 1.038-8.563 4.7-9.555a.756.756 0 0 1 .152-.047c3.757-.922 7.665 1.89 8.738 6.265s-1.1 8.68-4.853 9.6z" class="cls-3" data-name="Path 31487" transform="translate(-235.349 -231.509)"/>
                <path id="Path_31488" d="M273.531 273.659a8.253 8.253 0 0 1-6.043-6.312c-1.062-4.317 1.038-8.563 4.7-9.555a8.271 8.271 0 0 1 6.043 6.312c1.075 4.328-1.037 8.563-4.7 9.555z" class="cls-2" data-name="Path 31488" transform="translate(-235.349 -232.908)"/>
            </g>
            <g id="Layer_10" data-name="Layer 10">
                <path id="Path_31489" d="M171.917 244.49a1.167 1.167 0 0 0 1.411.855 2.333 2.333 0 0 1 2.822 1.706 1.167 1.167 0 0 0 1.411.855l29.461-7.223a1.167 1.167 0 0 0 .856-1.412 2.333 2.333 0 0 1 1.7-2.817 1.167 1.167 0 0 0 .856-1.411l-2.222-9.065a1.167 1.167 0 0 0-1.412-.855 2.333 2.333 0 0 1-2.821-1.71 1.167 1.167 0 0 0-1.412-.855l-29.456 7.226a1.167 1.167 0 0 0-.855 1.41 2.334 2.334 0 0 1-1.71 2.822 1.166 1.166 0 0 0-.855 1.412zm20.917-2.871l-.3-1.2a3.5 3.5 0 0 0-2.749-6.314 1.167 1.167 0 1 1 .855-1.411 1.167 1.167 0 0 0 1.412.855c1.867-.46.525-3.768-2.194-4.046l-.293-1.2c2.953 0 5.422 2.524 6.164 5.55.809 3.282-.467 6.5-2.895 7.766zm-7.908-10.288a5.572 5.572 0 0 1 2.372-2.48l.293 1.2a3.493 3.493 0 0 0 2.75 6.314 1.167 1.167 0 1 1-.855 1.41 1.167 1.167 0 0 0-1.412-.855c-1.881.467-.518 3.772 2.195 4.048l.294 1.2c-4.726.004-7.956-6.249-5.637-10.836zm21.272-3.807l1.738 7.085a4.686 4.686 0 0 0-2.457 4.054l-8.517 2.087a10.208 10.208 0 0 0-3.324-13.6l8.5-2.085a4.683 4.683 0 0 0 4.058 2.458zm-31.535 4.28l8.5-2.085a10.186 10.186 0 0 0 3.349 13.6L178 245.407a4.676 4.676 0 0 0-4.059-2.463l-1.737-7.085a4.684 4.684 0 0 0 2.457-4.054z" data-name="Path 31489" transform="translate(-146.465 -201.298)"/>
                <path id="Path_31490" d="M26.1 92.689l10.113 18.395a3.5 3.5 0 0 0 3.075 1.821c1.177 0 1.766-.476 3.733-1.564l1.448 5.9a3.5 3.5 0 0 0 3.4 2.662c.621 0-1.983.583 41.625-10.1a3.5 3.5 0 0 0 2.567-4.233l-5-20.395a3.5 3.5 0 0 0-4.232-2.567l-5.6 1.373-8.189-14.895a3.507 3.507 0 0 0-4.756-1.386l-3.709 2.038H42a1.167 1.167 0 1 0 0 2.333h14.332l-4.244 2.333H29.167a1.167 1.167 0 1 0 0 2.333h18.676l-8.487 4.667h-9.022a1.167 1.167 0 1 0 0 2.333h4.783l-7.637 4.2a3.522 3.522 0 0 0-1.38 4.752zm10.764-1.92l7.638-4.2a9.566 9.566 0 0 0 .117 5.41l-2.579.632a3.5 3.5 0 0 0-2.567 4.233l1.167 4.783a4.619 4.619 0 0 0-1.59.09l-3.521-6.394a4.684 4.684 0 0 0 1.338-4.554zm31.988-4.733l-8.268 2.028A10.051 10.051 0 0 0 54 81.346l7.659-4.212a4.666 4.666 0 0 0 4.55 1.33l3.52 6.392a4.679 4.679 0 0 0-.879 1.179zm-21.946 5.381a6.51 6.51 0 0 1 1.4-6.767l.592 1.076a3.471 3.471 0 0 0 .475 5.089zm8.824-2.163a3.507 3.507 0 0 0-3.663-.19 1.166 1.166 0 1 1 .461-1.583 1.167 1.167 0 1 0 2.044-1.125 3.468 3.468 0 0 0-3.628-1.75l-.583-1.071c3.383-.905 6.814 1.667 7.965 5.089zm27.658-4.38a1.167 1.167 0 0 1 1.41.855l5 20.4a1.167 1.167 0 0 1-.855 1.411l-40.792 10a1.167 1.167 0 0 1-1.411-.855l-5-20.4a1.166 1.166 0 0 1 .856-1.41zm-54.778 5.1L65.4 69.747a1.167 1.167 0 0 1 1.59.461l7.89 14.35-2.5.611c0-.453.291.218-4.633-8.723a1.166 1.166 0 0 0-.7-.558c-.9-.26-1.239.707-2.653.3A2.324 2.324 0 0 1 63 75.06a1.167 1.167 0 0 0-1.586-.467L34.841 89.212a1.167 1.167 0 0 0-.467 1.58 2.333 2.333 0 0 1-.922 3.166 1.166 1.166 0 0 0-.467 1.588l4.5 8.177a1.167 1.167 0 0 0 1.582.467 2.293 2.293 0 0 1 2.2.018l1.174 4.783-2.6 1.434a1.176 1.176 0 0 1-1.592-.461l-10.1-18.4a1.167 1.167 0 0 1 .461-1.59z" data-name="Path 31490" transform="translate(-22.167 -67.269)"/>
                <path id="Path_31491" d="M52.367 437.533h11.666a1.167 1.167 0 0 0 0-2.333H52.367a1.167 1.167 0 0 0 0 2.333z" data-name="Path 31491" transform="translate(-44.2 -384.897)"/>
                <path id="Path_31492" d="M1.167 437.533H3.5a1.167 1.167 0 0 0 0-2.333H1.167a1.167 1.167 0 0 0 0 2.333z" data-name="Path 31492" transform="translate(0 -384.897)"/>
                <path id="Path_31493" d="M1.167 173H3.5a1.167 1.167 0 0 0 0-2.333H1.167a1.167 1.167 0 0 0 0 2.333z" data-name="Path 31493" transform="translate(0 -156.531)"/>
                <path id="Path_31494" d="M18.234 386.333h7a1.167 1.167 0 0 0 0-2.333h-7a1.167 1.167 0 0 0 0 2.333z" data-name="Path 31494" transform="translate(-14.734 -340.697)"/>
                <path id="Path_31495" d="M15.533 333.967a1.167 1.167 0 0 0-1.167-1.167H9.7a1.167 1.167 0 1 0 0 2.333h4.667a1.167 1.167 0 0 0 1.166-1.166z" data-name="Path 31495" transform="translate(-7.366 -296.497)"/>
                <path id="Path_31496" d="M1.167 283.933H3.5a1.167 1.167 0 0 0 0-2.333H1.167a1.167 1.167 0 0 0 0 2.333z" data-name="Path 31496" transform="translate(0 -252.297)"/>
            </g>
        </g>
    </g>
</svg>
